{"glyphs":{"0":{"ha":853,"x_min":56,"x_max":797,"o":"m 426 -14 q 224 49 307 -14 q 99 226 142 113 q 56 486 56 339 q 99 747 56 635 q 224 923 142 860 q 426 986 307 986 q 628 923 546 986 q 754 747 711 860 q 797 486 797 635 q 754 226 797 339 q 628 49 711 113 q 426 -14 546 -14 m 426 153 q 527 190 485 153 q 593 301 569 226 q 617 486 617 375 q 593 672 617 599 q 527 783 569 746 q 426 819 485 819 q 326 783 369 819 q 260 672 283 746 q 236 486 236 599 q 260 301 236 375 q 326 190 283 226 q 426 153 369 153 z "},"1":{"ha":506,"x_min":7,"x_max":401,"o":"m 310 0 q 246 24 271 0 q 221 85 221 49 l 221 785 l 240 754 l 135 690 q 90 678 114 678 q 31 705 54 678 q 7 763 7 732 q 50 835 7 810 l 260 960 q 319 972 283 972 q 378 948 356 972 q 401 888 401 924 l 401 85 q 376 24 401 49 q 310 0 350 0 z "},"2":{"ha":744,"x_min":65,"x_max":703,"o":"m 625 153 q 681 131 658 153 q 703 75 703 108 q 681 22 703 43 q 625 0 658 0 l 153 0 q 96 22 117 0 q 75 79 75 44 q 100 140 75 114 l 403 464 q 483 574 453 518 q 514 679 514 631 q 493 757 514 722 q 439 813 472 792 q 367 833 406 833 q 285 806 326 833 q 211 735 243 779 q 178 707 194 713 q 147 701 161 701 q 91 724 117 701 q 65 778 65 747 q 81 824 65 801 q 121 869 97 846 q 243 954 174 922 q 376 986 313 986 q 539 947 471 986 q 644 840 607 908 q 682 686 682 772 q 660 567 682 628 q 601 450 639 507 q 515 340 564 393 l 328 140 l 313 153 l 625 153 z "},"3":{"ha":725,"x_min":42,"x_max":669,"o":"m 142 196 q 169 192 154 196 q 201 175 183 188 q 258 143 225 157 q 333 129 290 129 q 415 151 376 129 q 478 212 453 172 q 503 307 503 251 q 481 394 503 360 q 424 447 460 429 q 349 465 389 465 q 298 460 318 465 q 259 448 278 454 q 215 442 240 442 q 166 464 183 442 q 149 517 149 486 q 156 551 149 536 q 179 585 164 567 l 424 851 l 461 819 l 119 819 q 64 842 86 819 q 42 897 42 864 q 64 951 42 929 q 119 972 86 972 l 544 972 q 609 949 588 972 q 631 889 631 925 q 622 854 631 871 q 597 822 613 838 l 351 551 l 314 599 q 356 611 329 606 q 401 617 383 617 q 544 574 483 617 q 637 465 604 532 q 669 319 669 397 q 624 142 669 217 q 494 26 578 67 q 300 -14 411 -14 q 199 -1 249 -14 q 113 32 149 11 q 72 69 82 49 q 61 107 61 89 q 84 167 61 139 q 142 196 107 196 z "},"4":{"ha":983,"x_min":125,"x_max":872,"o":"m 651 0 q 593 24 617 0 q 569 85 569 49 l 569 738 l 599 731 l 331 399 l 324 417 l 794 417 q 850 394 828 417 q 872 339 872 372 q 850 285 872 307 q 794 264 828 264 l 208 264 q 152 288 179 264 q 125 346 125 311 q 146 401 125 376 l 585 939 q 614 963 596 954 q 654 972 632 972 q 713 948 690 972 q 736 888 736 924 l 736 85 q 712 24 736 49 q 651 0 688 0 z "},"5":{"ha":804,"x_min":79,"x_max":707,"o":"m 325 -14 q 215 2 274 -14 q 119 49 157 18 q 91 88 101 64 q 81 135 81 113 q 101 179 81 158 q 158 200 121 200 q 221 174 183 200 q 269 149 243 160 q 324 138 296 138 q 431 164 382 138 q 510 235 481 190 q 540 331 540 279 q 516 421 540 383 q 452 479 492 458 q 367 500 413 500 q 292 486 324 500 q 233 458 260 472 q 181 443 207 443 q 113 463 135 443 q 85 511 90 483 q 82 561 79 539 l 125 906 q 153 953 131 935 q 208 972 176 972 l 610 972 q 665 950 643 972 q 688 894 688 928 q 665 841 688 863 q 610 819 643 819 l 251 819 l 267 832 l 229 543 l 211 596 q 247 622 219 610 q 311 644 275 635 q 382 653 347 653 q 549 610 475 653 q 665 495 622 568 q 707 331 707 422 q 676 196 707 258 q 592 86 646 133 q 470 13 539 39 q 325 -14 401 -14 z "},"6":{"ha":761,"x_min":56,"x_max":706,"o":"m 382 -14 q 247 17 307 -14 q 144 103 186 49 q 78 225 101 157 q 56 365 56 293 q 66 479 56 413 q 103 619 76 546 q 176 763 129 693 q 297 888 224 832 q 475 972 369 943 q 507 976 492 976 q 565 960 539 976 q 590 899 590 943 q 570 845 590 868 q 517 813 550 822 q 423 772 469 799 q 337 706 376 744 q 269 617 297 667 q 228 511 240 568 l 190 513 q 238 563 210 536 q 308 610 267 590 q 404 631 349 631 q 512 606 458 631 q 609 537 565 581 q 679 434 653 493 q 706 308 706 375 q 662 146 706 219 q 545 29 618 72 q 382 -14 472 -14 m 382 139 q 462 161 426 139 q 518 222 497 183 q 539 308 539 261 q 518 395 539 357 q 462 456 497 433 q 382 478 426 478 q 302 456 338 478 q 246 395 267 433 q 225 308 225 357 q 246 222 225 261 q 302 161 267 183 q 382 139 338 139 z "},"7":{"ha":790,"x_min":83,"x_max":735,"o":"m 285 -7 q 224 16 250 -7 q 199 74 199 39 q 207 111 199 93 l 547 857 l 563 819 l 161 819 q 106 842 128 819 q 83 897 83 864 q 106 951 83 929 q 161 972 128 972 l 644 972 q 708 949 681 972 q 735 890 735 926 q 726 853 735 872 l 361 46 q 330 7 351 21 q 285 -7 308 -7 z "},"8":{"ha":817,"x_min":83,"x_max":733,"o":"m 564 493 l 561 525 q 653 464 614 501 q 713 382 692 426 q 733 290 733 338 q 690 145 733 211 q 572 40 646 79 q 408 0 499 0 q 244 40 318 0 q 127 145 171 79 q 83 290 83 211 q 110 401 83 354 q 178 479 138 447 q 260 532 219 511 l 249 493 q 181 533 214 507 q 128 599 149 558 q 107 693 107 639 q 147 834 107 771 q 256 935 188 897 q 408 972 325 972 q 560 935 493 972 q 668 834 628 897 q 708 693 708 771 q 685 593 708 633 q 628 529 661 553 q 564 493 594 506 m 274 690 q 291 624 274 653 q 339 577 308 594 q 408 560 369 560 q 477 577 447 560 q 524 624 507 594 q 542 690 542 653 q 503 783 542 746 q 408 819 465 819 q 312 783 350 819 q 274 690 274 746 m 408 153 q 521 194 475 153 q 567 293 567 235 q 546 365 567 333 q 489 416 525 397 q 408 435 453 435 q 328 416 364 435 q 271 365 292 397 q 250 293 250 333 q 296 194 250 235 q 408 153 342 153 z "},"9":{"ha":761,"x_min":56,"x_max":706,"o":"m 379 990 q 515 959 454 990 q 617 874 575 928 q 683 752 660 819 q 706 611 706 685 q 695 497 706 564 q 658 357 685 431 q 585 214 632 283 q 465 89 538 144 q 286 4 392 33 q 254 0 269 0 q 197 17 222 0 q 171 78 171 35 q 191 132 171 110 q 244 164 211 154 q 369 225 308 183 q 474 328 429 267 q 533 465 518 389 l 571 464 q 524 414 553 442 q 455 366 496 386 q 357 346 414 346 q 249 371 303 346 q 152 440 196 396 q 82 542 108 483 q 56 668 56 601 q 99 831 56 758 q 217 947 143 904 q 379 990 290 990 m 379 838 q 300 815 336 838 q 243 755 264 793 q 222 668 222 717 q 243 582 222 621 q 300 521 264 543 q 379 499 336 499 q 459 521 424 499 q 515 582 494 543 q 536 668 536 621 q 515 755 536 717 q 459 815 494 793 q 379 838 424 838 z "},"A":{"ha":888,"x_min":14,"x_max":874,"o":"m 461 754 l 161 49 q 131 8 151 22 q 88 -7 111 -7 q 32 14 50 -7 q 14 65 14 35 q 18 92 14 78 l 364 922 q 398 965 375 950 q 447 978 421 981 q 494 963 472 978 q 525 922 515 949 l 867 108 q 874 75 874 90 q 849 15 874 38 q 796 -7 825 -7 q 751 8 771 -7 q 719 50 731 24 l 421 746 l 461 754 m 204 218 l 281 378 l 656 378 l 682 218 l 204 218 z "},"Á":{"ha":888,"x_min":14,"x_max":874,"o":"m 461 754 l 161 49 q 131 8 151 22 q 88 -7 111 -7 q 32 14 50 -7 q 14 65 14 35 q 18 92 14 78 l 364 922 q 398 965 375 950 q 447 978 421 981 q 494 963 472 978 q 525 922 515 949 l 867 108 q 874 75 874 90 q 849 15 874 38 q 796 -7 825 -7 q 751 8 771 -7 q 719 50 731 24 l 421 746 l 461 754 m 204 218 l 281 378 l 656 378 l 682 218 l 204 218 m 449 1025 q 406 1039 422 1025 q 390 1075 390 1053 q 395 1094 390 1085 q 410 1113 400 1103 l 529 1218 q 562 1240 544 1231 q 597 1249 579 1249 q 646 1231 621 1249 q 671 1181 671 1213 q 658 1140 671 1160 q 619 1107 644 1119 l 481 1033 q 464 1026 472 1028 q 449 1025 456 1025 z "},"Ă":{"ha":888,"x_min":14,"x_max":874,"o":"m 461 754 l 161 49 q 131 8 151 22 q 88 -7 111 -7 q 32 14 50 -7 q 14 65 14 35 q 18 92 14 78 l 364 922 q 398 965 375 950 q 447 978 421 981 q 494 963 472 978 q 525 922 515 949 l 867 108 q 874 75 874 90 q 849 15 874 38 q 796 -7 825 -7 q 751 8 771 -7 q 719 50 731 24 l 421 746 l 461 754 m 204 218 l 281 378 l 656 378 l 682 218 l 204 218 m 447 1053 q 312 1087 369 1053 q 228 1182 254 1121 q 228 1238 214 1217 q 268 1258 242 1258 q 315 1245 297 1258 q 351 1208 332 1232 q 390 1181 367 1190 q 447 1171 413 1171 q 543 1208 514 1171 q 580 1245 563 1232 q 626 1258 597 1258 q 668 1238 654 1258 q 668 1185 682 1218 q 584 1087 642 1121 q 447 1053 526 1053 z "},"Ắ":{"ha":888,"x_min":14,"x_max":874,"o":"m 461 754 l 161 49 q 131 8 151 22 q 88 -7 111 -7 q 32 14 50 -7 q 14 65 14 35 q 18 92 14 78 l 364 922 q 398 965 375 950 q 447 978 421 981 q 494 963 472 978 q 525 922 515 949 l 867 108 q 874 75 874 90 q 849 15 874 38 q 796 -7 825 -7 q 751 8 771 -7 q 719 50 731 24 l 421 746 l 461 754 m 204 218 l 281 378 l 656 378 l 682 218 l 204 218 m 447 1053 q 312 1087 369 1053 q 228 1182 254 1121 q 228 1238 214 1217 q 268 1258 242 1258 q 315 1245 297 1258 q 351 1208 332 1232 q 390 1181 367 1190 q 447 1171 413 1171 q 543 1208 514 1171 q 580 1245 563 1232 q 626 1258 597 1258 q 668 1238 654 1258 q 668 1185 682 1218 q 584 1087 642 1121 q 447 1053 526 1053 m 449 1282 q 406 1296 422 1282 q 390 1332 390 1310 q 395 1351 390 1342 q 410 1369 400 1360 l 529 1475 q 562 1497 544 1488 q 597 1506 579 1506 q 646 1488 621 1506 q 671 1438 671 1469 q 658 1397 671 1417 q 619 1364 644 1376 l 481 1290 q 464 1283 472 1285 q 449 1282 456 1282 z "},"Ặ":{"ha":888,"x_min":14,"x_max":874,"o":"m 461 754 l 161 49 q 131 8 151 22 q 88 -7 111 -7 q 32 14 50 -7 q 14 65 14 35 q 18 92 14 78 l 364 922 q 398 965 375 950 q 447 978 421 981 q 494 963 472 978 q 525 922 515 949 l 867 108 q 874 75 874 90 q 849 15 874 38 q 796 -7 825 -7 q 751 8 771 -7 q 719 50 731 24 l 421 746 l 461 754 m 204 218 l 281 378 l 656 378 l 682 218 l 204 218 m 444 -204 q 379 -189 399 -204 q 360 -135 360 -174 l 360 -108 q 381 -53 360 -68 q 444 -39 403 -39 q 515 -53 496 -39 q 535 -108 535 -68 l 535 -135 q 514 -190 535 -175 q 444 -204 493 -204 m 447 1053 q 312 1087 369 1053 q 228 1182 254 1121 q 228 1238 214 1217 q 268 1258 242 1258 q 315 1245 297 1258 q 351 1208 332 1232 q 390 1181 367 1190 q 447 1171 413 1171 q 543 1208 514 1171 q 580 1245 563 1232 q 626 1258 597 1258 q 668 1238 654 1258 q 668 1185 682 1218 q 584 1087 642 1121 q 447 1053 526 1053 z "},"Ằ":{"ha":888,"x_min":14,"x_max":874,"o":"m 461 754 l 161 49 q 131 8 151 22 q 88 -7 111 -7 q 32 14 50 -7 q 14 65 14 35 q 18 92 14 78 l 364 922 q 398 965 375 950 q 447 978 421 981 q 494 963 472 978 q 525 922 515 949 l 867 108 q 874 75 874 90 q 849 15 874 38 q 796 -7 825 -7 q 751 8 771 -7 q 719 50 731 24 l 421 746 l 461 754 m 204 218 l 281 378 l 656 378 l 682 218 l 204 218 m 447 1053 q 312 1087 369 1053 q 228 1182 254 1121 q 228 1238 214 1217 q 268 1258 242 1258 q 315 1245 297 1258 q 351 1208 332 1232 q 390 1181 367 1190 q 447 1171 413 1171 q 543 1208 514 1171 q 580 1245 563 1232 q 626 1258 597 1258 q 668 1238 654 1258 q 668 1185 682 1218 q 584 1087 642 1121 q 447 1053 526 1053 m 444 1288 q 429 1290 438 1288 q 413 1296 421 1292 l 274 1369 q 222 1443 222 1397 q 247 1493 222 1475 q 296 1511 272 1511 q 333 1502 315 1511 q 364 1481 350 1493 l 483 1375 q 499 1356 494 1365 q 503 1338 503 1347 q 487 1301 503 1315 q 444 1288 471 1288 z "},"Ẳ":{"ha":888,"x_min":14,"x_max":874,"o":"m 461 754 l 161 49 q 131 8 151 22 q 88 -7 111 -7 q 32 14 50 -7 q 14 65 14 35 q 18 92 14 78 l 364 922 q 398 965 375 950 q 447 978 421 981 q 494 963 472 978 q 525 922 515 949 l 867 108 q 874 75 874 90 q 849 15 874 38 q 796 -7 825 -7 q 751 8 771 -7 q 719 50 731 24 l 421 746 l 461 754 m 204 218 l 281 378 l 656 378 l 682 218 l 204 218 m 447 1053 q 312 1087 369 1053 q 228 1182 254 1121 q 228 1238 214 1217 q 268 1258 242 1258 q 315 1245 297 1258 q 351 1208 332 1232 q 390 1181 367 1190 q 447 1171 413 1171 q 543 1208 514 1171 q 580 1245 563 1232 q 626 1258 597 1258 q 668 1238 654 1258 q 668 1185 682 1218 q 584 1087 642 1121 q 447 1053 526 1053 m 313 1546 q 360 1575 335 1564 q 422 1586 385 1586 q 512 1567 481 1586 q 554 1519 543 1547 q 565 1465 565 1490 q 559 1426 565 1443 q 539 1390 553 1408 q 515 1361 525 1374 q 506 1338 506 1349 q 490 1313 506 1321 q 450 1306 474 1306 q 424 1313 438 1306 q 411 1338 411 1319 q 417 1365 411 1351 q 433 1392 424 1378 q 455 1424 444 1407 q 465 1451 465 1440 q 451 1479 465 1469 q 418 1489 438 1489 q 386 1481 400 1489 q 360 1465 372 1474 q 335 1458 350 1458 q 303 1475 321 1457 q 292 1515 285 1494 q 313 1546 299 1535 z "},"Ẵ":{"ha":888,"x_min":14,"x_max":874,"o":"m 461 754 l 161 49 q 131 8 151 22 q 88 -7 111 -7 q 32 14 50 -7 q 14 65 14 35 q 18 92 14 78 l 364 922 q 398 965 375 950 q 447 978 421 981 q 494 963 472 978 q 525 922 515 949 l 867 108 q 874 75 874 90 q 849 15 874 38 q 796 -7 825 -7 q 751 8 771 -7 q 719 50 731 24 l 421 746 l 461 754 m 204 218 l 281 378 l 656 378 l 682 218 l 204 218 m 447 1053 q 312 1087 369 1053 q 228 1182 254 1121 q 228 1238 214 1217 q 268 1258 242 1258 q 315 1245 297 1258 q 351 1208 332 1232 q 390 1181 367 1190 q 447 1171 413 1171 q 543 1208 514 1171 q 580 1245 563 1232 q 626 1258 597 1258 q 668 1238 654 1258 q 668 1185 682 1218 q 584 1087 642 1121 q 447 1053 526 1053 m 260 1279 q 206 1306 229 1279 q 183 1378 183 1333 q 223 1461 183 1422 q 338 1500 263 1500 q 425 1478 385 1500 q 499 1435 465 1457 q 558 1414 533 1414 q 582 1422 574 1414 q 586 1443 590 1429 q 593 1493 576 1475 q 635 1511 610 1511 q 689 1485 667 1511 q 711 1415 711 1458 q 697 1363 711 1392 q 654 1312 683 1333 q 579 1290 625 1290 q 482 1312 528 1290 q 399 1355 436 1333 q 336 1376 361 1376 q 313 1369 322 1376 q 308 1347 304 1361 q 301 1298 318 1317 q 260 1279 285 1279 z "},"Ǎ":{"ha":888,"x_min":14,"x_max":874,"o":"m 461 754 l 161 49 q 131 8 151 22 q 88 -7 111 -7 q 32 14 50 -7 q 14 65 14 35 q 18 92 14 78 l 364 922 q 398 965 375 950 q 447 978 421 981 q 494 963 472 978 q 525 922 515 949 l 867 108 q 874 75 874 90 q 849 15 874 38 q 796 -7 825 -7 q 751 8 771 -7 q 719 50 731 24 l 421 746 l 461 754 m 204 218 l 281 378 l 656 378 l 682 218 l 204 218 m 422 1142 l 539 1217 q 579 1238 563 1232 q 610 1244 596 1244 q 641 1233 629 1244 q 653 1210 653 1222 q 649 1192 653 1200 q 632 1168 644 1183 l 544 1068 q 507 1038 526 1049 q 460 1028 488 1028 l 438 1028 q 390 1038 410 1028 q 353 1068 371 1049 l 265 1168 q 249 1192 253 1183 q 244 1210 244 1200 q 257 1233 244 1222 q 288 1244 269 1244 q 358 1217 315 1244 l 475 1142 l 422 1142 z "},"Â":{"ha":888,"x_min":14,"x_max":874,"o":"m 461 754 l 161 49 q 131 8 151 22 q 88 -7 111 -7 q 32 14 50 -7 q 14 65 14 35 q 18 92 14 78 l 364 922 q 398 965 375 950 q 447 978 421 981 q 494 963 472 978 q 525 922 515 949 l 867 108 q 874 75 874 90 q 849 15 874 38 q 796 -7 825 -7 q 751 8 771 -7 q 719 50 731 24 l 421 746 l 461 754 m 204 218 l 281 378 l 656 378 l 682 218 l 204 218 m 472 1126 l 356 1058 q 315 1036 332 1044 q 285 1028 299 1028 q 254 1039 267 1028 q 242 1063 242 1050 q 246 1082 242 1074 q 263 1104 250 1090 l 350 1204 q 388 1234 368 1224 q 435 1244 407 1244 l 457 1244 q 504 1234 485 1244 q 542 1204 524 1224 l 629 1104 q 646 1082 642 1090 q 650 1063 650 1074 q 638 1039 650 1050 q 607 1028 626 1028 q 576 1036 593 1028 q 536 1058 560 1044 l 419 1126 l 472 1126 z "},"Ấ":{"ha":888,"x_min":14,"x_max":900,"o":"m 461 754 l 161 49 q 131 8 151 22 q 88 -7 111 -7 q 32 14 50 -7 q 14 65 14 35 q 18 92 14 78 l 364 922 q 398 965 375 950 q 447 978 421 981 q 494 963 472 978 q 525 922 515 949 l 867 108 q 874 75 874 90 q 849 15 874 38 q 796 -7 825 -7 q 751 8 771 -7 q 719 50 731 24 l 421 746 l 461 754 m 204 218 l 281 378 l 656 378 l 682 218 l 204 218 m 472 1126 l 356 1058 q 315 1036 332 1044 q 285 1028 299 1028 q 254 1039 267 1028 q 242 1063 242 1050 q 246 1082 242 1074 q 263 1104 250 1090 l 350 1204 q 388 1234 368 1224 q 435 1244 407 1244 l 457 1244 q 504 1234 485 1244 q 542 1204 524 1224 l 629 1104 q 646 1082 642 1090 q 650 1063 650 1074 q 638 1039 650 1050 q 607 1028 626 1028 q 576 1036 593 1028 q 536 1058 560 1044 l 419 1126 l 472 1126 m 678 1139 q 635 1153 651 1139 q 619 1189 619 1167 q 624 1208 619 1199 q 639 1226 629 1217 l 758 1332 q 791 1353 774 1344 q 826 1363 808 1363 q 875 1344 850 1363 q 900 1294 900 1326 q 887 1253 900 1274 q 849 1221 874 1233 l 710 1147 q 693 1140 701 1142 q 678 1139 685 1139 z "},"Ậ":{"ha":888,"x_min":14,"x_max":874,"o":"m 461 754 l 161 49 q 131 8 151 22 q 88 -7 111 -7 q 32 14 50 -7 q 14 65 14 35 q 18 92 14 78 l 364 922 q 398 965 375 950 q 447 978 421 981 q 494 963 472 978 q 525 922 515 949 l 867 108 q 874 75 874 90 q 849 15 874 38 q 796 -7 825 -7 q 751 8 771 -7 q 719 50 731 24 l 421 746 l 461 754 m 204 218 l 281 378 l 656 378 l 682 218 l 204 218 m 444 -204 q 379 -189 399 -204 q 360 -135 360 -174 l 360 -108 q 381 -53 360 -68 q 444 -39 403 -39 q 515 -53 496 -39 q 535 -108 535 -68 l 535 -135 q 514 -190 535 -175 q 444 -204 493 -204 m 472 1126 l 356 1058 q 315 1036 332 1044 q 285 1028 299 1028 q 254 1039 267 1028 q 242 1063 242 1050 q 246 1082 242 1074 q 263 1104 250 1090 l 350 1204 q 388 1234 368 1224 q 435 1244 407 1244 l 457 1244 q 504 1234 485 1244 q 542 1204 524 1224 l 629 1104 q 646 1082 642 1090 q 650 1063 650 1074 q 638 1039 650 1050 q 607 1028 626 1028 q 576 1036 593 1028 q 536 1058 560 1044 l 419 1126 l 472 1126 z "},"Ầ":{"ha":888,"x_min":14,"x_max":874,"o":"m 461 754 l 161 49 q 131 8 151 22 q 88 -7 111 -7 q 32 14 50 -7 q 14 65 14 35 q 18 92 14 78 l 364 922 q 398 965 375 950 q 447 978 421 981 q 494 963 472 978 q 525 922 515 949 l 867 108 q 874 75 874 90 q 849 15 874 38 q 796 -7 825 -7 q 751 8 771 -7 q 719 50 731 24 l 421 746 l 461 754 m 204 218 l 281 378 l 656 378 l 682 218 l 204 218 m 472 1126 l 356 1058 q 315 1036 332 1044 q 285 1028 299 1028 q 254 1039 267 1028 q 242 1063 242 1050 q 246 1082 242 1074 q 263 1104 250 1090 l 350 1204 q 388 1234 368 1224 q 435 1244 407 1244 l 457 1244 q 504 1234 485 1244 q 542 1204 524 1224 l 629 1104 q 646 1082 642 1090 q 650 1063 650 1074 q 638 1039 650 1050 q 607 1028 626 1028 q 576 1036 593 1028 q 536 1058 560 1044 l 419 1126 l 472 1126 m 649 1219 q 633 1222 642 1219 q 617 1228 625 1224 l 478 1301 q 426 1375 426 1329 q 451 1425 426 1407 q 500 1443 476 1443 q 537 1434 519 1443 q 568 1413 554 1425 l 688 1307 q 703 1288 699 1297 q 707 1269 707 1279 q 691 1233 707 1247 q 649 1219 675 1219 z "},"Ẩ":{"ha":888,"x_min":14,"x_max":874,"o":"m 461 754 l 161 49 q 131 8 151 22 q 88 -7 111 -7 q 32 14 50 -7 q 14 65 14 35 q 18 92 14 78 l 364 922 q 398 965 375 950 q 447 978 421 981 q 494 963 472 978 q 525 922 515 949 l 867 108 q 874 75 874 90 q 849 15 874 38 q 796 -7 825 -7 q 751 8 771 -7 q 719 50 731 24 l 421 746 l 461 754 m 204 218 l 281 378 l 656 378 l 682 218 l 204 218 m 472 1126 l 356 1058 q 315 1036 332 1044 q 285 1028 299 1028 q 254 1039 267 1028 q 242 1063 242 1050 q 246 1082 242 1074 q 263 1104 250 1090 l 350 1204 q 388 1234 368 1224 q 435 1244 407 1244 l 457 1244 q 504 1234 485 1244 q 542 1204 524 1224 l 629 1104 q 646 1082 642 1090 q 650 1063 650 1074 q 638 1039 650 1050 q 607 1028 626 1028 q 576 1036 593 1028 q 536 1058 560 1044 l 419 1126 l 472 1126 m 558 1375 q 606 1404 581 1393 q 668 1415 631 1415 q 758 1396 726 1415 q 800 1348 789 1376 q 811 1294 811 1319 q 805 1255 811 1272 q 785 1219 799 1238 q 761 1190 771 1203 q 751 1167 751 1178 q 735 1142 751 1150 q 696 1135 719 1135 q 670 1142 683 1135 q 657 1167 657 1149 q 663 1194 657 1181 q 679 1221 669 1207 q 701 1253 690 1236 q 711 1281 711 1269 q 697 1308 711 1299 q 664 1318 683 1318 q 632 1310 646 1318 q 606 1294 618 1303 q 581 1287 596 1288 q 549 1304 567 1286 q 538 1344 531 1324 q 558 1375 544 1364 z "},"Ẫ":{"ha":888,"x_min":14,"x_max":874,"o":"m 461 754 l 161 49 q 131 8 151 22 q 88 -7 111 -7 q 32 14 50 -7 q 14 65 14 35 q 18 92 14 78 l 364 922 q 398 965 375 950 q 447 978 421 981 q 494 963 472 978 q 525 922 515 949 l 867 108 q 874 75 874 90 q 849 15 874 38 q 796 -7 825 -7 q 751 8 771 -7 q 719 50 731 24 l 421 746 l 461 754 m 204 218 l 281 378 l 656 378 l 682 218 l 204 218 m 472 1126 l 356 1058 q 315 1036 332 1044 q 285 1028 299 1028 q 254 1039 267 1028 q 242 1063 242 1050 q 246 1082 242 1074 q 263 1104 250 1090 l 350 1204 q 388 1234 368 1224 q 435 1244 407 1244 l 457 1244 q 504 1234 485 1244 q 542 1204 524 1224 l 629 1104 q 646 1082 642 1090 q 650 1063 650 1074 q 638 1039 650 1050 q 607 1028 626 1028 q 576 1036 593 1028 q 536 1058 560 1044 l 419 1126 l 472 1126 m 260 1250 q 206 1277 229 1250 q 183 1349 183 1304 q 223 1432 183 1393 q 338 1471 263 1471 q 425 1449 385 1471 q 499 1406 465 1428 q 558 1385 533 1385 q 582 1392 574 1385 q 586 1414 590 1400 q 593 1464 576 1446 q 635 1482 610 1482 q 689 1456 667 1482 q 711 1386 711 1429 q 697 1333 711 1363 q 654 1283 683 1304 q 579 1261 625 1261 q 482 1283 528 1261 q 399 1326 436 1304 q 336 1347 361 1347 q 313 1340 322 1347 q 308 1318 304 1332 q 301 1269 318 1288 q 260 1250 285 1250 z "},"Ȁ":{"ha":888,"x_min":14,"x_max":874,"o":"m 461 754 l 161 49 q 131 8 151 22 q 88 -7 111 -7 q 32 14 50 -7 q 14 65 14 35 q 18 92 14 78 l 364 922 q 398 965 375 950 q 447 978 421 981 q 494 963 472 978 q 525 922 515 949 l 867 108 q 874 75 874 90 q 849 15 874 38 q 796 -7 825 -7 q 751 8 771 -7 q 719 50 731 24 l 421 746 l 461 754 m 204 218 l 281 378 l 656 378 l 682 218 l 204 218 m 308 1044 q 293 1047 301 1044 q 276 1053 285 1049 l 138 1126 q 86 1200 86 1154 q 111 1250 86 1232 q 160 1268 136 1268 q 197 1259 179 1268 q 228 1238 214 1250 l 347 1132 q 363 1113 358 1122 q 367 1094 367 1104 q 351 1058 367 1072 q 308 1044 335 1044 m 594 1058 q 579 1060 588 1058 q 563 1067 571 1063 l 424 1140 q 372 1214 372 1168 q 397 1264 372 1246 q 446 1282 422 1282 q 483 1273 465 1282 q 514 1251 500 1264 l 633 1146 q 649 1127 644 1136 q 653 1108 653 1118 q 637 1072 653 1086 q 594 1058 621 1058 z "},"Ä":{"ha":888,"x_min":14,"x_max":874,"o":"m 461 754 l 161 49 q 131 8 151 22 q 88 -7 111 -7 q 32 14 50 -7 q 14 65 14 35 q 18 92 14 78 l 364 922 q 398 965 375 950 q 447 978 421 981 q 494 963 472 978 q 525 922 515 949 l 867 108 q 874 75 874 90 q 849 15 874 38 q 796 -7 825 -7 q 751 8 771 -7 q 719 50 731 24 l 421 746 l 461 754 m 204 218 l 281 378 l 656 378 l 682 218 l 204 218 m 583 1056 q 520 1071 540 1056 q 500 1125 500 1086 l 500 1150 q 521 1205 500 1190 q 583 1219 542 1219 q 651 1204 631 1219 q 671 1150 671 1189 l 671 1125 q 650 1070 671 1085 q 583 1056 629 1056 m 307 1056 q 244 1071 264 1056 q 224 1125 224 1086 l 224 1150 q 245 1205 224 1190 q 308 1219 267 1219 q 374 1204 354 1219 q 394 1150 394 1189 l 394 1125 q 374 1070 394 1085 q 307 1056 353 1056 z "},"Ạ":{"ha":888,"x_min":14,"x_max":874,"o":"m 461 754 l 161 49 q 131 8 151 22 q 88 -7 111 -7 q 32 14 50 -7 q 14 65 14 35 q 18 92 14 78 l 364 922 q 398 965 375 950 q 447 978 421 981 q 494 963 472 978 q 525 922 515 949 l 867 108 q 874 75 874 90 q 849 15 874 38 q 796 -7 825 -7 q 751 8 771 -7 q 719 50 731 24 l 421 746 l 461 754 m 204 218 l 281 378 l 656 378 l 682 218 l 204 218 m 444 -204 q 379 -189 399 -204 q 360 -135 360 -174 l 360 -108 q 381 -53 360 -68 q 444 -39 403 -39 q 515 -53 496 -39 q 535 -108 535 -68 l 535 -135 q 514 -190 535 -175 q 444 -204 493 -204 z "},"À":{"ha":888,"x_min":14,"x_max":874,"o":"m 461 754 l 161 49 q 131 8 151 22 q 88 -7 111 -7 q 32 14 50 -7 q 14 65 14 35 q 18 92 14 78 l 364 922 q 398 965 375 950 q 447 978 421 981 q 494 963 472 978 q 525 922 515 949 l 867 108 q 874 75 874 90 q 849 15 874 38 q 796 -7 825 -7 q 751 8 771 -7 q 719 50 731 24 l 421 746 l 461 754 m 204 218 l 281 378 l 656 378 l 682 218 l 204 218 m 444 1031 q 429 1033 438 1031 q 413 1039 421 1035 l 274 1113 q 222 1186 222 1140 q 247 1236 222 1218 q 296 1254 272 1254 q 333 1245 315 1254 q 364 1224 350 1236 l 483 1118 q 499 1099 494 1108 q 503 1081 503 1090 q 487 1044 503 1058 q 444 1031 471 1031 z "},"Ả":{"ha":888,"x_min":14,"x_max":874,"o":"m 461 754 l 161 49 q 131 8 151 22 q 88 -7 111 -7 q 32 14 50 -7 q 14 65 14 35 q 18 92 14 78 l 364 922 q 398 965 375 950 q 447 978 421 981 q 494 963 472 978 q 525 922 515 949 l 867 108 q 874 75 874 90 q 849 15 874 38 q 796 -7 825 -7 q 751 8 771 -7 q 719 50 731 24 l 421 746 l 461 754 m 204 218 l 281 378 l 656 378 l 682 218 l 204 218 m 313 1289 q 360 1318 335 1307 q 422 1329 385 1329 q 512 1310 481 1329 q 554 1262 543 1290 q 565 1208 565 1233 q 559 1169 565 1186 q 539 1133 553 1151 q 515 1104 525 1117 q 506 1081 506 1092 q 490 1056 506 1064 q 450 1049 474 1049 q 424 1056 438 1049 q 411 1081 411 1063 q 417 1108 411 1094 q 433 1135 424 1121 q 455 1167 444 1150 q 465 1194 465 1183 q 451 1222 465 1213 q 418 1232 438 1232 q 386 1224 400 1232 q 360 1208 372 1217 q 335 1201 350 1201 q 303 1218 321 1200 q 292 1258 285 1238 q 313 1289 299 1278 z "},"Ȃ":{"ha":888,"x_min":14,"x_max":874,"o":"m 461 754 l 161 49 q 131 8 151 22 q 88 -7 111 -7 q 32 14 50 -7 q 14 65 14 35 q 18 92 14 78 l 364 922 q 398 965 375 950 q 447 978 421 981 q 494 963 472 978 q 525 922 515 949 l 867 108 q 874 75 874 90 q 849 15 874 38 q 796 -7 825 -7 q 751 8 771 -7 q 719 50 731 24 l 421 746 l 461 754 m 204 218 l 281 378 l 656 378 l 682 218 l 204 218 m 447 1289 q 543 1274 500 1289 q 618 1231 586 1260 q 667 1160 650 1201 q 668 1104 682 1125 q 626 1083 654 1083 q 580 1097 597 1083 q 543 1133 563 1110 q 505 1161 528 1151 q 447 1171 482 1171 q 390 1161 413 1171 q 351 1133 367 1151 q 315 1097 333 1110 q 268 1083 297 1083 q 227 1103 242 1083 q 226 1157 213 1124 q 276 1229 244 1200 q 351 1274 307 1258 q 447 1289 394 1289 z "},"Ā":{"ha":888,"x_min":14,"x_max":874,"o":"m 461 754 l 161 49 q 131 8 151 22 q 88 -7 111 -7 q 32 14 50 -7 q 14 65 14 35 q 18 92 14 78 l 364 922 q 398 965 375 950 q 447 978 421 981 q 494 963 472 978 q 525 922 515 949 l 867 108 q 874 75 874 90 q 849 15 874 38 q 796 -7 825 -7 q 751 8 771 -7 q 719 50 731 24 l 421 746 l 461 754 m 204 218 l 281 378 l 656 378 l 682 218 l 204 218 m 279 1042 q 210 1104 210 1042 q 279 1165 210 1165 l 615 1165 q 685 1104 685 1165 q 615 1042 685 1042 l 279 1042 z "},"Ą":{"ha":893,"x_min":15,"x_max":892,"o":"m 731 -287 q 613 -251 663 -287 q 564 -139 564 -215 q 589 -44 564 -82 q 653 19 614 -6 q 736 60 692 44 q 818 88 781 76 l 811 29 l 736 13 l 421 746 l 461 754 l 161 49 q 131 8 151 22 q 88 -7 111 -7 q 31 10 46 -7 q 15 63 15 28 q 21 96 15 81 l 364 922 q 398 965 375 950 q 447 978 421 981 q 494 963 472 978 q 525 922 515 949 l 882 72 q 888 49 888 61 q 879 19 888 35 q 849 -3 871 4 q 745 -48 786 -21 q 704 -110 704 -75 q 717 -147 704 -136 q 744 -158 731 -158 q 774 -142 761 -158 q 803 -121 786 -125 q 831 -117 821 -117 q 874 -134 856 -117 q 892 -183 892 -151 q 869 -230 892 -206 q 809 -271 846 -254 q 731 -287 772 -287 m 231 218 l 281 378 l 656 378 l 682 218 l 231 218 z "},"Å":{"ha":893,"x_min":14,"x_max":874,"o":"m 447 882 q 369 903 406 882 q 311 958 333 924 q 289 1033 289 993 q 311 1111 289 1076 q 369 1167 333 1146 q 447 1188 406 1188 q 525 1167 489 1188 q 583 1111 561 1146 q 606 1033 606 1076 q 583 958 606 993 q 525 903 561 924 q 447 882 489 882 m 447 979 q 491 994 474 979 q 508 1033 508 1010 q 490 1076 508 1063 q 447 1090 471 1090 q 403 1076 421 1090 q 386 1033 386 1061 q 403 994 386 1010 q 447 979 421 979 m 461 754 l 161 49 q 131 8 151 22 q 88 -7 111 -7 q 32 14 50 -7 q 14 65 14 35 q 18 92 14 78 l 364 922 q 398 965 375 950 q 447 978 421 981 q 494 963 472 978 q 525 922 515 949 l 867 108 q 874 75 874 90 q 849 15 874 38 q 796 -7 825 -7 q 751 8 771 -7 q 719 50 731 24 l 421 746 l 461 754 m 204 218 l 281 378 l 656 378 l 682 218 l 204 218 z "},"Ǻ":{"ha":893,"x_min":14,"x_max":874,"o":"m 447 882 q 369 903 406 882 q 311 958 333 924 q 289 1033 289 993 q 311 1111 289 1076 q 369 1167 333 1146 q 447 1188 406 1188 q 525 1167 489 1188 q 583 1111 561 1146 q 606 1033 606 1076 q 583 958 606 993 q 525 903 561 924 q 447 882 489 882 m 447 979 q 491 994 474 979 q 508 1033 508 1010 q 490 1076 508 1063 q 447 1090 471 1090 q 403 1076 421 1090 q 386 1033 386 1061 q 403 994 386 1010 q 447 979 421 979 m 461 754 l 161 49 q 131 8 151 22 q 88 -7 111 -7 q 32 14 50 -7 q 14 65 14 35 q 18 92 14 78 l 364 922 q 398 965 375 950 q 447 978 421 981 q 494 963 472 978 q 525 922 515 949 l 867 108 q 874 75 874 90 q 849 15 874 38 q 796 -7 825 -7 q 751 8 771 -7 q 719 50 731 24 l 421 746 l 461 754 m 204 218 l 281 378 l 656 378 l 682 218 l 204 218 m 449 1233 q 406 1247 422 1233 q 390 1283 390 1261 q 395 1302 390 1293 q 410 1321 400 1311 l 529 1426 q 562 1448 544 1439 q 597 1457 579 1457 q 646 1439 621 1457 q 671 1389 671 1421 q 658 1348 671 1368 q 619 1315 644 1328 l 481 1242 q 464 1235 472 1236 q 449 1233 456 1233 z "},"Ã":{"ha":888,"x_min":14,"x_max":874,"o":"m 461 754 l 161 49 q 131 8 151 22 q 88 -7 111 -7 q 32 14 50 -7 q 14 65 14 35 q 18 92 14 78 l 364 922 q 398 965 375 950 q 447 978 421 981 q 494 963 472 978 q 525 922 515 949 l 867 108 q 874 75 874 90 q 849 15 874 38 q 796 -7 825 -7 q 751 8 771 -7 q 719 50 731 24 l 421 746 l 461 754 m 204 218 l 281 378 l 656 378 l 682 218 l 204 218 m 260 1022 q 206 1049 229 1022 q 183 1121 183 1076 q 223 1204 183 1165 q 338 1243 263 1243 q 425 1222 385 1243 q 499 1178 465 1200 q 558 1157 533 1157 q 582 1165 574 1157 q 586 1186 590 1172 q 593 1236 576 1218 q 635 1254 610 1254 q 689 1228 667 1254 q 711 1158 711 1201 q 697 1106 711 1135 q 654 1055 683 1076 q 579 1033 625 1033 q 482 1055 528 1033 q 399 1098 436 1076 q 336 1119 361 1119 q 313 1112 322 1119 q 308 1090 304 1104 q 301 1041 318 1060 q 260 1022 285 1022 z "},"Æ":{"ha":1228,"x_min":4,"x_max":1172,"o":"m 274 356 l 590 356 l 565 303 l 565 704 l 594 696 l 143 26 q 83 -7 118 -7 q 33 13 57 -7 q 6 67 8 32 q 24 124 4 94 l 590 936 q 626 965 606 957 q 668 972 646 972 l 1088 972 q 1148 949 1124 972 q 1172 890 1172 926 q 1148 834 1172 856 q 1088 813 1124 813 l 725 813 l 739 825 l 739 543 l 726 569 l 1025 569 q 1085 547 1061 569 q 1110 488 1110 524 q 1085 431 1110 453 q 1025 410 1061 410 l 725 410 l 739 431 l 739 124 l 725 160 l 1088 160 q 1148 135 1124 160 q 1172 79 1172 111 q 1148 22 1172 44 q 1088 0 1124 0 l 650 0 q 590 24 614 0 q 565 85 565 49 l 565 217 l 600 199 l 192 199 l 274 356 z "},"Ǽ":{"ha":1228,"x_min":4,"x_max":1172,"o":"m 274 356 l 590 356 l 565 303 l 565 704 l 594 696 l 143 26 q 83 -7 118 -7 q 33 13 57 -7 q 6 67 8 32 q 24 124 4 94 l 590 936 q 626 965 606 957 q 668 972 646 972 l 1088 972 q 1148 949 1124 972 q 1172 890 1172 926 q 1148 834 1172 856 q 1088 813 1124 813 l 725 813 l 739 825 l 739 543 l 726 569 l 1025 569 q 1085 547 1061 569 q 1110 488 1110 524 q 1085 431 1110 453 q 1025 410 1061 410 l 725 410 l 739 431 l 739 124 l 725 160 l 1088 160 q 1148 135 1124 160 q 1172 79 1172 111 q 1148 22 1172 44 q 1088 0 1124 0 l 650 0 q 590 24 614 0 q 565 85 565 49 l 565 217 l 600 199 l 192 199 l 274 356 m 829 1025 q 787 1039 803 1025 q 771 1075 771 1053 q 776 1094 771 1085 q 790 1113 781 1103 l 910 1218 q 942 1240 925 1231 q 978 1249 960 1249 q 1026 1231 1001 1249 q 1051 1181 1051 1213 q 1038 1140 1051 1160 q 1000 1107 1025 1119 l 861 1033 q 844 1026 853 1028 q 829 1025 836 1025 z "},"B":{"ha":910,"x_min":104,"x_max":854,"o":"m 539 972 q 738 910 672 972 q 803 725 803 847 q 771 610 803 660 q 676 534 739 561 q 522 507 614 507 l 528 569 q 626 558 571 569 q 734 516 682 546 q 820 433 786 486 q 854 296 854 379 q 824 146 854 204 q 746 56 794 88 q 642 12 697 24 q 535 0 586 0 l 189 0 q 128 24 153 0 q 104 85 104 49 l 104 888 q 128 948 104 924 q 189 972 153 972 l 539 972 m 514 808 l 267 808 l 285 831 l 285 579 l 268 592 l 518 592 q 590 618 558 592 q 622 694 622 644 q 592 781 622 754 q 514 808 563 808 m 525 428 l 272 428 l 285 439 l 285 146 l 271 160 l 535 160 q 636 194 599 160 q 674 296 674 228 q 649 386 674 358 q 589 421 624 414 q 525 428 554 428 z "},"C":{"ha":871,"x_min":56,"x_max":836,"o":"m 785 925 q 827 868 821 907 q 807 797 833 829 q 760 769 789 772 q 703 781 732 767 q 633 804 669 796 q 556 813 596 813 q 422 789 481 813 q 321 722 363 765 q 258 618 279 678 q 236 486 236 558 q 260 339 236 401 q 328 235 285 276 q 429 173 371 193 q 556 153 488 153 q 631 160 593 153 q 703 185 668 167 q 760 194 732 199 q 808 165 789 190 q 828 94 836 131 q 786 40 821 57 q 712 10 750 22 q 635 -8 674 -1 q 556 -14 596 -14 q 366 18 456 -14 q 206 113 276 50 q 96 269 136 175 q 56 486 56 363 q 92 683 56 593 q 197 840 129 774 q 356 942 264 906 q 556 979 447 979 q 675 965 617 979 q 785 925 733 951 z "},"Ć":{"ha":871,"x_min":56,"x_max":836,"o":"m 785 925 q 827 868 821 907 q 807 797 833 829 q 760 769 789 772 q 703 781 732 767 q 633 804 669 796 q 556 813 596 813 q 422 789 481 813 q 321 722 363 765 q 258 618 279 678 q 236 486 236 558 q 260 339 236 401 q 328 235 285 276 q 429 173 371 193 q 556 153 488 153 q 631 160 593 153 q 703 185 668 167 q 760 194 732 199 q 808 165 789 190 q 828 94 836 131 q 786 40 821 57 q 712 10 750 22 q 635 -8 674 -1 q 556 -14 596 -14 q 366 18 456 -14 q 206 113 276 50 q 96 269 136 175 q 56 486 56 363 q 92 683 56 593 q 197 840 129 774 q 356 942 264 906 q 556 979 447 979 q 675 965 617 979 q 785 925 733 951 m 507 1025 q 465 1039 481 1025 q 449 1075 449 1053 q 453 1094 449 1085 q 468 1113 458 1103 l 588 1218 q 620 1240 603 1231 q 656 1249 638 1249 q 704 1231 679 1249 q 729 1181 729 1213 q 716 1140 729 1160 q 678 1107 703 1119 l 539 1033 q 522 1026 531 1028 q 507 1025 514 1025 z "},"Č":{"ha":871,"x_min":56,"x_max":836,"o":"m 785 925 q 827 868 821 907 q 807 797 833 829 q 760 769 789 772 q 703 781 732 767 q 633 804 669 796 q 556 813 596 813 q 422 789 481 813 q 321 722 363 765 q 258 618 279 678 q 236 486 236 558 q 260 339 236 401 q 328 235 285 276 q 429 173 371 193 q 556 153 488 153 q 631 160 593 153 q 703 185 668 167 q 760 194 732 199 q 808 165 789 190 q 828 94 836 131 q 786 40 821 57 q 712 10 750 22 q 635 -8 674 -1 q 556 -14 596 -14 q 366 18 456 -14 q 206 113 276 50 q 96 269 136 175 q 56 486 56 363 q 92 683 56 593 q 197 840 129 774 q 356 942 264 906 q 556 979 447 979 q 675 965 617 979 q 785 925 733 951 m 481 1142 l 597 1217 q 638 1238 621 1232 q 668 1244 654 1244 q 699 1233 688 1244 q 711 1210 711 1222 q 707 1192 711 1200 q 690 1168 703 1183 l 603 1068 q 565 1038 585 1049 q 518 1028 546 1028 l 496 1028 q 449 1038 468 1028 q 411 1068 429 1049 l 324 1168 q 307 1192 311 1183 q 303 1210 303 1200 q 315 1233 303 1222 q 346 1244 328 1244 q 417 1217 374 1244 l 533 1142 l 481 1142 z "},"Ç":{"ha":871,"x_min":56,"x_max":836,"o":"m 785 925 q 827 868 821 907 q 807 797 833 829 q 760 769 789 772 q 703 781 732 767 q 633 804 669 796 q 556 813 596 813 q 422 789 481 813 q 321 722 363 765 q 258 618 279 678 q 236 486 236 558 q 260 339 236 401 q 328 235 285 276 q 429 173 371 193 q 556 153 488 153 q 631 160 593 153 q 703 185 668 167 q 760 194 732 199 q 808 165 789 190 q 828 94 836 131 q 786 40 821 57 q 712 10 750 22 q 635 -8 674 -1 q 556 -14 596 -14 q 366 18 456 -14 q 206 113 276 50 q 96 269 136 175 q 56 486 56 363 q 92 683 56 593 q 197 840 129 774 q 356 942 264 906 q 556 979 447 979 q 675 965 617 979 q 785 925 733 951 z "},"Ḉ":{"ha":871,"x_min":56,"x_max":836,"o":"m 785 925 q 827 868 821 907 q 807 797 833 829 q 760 769 789 772 q 703 781 732 767 q 633 804 669 796 q 556 813 596 813 q 422 789 481 813 q 321 722 363 765 q 258 618 279 678 q 236 486 236 558 q 260 339 236 401 q 328 235 285 276 q 429 173 371 193 q 556 153 488 153 q 631 160 593 153 q 703 185 668 167 q 760 194 732 199 q 808 165 789 190 q 828 94 836 131 q 786 40 821 57 q 712 10 750 22 q 635 -8 674 -1 q 556 -14 596 -14 q 366 18 456 -14 q 206 113 276 50 q 96 269 136 175 q 56 486 56 363 q 92 683 56 593 q 197 840 129 774 q 356 942 264 906 q 556 979 447 979 q 675 965 617 979 q 785 925 733 951 m 507 1025 q 465 1039 481 1025 q 449 1075 449 1053 q 453 1094 449 1085 q 468 1113 458 1103 l 588 1218 q 620 1240 603 1231 q 656 1249 638 1249 q 704 1231 679 1249 q 729 1181 729 1213 q 716 1140 729 1160 q 678 1107 703 1119 l 539 1033 q 522 1026 531 1028 q 507 1025 514 1025 z "},"Ĉ":{"ha":871,"x_min":56,"x_max":836,"o":"m 785 925 q 827 868 821 907 q 807 797 833 829 q 760 769 789 772 q 703 781 732 767 q 633 804 669 796 q 556 813 596 813 q 422 789 481 813 q 321 722 363 765 q 258 618 279 678 q 236 486 236 558 q 260 339 236 401 q 328 235 285 276 q 429 173 371 193 q 556 153 488 153 q 631 160 593 153 q 703 185 668 167 q 760 194 732 199 q 808 165 789 190 q 828 94 836 131 q 786 40 821 57 q 712 10 750 22 q 635 -8 674 -1 q 556 -14 596 -14 q 366 18 456 -14 q 206 113 276 50 q 96 269 136 175 q 56 486 56 363 q 92 683 56 593 q 197 840 129 774 q 356 942 264 906 q 556 979 447 979 q 675 965 617 979 q 785 925 733 951 m 531 1126 l 414 1058 q 374 1036 390 1044 q 343 1028 357 1028 q 313 1039 325 1028 q 300 1063 300 1050 q 304 1082 300 1074 q 321 1104 308 1090 l 408 1204 q 446 1234 426 1224 q 493 1244 465 1244 l 515 1244 q 563 1234 543 1244 q 600 1204 582 1224 l 688 1104 q 704 1082 700 1090 q 708 1063 708 1074 q 697 1039 708 1050 q 665 1028 685 1028 q 635 1036 651 1028 q 594 1058 618 1044 l 478 1126 l 531 1126 z "},"Ċ":{"ha":871,"x_min":56,"x_max":836,"o":"m 785 925 q 827 868 821 907 q 807 797 833 829 q 760 769 789 772 q 703 781 732 767 q 633 804 669 796 q 556 813 596 813 q 422 789 481 813 q 321 722 363 765 q 258 618 279 678 q 236 486 236 558 q 260 339 236 401 q 328 235 285 276 q 429 173 371 193 q 556 153 488 153 q 631 160 593 153 q 703 185 668 167 q 760 194 732 199 q 808 165 789 190 q 828 94 836 131 q 786 40 821 57 q 712 10 750 22 q 635 -8 674 -1 q 556 -14 596 -14 q 366 18 456 -14 q 206 113 276 50 q 96 269 136 175 q 56 486 56 363 q 92 683 56 593 q 197 840 129 774 q 356 942 264 906 q 556 979 447 979 q 675 965 617 979 q 785 925 733 951 m 503 1028 q 438 1043 457 1028 q 418 1097 418 1058 l 418 1124 q 440 1178 418 1164 q 504 1193 461 1193 q 574 1178 554 1193 q 593 1124 593 1164 l 593 1097 q 572 1042 593 1057 q 503 1028 551 1028 z "},"D":{"ha":993,"x_min":104,"x_max":938,"o":"m 521 972 q 699 935 621 972 q 830 830 776 897 q 910 674 883 763 q 938 486 938 586 q 889 241 938 351 q 748 65 840 131 q 521 0 656 0 l 189 0 q 128 24 153 0 q 104 85 104 49 l 104 888 q 128 948 104 924 q 189 972 153 972 l 521 972 m 507 160 q 650 205 594 160 q 731 324 706 250 q 757 486 757 399 q 742 610 757 551 q 697 715 728 669 q 619 786 667 760 q 507 813 572 813 l 264 813 l 278 825 l 278 144 l 269 160 l 507 160 z "},"Ǆ":{"ha":1893,"x_min":104,"x_max":1844,"o":"m 521 972 q 699 935 621 972 q 830 830 776 897 q 910 674 883 763 q 938 486 938 586 q 889 241 938 351 q 748 65 840 131 q 521 0 656 0 l 189 0 q 128 24 153 0 q 104 85 104 49 l 104 888 q 128 948 104 924 q 189 972 153 972 l 521 972 m 507 160 q 650 205 594 160 q 731 324 706 250 q 757 486 757 399 q 742 610 757 551 q 697 715 728 669 q 619 786 667 760 q 507 813 572 813 l 264 813 l 278 825 l 278 144 l 269 160 l 507 160 z "},"Ð":{"ha":993,"x_min":-6,"x_max":938,"o":"m 521 972 q 699 935 621 972 q 830 830 776 897 q 910 674 883 763 q 938 486 938 586 q 889 241 938 351 q 748 65 840 131 q 521 0 656 0 l 189 0 q 128 24 153 0 q 104 85 104 49 l 104 888 q 128 948 104 924 q 189 972 153 972 l 521 972 m 507 160 q 650 205 594 160 q 731 324 706 250 q 757 486 757 399 q 742 610 757 551 q 697 715 728 669 q 619 786 667 760 q 507 813 572 813 l 264 813 l 278 825 l 278 144 l 269 160 l 507 160 m 79 413 q 19 434 43 413 q -6 490 -6 456 q 19 544 -6 522 q 79 565 43 565 l 321 565 q 381 544 357 565 q 406 490 406 522 q 381 434 406 456 q 321 413 357 413 l 79 413 z "},"Ď":{"ha":993,"x_min":104,"x_max":938,"o":"m 521 972 q 699 935 621 972 q 830 830 776 897 q 910 674 883 763 q 938 486 938 586 q 889 241 938 351 q 748 65 840 131 q 521 0 656 0 l 189 0 q 128 24 153 0 q 104 85 104 49 l 104 888 q 128 948 104 924 q 189 972 153 972 l 521 972 m 507 160 q 650 205 594 160 q 731 324 706 250 q 757 486 757 399 q 742 610 757 551 q 697 715 728 669 q 619 786 667 760 q 507 813 572 813 l 264 813 l 278 825 l 278 144 l 269 160 l 507 160 m 403 1142 l 519 1217 q 560 1238 543 1232 q 590 1244 576 1244 q 622 1233 610 1244 q 633 1210 633 1222 q 629 1192 633 1200 q 613 1168 625 1183 l 525 1068 q 488 1038 507 1049 q 440 1028 468 1028 l 418 1028 q 371 1038 390 1028 q 333 1068 351 1049 l 246 1168 q 229 1192 233 1183 q 225 1210 225 1200 q 238 1233 225 1222 q 268 1244 250 1244 q 339 1217 296 1244 l 456 1142 l 403 1142 z "},"Đ":{"ha":993,"x_min":-6,"x_max":938,"o":"m 521 972 q 699 935 621 972 q 830 830 776 897 q 910 674 883 763 q 938 486 938 586 q 889 241 938 351 q 748 65 840 131 q 521 0 656 0 l 189 0 q 128 24 153 0 q 104 85 104 49 l 104 888 q 128 948 104 924 q 189 972 153 972 l 521 972 m 507 160 q 650 205 594 160 q 731 324 706 250 q 757 486 757 399 q 742 610 757 551 q 697 715 728 669 q 619 786 667 760 q 507 813 572 813 l 264 813 l 278 825 l 278 144 l 269 160 l 507 160 m 79 413 q 19 434 43 413 q -6 490 -6 456 q 19 544 -6 522 q 79 565 43 565 l 321 565 q 381 544 357 565 q 406 490 406 522 q 381 434 406 456 q 321 413 357 413 l 79 413 z "},"Ḍ":{"ha":993,"x_min":104,"x_max":938,"o":"m 521 972 q 699 935 621 972 q 830 830 776 897 q 910 674 883 763 q 938 486 938 586 q 889 241 938 351 q 748 65 840 131 q 521 0 656 0 l 189 0 q 128 24 153 0 q 104 85 104 49 l 104 888 q 128 948 104 924 q 189 972 153 972 l 521 972 m 507 160 q 650 205 594 160 q 731 324 706 250 q 757 486 757 399 q 742 610 757 551 q 697 715 728 669 q 619 786 667 760 q 507 813 572 813 l 264 813 l 278 825 l 278 144 l 269 160 l 507 160 m 439 -204 q 374 -189 393 -204 q 354 -135 354 -174 l 354 -108 q 376 -53 354 -68 q 439 -39 397 -39 q 510 -53 490 -39 q 529 -108 529 -68 l 529 -135 q 508 -190 529 -175 q 439 -204 488 -204 z "},"Ḏ":{"ha":993,"x_min":104,"x_max":938,"o":"m 521 972 q 699 935 621 972 q 830 830 776 897 q 910 674 883 763 q 938 486 938 586 q 889 241 938 351 q 748 65 840 131 q 521 0 656 0 l 189 0 q 128 24 153 0 q 104 85 104 49 l 104 888 q 128 948 104 924 q 189 972 153 972 l 521 972 m 507 160 q 650 205 594 160 q 731 324 706 250 q 757 486 757 399 q 742 610 757 551 q 697 715 728 669 q 619 786 667 760 q 507 813 572 813 l 264 813 l 278 825 l 278 144 l 269 160 l 507 160 m 288 -211 q 218 -149 218 -211 q 288 -87 218 -87 l 624 -87 q 693 -149 693 -87 q 624 -211 693 -211 l 288 -211 z "},"ǲ":{"ha":1664,"x_min":104,"x_max":1633,"o":"m 521 972 q 699 935 621 972 q 830 830 776 897 q 910 674 883 763 q 938 486 938 586 q 889 241 938 351 q 748 65 840 131 q 521 0 656 0 l 189 0 q 128 24 153 0 q 104 85 104 49 l 104 888 q 128 948 104 924 q 189 972 153 972 l 521 972 m 507 160 q 650 205 594 160 q 731 324 706 250 q 757 486 757 399 q 742 610 757 551 q 697 715 728 669 q 619 786 667 760 q 507 813 572 813 l 264 813 l 278 825 l 278 144 l 269 160 l 507 160 m 1556 153 q 1611 131 1589 153 q 1633 76 1633 110 q 1611 22 1633 44 q 1556 0 1589 0 l 1108 0 q 1053 25 1074 0 q 1033 75 1032 50 q 1039 112 1035 96 q 1060 149 1043 128 l 1406 596 l 1403 576 l 1121 576 q 1065 599 1088 576 q 1043 654 1043 621 q 1065 708 1043 686 q 1121 729 1088 729 l 1549 729 q 1603 706 1581 729 q 1622 646 1625 682 q 1617 618 1621 632 q 1599 585 1614 604 l 1258 144 l 1258 153 l 1556 153 z "},"ǅ":{"ha":1665,"x_min":104,"x_max":1635,"o":"m 521 972 q 699 935 621 972 q 830 830 776 897 q 910 674 883 763 q 938 486 938 586 q 889 241 938 351 q 748 65 840 131 q 521 0 656 0 l 189 0 q 128 24 153 0 q 104 85 104 49 l 104 888 q 128 948 104 924 q 189 972 153 972 l 521 972 m 507 160 q 650 205 594 160 q 731 324 706 250 q 757 486 757 399 q 742 610 757 551 q 697 715 728 669 q 619 786 667 760 q 507 813 572 813 l 264 813 l 278 825 l 278 144 l 269 160 l 507 160 z "},"E":{"ha":794,"x_min":104,"x_max":739,"o":"m 189 972 l 654 972 q 715 949 690 972 q 739 890 739 926 q 715 834 739 856 q 654 813 690 813 l 265 813 l 278 836 l 278 565 l 267 576 l 592 576 q 652 553 628 576 q 676 494 676 531 q 652 438 676 460 q 592 417 628 417 l 271 417 l 278 428 l 278 147 l 267 160 l 654 160 q 715 135 690 160 q 739 79 739 111 q 715 22 739 44 q 654 0 690 0 l 189 0 q 128 24 153 0 q 104 85 104 49 l 104 888 q 128 948 104 924 q 189 972 153 972 z "},"É":{"ha":794,"x_min":104,"x_max":739,"o":"m 189 972 l 654 972 q 715 949 690 972 q 739 890 739 926 q 715 834 739 856 q 654 813 690 813 l 265 813 l 278 836 l 278 565 l 267 576 l 592 576 q 652 553 628 576 q 676 494 676 531 q 652 438 676 460 q 592 417 628 417 l 271 417 l 278 428 l 278 147 l 267 160 l 654 160 q 715 135 690 160 q 739 79 739 111 q 715 22 739 44 q 654 0 690 0 l 189 0 q 128 24 153 0 q 104 85 104 49 l 104 888 q 128 948 104 924 q 189 972 153 972 m 426 1025 q 384 1039 400 1025 q 368 1075 368 1053 q 373 1094 368 1085 q 388 1113 378 1103 l 507 1218 q 540 1240 522 1231 q 575 1249 557 1249 q 624 1231 599 1249 q 649 1181 649 1213 q 635 1140 649 1160 q 597 1107 622 1119 l 458 1033 q 442 1026 450 1028 q 426 1025 433 1025 z "},"Ĕ":{"ha":794,"x_min":104,"x_max":739,"o":"m 189 972 l 654 972 q 715 949 690 972 q 739 890 739 926 q 715 834 739 856 q 654 813 690 813 l 265 813 l 278 836 l 278 565 l 267 576 l 592 576 q 652 553 628 576 q 676 494 676 531 q 652 438 676 460 q 592 417 628 417 l 271 417 l 278 428 l 278 147 l 267 160 l 654 160 q 715 135 690 160 q 739 79 739 111 q 715 22 739 44 q 654 0 690 0 l 189 0 q 128 24 153 0 q 104 85 104 49 l 104 888 q 128 948 104 924 q 189 972 153 972 m 425 1053 q 290 1087 347 1053 q 206 1182 232 1121 q 206 1238 192 1217 q 246 1258 219 1258 q 292 1245 275 1258 q 329 1208 310 1232 q 367 1181 344 1190 q 425 1171 390 1171 q 521 1208 492 1171 q 558 1245 540 1232 q 604 1258 575 1258 q 646 1238 632 1258 q 646 1185 660 1218 q 562 1087 619 1121 q 425 1053 504 1053 z "},"Ě":{"ha":794,"x_min":104,"x_max":739,"o":"m 189 972 l 654 972 q 715 949 690 972 q 739 890 739 926 q 715 834 739 856 q 654 813 690 813 l 265 813 l 278 836 l 278 565 l 267 576 l 592 576 q 652 553 628 576 q 676 494 676 531 q 652 438 676 460 q 592 417 628 417 l 271 417 l 278 428 l 278 147 l 267 160 l 654 160 q 715 135 690 160 q 739 79 739 111 q 715 22 739 44 q 654 0 690 0 l 189 0 q 128 24 153 0 q 104 85 104 49 l 104 888 q 128 948 104 924 q 189 972 153 972 m 400 1142 l 517 1217 q 557 1238 540 1232 q 588 1244 574 1244 q 619 1233 607 1244 q 631 1210 631 1222 q 626 1192 631 1200 q 610 1168 622 1183 l 522 1068 q 485 1038 504 1049 q 438 1028 465 1028 l 415 1028 q 368 1038 388 1028 q 331 1068 349 1049 l 243 1168 q 226 1192 231 1183 q 222 1210 222 1200 q 235 1233 222 1222 q 265 1244 247 1244 q 336 1217 293 1244 l 453 1142 l 400 1142 z "},"Ḝ":{"ha":794,"x_min":104,"x_max":739,"o":"m 189 972 l 654 972 q 715 949 690 972 q 739 890 739 926 q 715 834 739 856 q 654 813 690 813 l 265 813 l 278 836 l 278 565 l 267 576 l 592 576 q 652 553 628 576 q 676 494 676 531 q 652 438 676 460 q 592 417 628 417 l 271 417 l 278 428 l 278 147 l 267 160 l 654 160 q 715 135 690 160 q 739 79 739 111 q 715 22 739 44 q 654 0 690 0 l 189 0 q 128 24 153 0 q 104 85 104 49 l 104 888 q 128 948 104 924 q 189 972 153 972 m 425 1053 q 290 1087 347 1053 q 206 1182 232 1121 q 206 1238 192 1217 q 246 1258 219 1258 q 292 1245 275 1258 q 329 1208 310 1232 q 367 1181 344 1190 q 425 1171 390 1171 q 521 1208 492 1171 q 558 1245 540 1232 q 604 1258 575 1258 q 646 1238 632 1258 q 646 1185 660 1218 q 562 1087 619 1121 q 425 1053 504 1053 z "},"Ê":{"ha":794,"x_min":104,"x_max":739,"o":"m 189 972 l 654 972 q 715 949 690 972 q 739 890 739 926 q 715 834 739 856 q 654 813 690 813 l 265 813 l 278 836 l 278 565 l 267 576 l 592 576 q 652 553 628 576 q 676 494 676 531 q 652 438 676 460 q 592 417 628 417 l 271 417 l 278 428 l 278 147 l 267 160 l 654 160 q 715 135 690 160 q 739 79 739 111 q 715 22 739 44 q 654 0 690 0 l 189 0 q 128 24 153 0 q 104 85 104 49 l 104 888 q 128 948 104 924 q 189 972 153 972 m 450 1126 l 333 1058 q 293 1036 310 1044 q 263 1028 276 1028 q 232 1039 244 1028 q 219 1063 219 1050 q 224 1082 219 1074 q 240 1104 228 1090 l 328 1204 q 365 1234 346 1224 q 413 1244 385 1244 l 435 1244 q 482 1234 463 1244 q 519 1204 501 1224 l 607 1104 q 624 1082 619 1090 q 628 1063 628 1074 q 616 1039 628 1050 q 585 1028 604 1028 q 554 1036 571 1028 q 514 1058 538 1044 l 397 1126 l 450 1126 z "},"Ế":{"ha":794,"x_min":104,"x_max":896,"o":"m 189 972 l 654 972 q 715 949 690 972 q 739 890 739 926 q 715 834 739 856 q 654 813 690 813 l 265 813 l 278 836 l 278 565 l 267 576 l 592 576 q 652 553 628 576 q 676 494 676 531 q 652 438 676 460 q 592 417 628 417 l 271 417 l 278 428 l 278 147 l 267 160 l 654 160 q 715 135 690 160 q 739 79 739 111 q 715 22 739 44 q 654 0 690 0 l 189 0 q 128 24 153 0 q 104 85 104 49 l 104 888 q 128 948 104 924 q 189 972 153 972 m 450 1126 l 333 1058 q 293 1036 310 1044 q 263 1028 276 1028 q 232 1039 244 1028 q 219 1063 219 1050 q 224 1082 219 1074 q 240 1104 228 1090 l 328 1204 q 365 1234 346 1224 q 413 1244 385 1244 l 435 1244 q 482 1234 463 1244 q 519 1204 501 1224 l 607 1104 q 624 1082 619 1090 q 628 1063 628 1074 q 616 1039 628 1050 q 585 1028 604 1028 q 554 1036 571 1028 q 514 1058 538 1044 l 397 1126 l 450 1126 m 674 1133 q 631 1147 647 1133 q 615 1183 615 1161 q 620 1202 615 1193 q 635 1221 625 1211 l 754 1326 q 787 1348 769 1339 q 822 1357 804 1357 q 871 1339 846 1357 q 896 1289 896 1321 q 883 1248 896 1268 q 844 1215 869 1228 l 706 1142 q 689 1135 697 1136 q 674 1133 681 1133 z "},"Ệ":{"ha":794,"x_min":104,"x_max":739,"o":"m 189 972 l 654 972 q 715 949 690 972 q 739 890 739 926 q 715 834 739 856 q 654 813 690 813 l 265 813 l 278 836 l 278 565 l 267 576 l 592 576 q 652 553 628 576 q 676 494 676 531 q 652 438 676 460 q 592 417 628 417 l 271 417 l 278 428 l 278 147 l 267 160 l 654 160 q 715 135 690 160 q 739 79 739 111 q 715 22 739 44 q 654 0 690 0 l 189 0 q 128 24 153 0 q 104 85 104 49 l 104 888 q 128 948 104 924 q 189 972 153 972 m 394 -204 q 329 -189 349 -204 q 310 -135 310 -174 l 310 -108 q 331 -53 310 -68 q 394 -39 353 -39 q 465 -53 446 -39 q 485 -108 485 -68 l 485 -135 q 464 -190 485 -175 q 394 -204 443 -204 m 450 1126 l 333 1058 q 293 1036 310 1044 q 263 1028 276 1028 q 232 1039 244 1028 q 219 1063 219 1050 q 224 1082 219 1074 q 240 1104 228 1090 l 328 1204 q 365 1234 346 1224 q 413 1244 385 1244 l 435 1244 q 482 1234 463 1244 q 519 1204 501 1224 l 607 1104 q 624 1082 619 1090 q 628 1063 628 1074 q 616 1039 628 1050 q 585 1028 604 1028 q 554 1036 571 1028 q 514 1058 538 1044 l 397 1126 l 450 1126 z "},"Ề":{"ha":794,"x_min":104,"x_max":739,"o":"m 189 972 l 654 972 q 715 949 690 972 q 739 890 739 926 q 715 834 739 856 q 654 813 690 813 l 265 813 l 278 836 l 278 565 l 267 576 l 592 576 q 652 553 628 576 q 676 494 676 531 q 652 438 676 460 q 592 417 628 417 l 271 417 l 278 428 l 278 147 l 267 160 l 654 160 q 715 135 690 160 q 739 79 739 111 q 715 22 739 44 q 654 0 690 0 l 189 0 q 128 24 153 0 q 104 85 104 49 l 104 888 q 128 948 104 924 q 189 972 153 972 m 450 1126 l 333 1058 q 293 1036 310 1044 q 263 1028 276 1028 q 232 1039 244 1028 q 219 1063 219 1050 q 224 1082 219 1074 q 240 1104 228 1090 l 328 1204 q 365 1234 346 1224 q 413 1244 385 1244 l 435 1244 q 482 1234 463 1244 q 519 1204 501 1224 l 607 1104 q 624 1082 619 1090 q 628 1063 628 1074 q 616 1039 628 1050 q 585 1028 604 1028 q 554 1036 571 1028 q 514 1058 538 1044 l 397 1126 l 450 1126 m 628 1218 q 613 1220 621 1218 q 596 1226 604 1222 l 457 1300 q 406 1374 406 1328 q 431 1424 406 1406 q 479 1442 456 1442 q 516 1433 499 1442 q 547 1411 533 1424 l 667 1306 q 682 1287 678 1296 q 686 1268 686 1278 q 670 1232 686 1246 q 628 1218 654 1218 z "},"Ể":{"ha":794,"x_min":104,"x_max":739,"o":"m 189 972 l 654 972 q 715 949 690 972 q 739 890 739 926 q 715 834 739 856 q 654 813 690 813 l 265 813 l 278 836 l 278 565 l 267 576 l 592 576 q 652 553 628 576 q 676 494 676 531 q 652 438 676 460 q 592 417 628 417 l 271 417 l 278 428 l 278 147 l 267 160 l 654 160 q 715 135 690 160 q 739 79 739 111 q 715 22 739 44 q 654 0 690 0 l 189 0 q 128 24 153 0 q 104 85 104 49 l 104 888 q 128 948 104 924 q 189 972 153 972 m 450 1126 l 333 1058 q 293 1036 310 1044 q 263 1028 276 1028 q 232 1039 244 1028 q 219 1063 219 1050 q 224 1082 219 1074 q 240 1104 228 1090 l 328 1204 q 365 1234 346 1224 q 413 1244 385 1244 l 435 1244 q 482 1234 463 1244 q 519 1204 501 1224 l 607 1104 q 624 1082 619 1090 q 628 1063 628 1074 q 616 1039 628 1050 q 585 1028 604 1028 q 554 1036 571 1028 q 514 1058 538 1044 l 397 1126 l 450 1126 m 290 1603 q 338 1632 313 1621 q 400 1643 363 1643 q 490 1624 458 1643 q 532 1576 521 1604 q 543 1522 543 1547 q 537 1483 543 1500 q 517 1447 531 1465 q 493 1418 503 1431 q 483 1394 483 1406 q 467 1370 483 1378 q 428 1363 451 1363 q 402 1369 415 1363 q 389 1394 389 1376 q 395 1422 389 1408 q 411 1449 401 1435 q 433 1481 422 1464 q 443 1508 443 1497 q 429 1536 443 1526 q 396 1546 415 1546 q 364 1538 378 1546 q 338 1522 350 1531 q 313 1515 328 1515 q 281 1532 299 1514 q 269 1572 263 1551 q 290 1603 276 1592 z "},"Ễ":{"ha":794,"x_min":104,"x_max":739,"o":"m 189 972 l 654 972 q 715 949 690 972 q 739 890 739 926 q 715 834 739 856 q 654 813 690 813 l 265 813 l 278 836 l 278 565 l 267 576 l 592 576 q 652 553 628 576 q 676 494 676 531 q 652 438 676 460 q 592 417 628 417 l 271 417 l 278 428 l 278 147 l 267 160 l 654 160 q 715 135 690 160 q 739 79 739 111 q 715 22 739 44 q 654 0 690 0 l 189 0 q 128 24 153 0 q 104 85 104 49 l 104 888 q 128 948 104 924 q 189 972 153 972 m 450 1126 l 333 1058 q 293 1036 310 1044 q 263 1028 276 1028 q 232 1039 244 1028 q 219 1063 219 1050 q 224 1082 219 1074 q 240 1104 228 1090 l 328 1204 q 365 1234 346 1224 q 413 1244 385 1244 l 435 1244 q 482 1234 463 1244 q 519 1204 501 1224 l 607 1104 q 624 1082 619 1090 q 628 1063 628 1074 q 616 1039 628 1050 q 585 1028 604 1028 q 554 1036 571 1028 q 514 1058 538 1044 l 397 1126 l 450 1126 m 238 1246 q 184 1273 207 1246 q 161 1344 161 1300 q 201 1428 161 1389 q 315 1467 240 1467 q 403 1445 363 1467 q 477 1402 443 1424 q 536 1381 511 1381 q 560 1388 551 1381 q 564 1410 568 1396 q 571 1460 554 1442 q 613 1478 588 1478 q 667 1451 644 1478 q 689 1382 689 1425 q 675 1329 689 1358 q 632 1278 661 1300 q 557 1257 603 1257 q 460 1278 506 1257 q 376 1322 414 1300 q 314 1343 339 1343 q 291 1335 300 1343 q 286 1314 282 1328 q 279 1265 296 1283 q 238 1246 263 1246 z "},"Ȅ":{"ha":794,"x_min":64,"x_max":739,"o":"m 189 972 l 654 972 q 715 949 690 972 q 739 890 739 926 q 715 834 739 856 q 654 813 690 813 l 265 813 l 278 836 l 278 565 l 267 576 l 592 576 q 652 553 628 576 q 676 494 676 531 q 652 438 676 460 q 592 417 628 417 l 271 417 l 278 428 l 278 147 l 267 160 l 654 160 q 715 135 690 160 q 739 79 739 111 q 715 22 739 44 q 654 0 690 0 l 189 0 q 128 24 153 0 q 104 85 104 49 l 104 888 q 128 948 104 924 q 189 972 153 972 m 286 1044 q 271 1047 279 1044 q 254 1053 263 1049 l 115 1126 q 64 1200 64 1154 q 89 1250 64 1232 q 138 1268 114 1268 q 174 1259 157 1268 q 206 1238 192 1250 l 325 1132 q 340 1113 336 1122 q 344 1094 344 1104 q 328 1058 344 1072 q 286 1044 313 1044 m 572 1058 q 557 1060 565 1058 q 540 1067 549 1063 l 401 1140 q 350 1214 350 1168 q 375 1264 350 1246 q 424 1282 400 1282 q 460 1273 443 1282 q 492 1251 478 1264 l 611 1146 q 626 1127 622 1136 q 631 1108 631 1118 q 615 1072 631 1086 q 572 1058 599 1058 z "},"Ë":{"ha":794,"x_min":104,"x_max":739,"o":"m 189 972 l 654 972 q 715 949 690 972 q 739 890 739 926 q 715 834 739 856 q 654 813 690 813 l 265 813 l 278 836 l 278 565 l 267 576 l 592 576 q 652 553 628 576 q 676 494 676 531 q 652 438 676 460 q 592 417 628 417 l 271 417 l 278 428 l 278 147 l 267 160 l 654 160 q 715 135 690 160 q 739 79 739 111 q 715 22 739 44 q 654 0 690 0 l 189 0 q 128 24 153 0 q 104 85 104 49 l 104 888 q 128 948 104 924 q 189 972 153 972 m 561 1056 q 498 1071 518 1056 q 478 1125 478 1086 l 478 1150 q 499 1205 478 1190 q 561 1219 519 1219 q 628 1204 608 1219 q 649 1150 649 1189 l 649 1125 q 628 1070 649 1085 q 561 1056 607 1056 m 285 1056 q 222 1071 242 1056 q 201 1125 201 1086 l 201 1150 q 223 1205 201 1190 q 286 1219 244 1219 q 352 1204 332 1219 q 372 1150 372 1189 l 372 1125 q 351 1070 372 1085 q 285 1056 331 1056 z "},"Ė":{"ha":794,"x_min":104,"x_max":739,"o":"m 189 972 l 654 972 q 715 949 690 972 q 739 890 739 926 q 715 834 739 856 q 654 813 690 813 l 265 813 l 278 836 l 278 565 l 267 576 l 592 576 q 652 553 628 576 q 676 494 676 531 q 652 438 676 460 q 592 417 628 417 l 271 417 l 278 428 l 278 147 l 267 160 l 654 160 q 715 135 690 160 q 739 79 739 111 q 715 22 739 44 q 654 0 690 0 l 189 0 q 128 24 153 0 q 104 85 104 49 l 104 888 q 128 948 104 924 q 189 972 153 972 m 422 1028 q 357 1043 376 1028 q 338 1097 338 1058 l 338 1124 q 359 1178 338 1164 q 424 1193 381 1193 q 493 1178 474 1193 q 513 1124 513 1164 l 513 1097 q 492 1042 513 1057 q 422 1028 471 1028 z "},"Ẹ":{"ha":794,"x_min":104,"x_max":739,"o":"m 189 972 l 654 972 q 715 949 690 972 q 739 890 739 926 q 715 834 739 856 q 654 813 690 813 l 265 813 l 278 836 l 278 565 l 267 576 l 592 576 q 652 553 628 576 q 676 494 676 531 q 652 438 676 460 q 592 417 628 417 l 271 417 l 278 428 l 278 147 l 267 160 l 654 160 q 715 135 690 160 q 739 79 739 111 q 715 22 739 44 q 654 0 690 0 l 189 0 q 128 24 153 0 q 104 85 104 49 l 104 888 q 128 948 104 924 q 189 972 153 972 m 394 -204 q 329 -189 349 -204 q 310 -135 310 -174 l 310 -108 q 331 -53 310 -68 q 394 -39 353 -39 q 465 -53 446 -39 q 485 -108 485 -68 l 485 -135 q 464 -190 485 -175 q 394 -204 443 -204 z "},"È":{"ha":794,"x_min":104,"x_max":739,"o":"m 189 972 l 654 972 q 715 949 690 972 q 739 890 739 926 q 715 834 739 856 q 654 813 690 813 l 265 813 l 278 836 l 278 565 l 267 576 l 592 576 q 652 553 628 576 q 676 494 676 531 q 652 438 676 460 q 592 417 628 417 l 271 417 l 278 428 l 278 147 l 267 160 l 654 160 q 715 135 690 160 q 739 79 739 111 q 715 22 739 44 q 654 0 690 0 l 189 0 q 128 24 153 0 q 104 85 104 49 l 104 888 q 128 948 104 924 q 189 972 153 972 m 422 1031 q 407 1033 415 1031 q 390 1039 399 1035 l 251 1113 q 200 1186 200 1140 q 225 1236 200 1218 q 274 1254 250 1254 q 310 1245 293 1254 q 342 1224 328 1236 l 461 1118 q 476 1099 472 1108 q 481 1081 481 1090 q 465 1044 481 1058 q 422 1031 449 1031 z "},"Ẻ":{"ha":794,"x_min":104,"x_max":739,"o":"m 189 972 l 654 972 q 715 949 690 972 q 739 890 739 926 q 715 834 739 856 q 654 813 690 813 l 265 813 l 278 836 l 278 565 l 267 576 l 592 576 q 652 553 628 576 q 676 494 676 531 q 652 438 676 460 q 592 417 628 417 l 271 417 l 278 428 l 278 147 l 267 160 l 654 160 q 715 135 690 160 q 739 79 739 111 q 715 22 739 44 q 654 0 690 0 l 189 0 q 128 24 153 0 q 104 85 104 49 l 104 888 q 128 948 104 924 q 189 972 153 972 m 290 1289 q 338 1318 313 1307 q 400 1329 363 1329 q 490 1310 458 1329 q 532 1262 521 1290 q 543 1208 543 1233 q 537 1169 543 1186 q 517 1133 531 1151 q 493 1104 503 1117 q 483 1081 483 1092 q 467 1056 483 1064 q 428 1049 451 1049 q 402 1056 415 1049 q 389 1081 389 1063 q 395 1108 389 1094 q 411 1135 401 1121 q 433 1167 422 1150 q 443 1194 443 1183 q 429 1222 443 1213 q 396 1232 415 1232 q 364 1224 378 1232 q 338 1208 350 1217 q 313 1201 328 1201 q 281 1218 299 1200 q 269 1258 263 1238 q 290 1289 276 1278 z "},"Ȇ":{"ha":794,"x_min":104,"x_max":739,"o":"m 189 972 l 654 972 q 715 949 690 972 q 739 890 739 926 q 715 834 739 856 q 654 813 690 813 l 265 813 l 278 836 l 278 565 l 267 576 l 592 576 q 652 553 628 576 q 676 494 676 531 q 652 438 676 460 q 592 417 628 417 l 271 417 l 278 428 l 278 147 l 267 160 l 654 160 q 715 135 690 160 q 739 79 739 111 q 715 22 739 44 q 654 0 690 0 l 189 0 q 128 24 153 0 q 104 85 104 49 l 104 888 q 128 948 104 924 q 189 972 153 972 m 425 1289 q 521 1274 478 1289 q 596 1231 564 1260 q 644 1160 628 1201 q 646 1104 660 1125 q 604 1083 632 1083 q 558 1097 575 1083 q 521 1133 540 1110 q 483 1161 506 1151 q 425 1171 460 1171 q 367 1161 390 1171 q 329 1133 344 1151 q 293 1097 311 1110 q 246 1083 275 1083 q 205 1103 219 1083 q 204 1157 190 1124 q 253 1229 222 1200 q 328 1274 285 1258 q 425 1289 372 1289 z "},"Ē":{"ha":794,"x_min":104,"x_max":739,"o":"m 189 972 l 654 972 q 715 949 690 972 q 739 890 739 926 q 715 834 739 856 q 654 813 690 813 l 265 813 l 278 836 l 278 565 l 267 576 l 592 576 q 652 553 628 576 q 676 494 676 531 q 652 438 676 460 q 592 417 628 417 l 271 417 l 278 428 l 278 147 l 267 160 l 654 160 q 715 135 690 160 q 739 79 739 111 q 715 22 739 44 q 654 0 690 0 l 189 0 q 128 24 153 0 q 104 85 104 49 l 104 888 q 128 948 104 924 q 189 972 153 972 m 257 1042 q 188 1104 188 1042 q 257 1165 188 1165 l 593 1165 q 663 1104 663 1165 q 593 1042 663 1042 l 257 1042 z "},"Ḗ":{"ha":794,"x_min":104,"x_max":739,"o":"m 189 972 l 654 972 q 715 949 690 972 q 739 890 739 926 q 715 834 739 856 q 654 813 690 813 l 265 813 l 278 836 l 278 565 l 267 576 l 592 576 q 652 553 628 576 q 676 494 676 531 q 652 438 676 460 q 592 417 628 417 l 271 417 l 278 428 l 278 147 l 267 160 l 654 160 q 715 135 690 160 q 739 79 739 111 q 715 22 739 44 q 654 0 690 0 l 189 0 q 128 24 153 0 q 104 85 104 49 l 104 888 q 128 948 104 924 q 189 972 153 972 m 257 1042 q 188 1104 188 1042 q 257 1165 188 1165 l 593 1165 q 663 1104 663 1165 q 593 1042 663 1042 l 257 1042 m 426 1260 q 384 1274 400 1260 q 368 1310 368 1288 q 373 1328 368 1319 q 388 1347 378 1338 l 507 1453 q 540 1474 522 1465 q 575 1483 557 1483 q 624 1465 599 1483 q 649 1415 649 1447 q 635 1374 649 1394 q 597 1342 622 1354 l 458 1268 q 442 1261 450 1263 q 426 1260 433 1260 z "},"Ḕ":{"ha":794,"x_min":104,"x_max":739,"o":"m 189 972 l 654 972 q 715 949 690 972 q 739 890 739 926 q 715 834 739 856 q 654 813 690 813 l 265 813 l 278 836 l 278 565 l 267 576 l 592 576 q 652 553 628 576 q 676 494 676 531 q 652 438 676 460 q 592 417 628 417 l 271 417 l 278 428 l 278 147 l 267 160 l 654 160 q 715 135 690 160 q 739 79 739 111 q 715 22 739 44 q 654 0 690 0 l 189 0 q 128 24 153 0 q 104 85 104 49 l 104 888 q 128 948 104 924 q 189 972 153 972 m 257 1042 q 188 1104 188 1042 q 257 1165 188 1165 l 593 1165 q 663 1104 663 1165 q 593 1042 663 1042 l 257 1042 m 422 1265 q 407 1267 415 1265 q 390 1274 399 1269 l 251 1347 q 200 1421 200 1375 q 225 1471 200 1453 q 274 1489 250 1489 q 310 1480 293 1489 q 342 1458 328 1471 l 461 1353 q 476 1334 472 1343 q 481 1315 481 1325 q 465 1279 481 1293 q 422 1265 449 1265 z "},"Ę":{"ha":794,"x_min":104,"x_max":739,"o":"m 544 -287 q 427 -251 476 -287 q 378 -139 378 -215 q 403 -56 378 -92 q 470 6 429 -21 q 558 49 511 32 q 646 78 604 67 l 635 0 l 189 0 q 128 24 153 0 q 104 85 104 49 l 104 888 q 128 948 104 924 q 189 972 153 972 l 654 972 q 715 949 690 972 q 739 890 739 926 q 715 838 739 861 q 654 814 690 814 l 265 814 l 278 838 l 278 565 l 267 576 l 592 576 q 652 553 628 576 q 676 494 676 531 q 652 442 676 467 q 592 417 628 417 l 271 417 l 278 428 l 278 147 l 267 160 l 654 160 q 715 138 690 160 q 739 79 739 117 q 716 26 739 44 q 657 0 693 8 q 583 -26 615 -10 q 533 -64 551 -43 q 515 -108 515 -85 q 528 -146 515 -133 q 558 -158 542 -158 q 588 -142 575 -158 q 617 -121 600 -125 q 644 -117 635 -117 q 688 -134 669 -117 q 706 -183 706 -151 q 683 -230 706 -206 q 623 -271 660 -254 q 544 -287 586 -287 z "},"Ẽ":{"ha":794,"x_min":104,"x_max":739,"o":"m 189 972 l 654 972 q 715 949 690 972 q 739 890 739 926 q 715 834 739 856 q 654 813 690 813 l 265 813 l 278 836 l 278 565 l 267 576 l 592 576 q 652 553 628 576 q 676 494 676 531 q 652 438 676 460 q 592 417 628 417 l 271 417 l 278 428 l 278 147 l 267 160 l 654 160 q 715 135 690 160 q 739 79 739 111 q 715 22 739 44 q 654 0 690 0 l 189 0 q 128 24 153 0 q 104 85 104 49 l 104 888 q 128 948 104 924 q 189 972 153 972 m 238 1022 q 184 1049 207 1022 q 161 1121 161 1076 q 201 1204 161 1165 q 315 1243 240 1243 q 403 1222 363 1243 q 477 1178 443 1200 q 536 1157 511 1157 q 560 1165 551 1157 q 564 1186 568 1172 q 571 1236 554 1218 q 613 1254 588 1254 q 667 1228 644 1254 q 689 1158 689 1201 q 675 1106 689 1135 q 632 1055 661 1076 q 557 1033 603 1033 q 460 1055 506 1033 q 376 1098 414 1076 q 314 1119 339 1119 q 291 1112 300 1119 q 286 1090 282 1104 q 279 1041 296 1060 q 238 1022 263 1022 z "},"F":{"ha":781,"x_min":104,"x_max":725,"o":"m 192 0 q 128 24 153 0 q 104 85 104 49 l 104 888 q 128 948 104 924 q 189 972 153 972 l 640 972 q 701 949 676 972 q 725 890 725 926 q 701 836 725 860 q 640 813 676 813 l 265 813 l 278 829 l 278 550 l 268 568 l 578 568 q 638 545 614 568 q 663 486 663 522 q 638 432 663 456 q 578 408 614 408 l 265 408 l 278 421 l 278 85 q 252 24 278 49 q 192 0 226 0 z "},"G":{"ha":967,"x_min":56,"x_max":904,"o":"m 563 -14 q 365 25 457 -14 q 204 133 274 64 q 95 292 135 201 q 56 486 56 382 q 95 681 56 590 q 204 840 135 771 q 365 947 274 908 q 563 986 457 986 q 689 972 628 986 q 801 931 750 958 q 833 901 822 919 q 843 863 843 882 q 821 803 843 829 q 764 776 799 776 q 741 779 753 776 q 718 788 729 782 q 644 811 683 803 q 563 819 606 819 q 398 774 472 819 q 280 653 324 729 q 236 486 236 578 q 280 319 236 396 q 398 198 324 243 q 563 153 472 153 q 654 161 604 153 q 736 183 704 169 l 724 142 l 724 379 l 747 358 l 593 358 q 533 382 557 358 q 508 442 508 406 q 533 501 508 478 q 593 525 557 525 l 821 525 q 881 501 857 525 q 904 440 904 476 l 904 146 q 891 100 904 118 q 861 71 878 82 q 722 9 797 32 q 563 -14 646 -14 z "},"Ğ":{"ha":967,"x_min":56,"x_max":904,"o":"m 563 -14 q 365 25 457 -14 q 204 133 274 64 q 95 292 135 201 q 56 486 56 382 q 95 681 56 590 q 204 840 135 771 q 365 947 274 908 q 563 986 457 986 q 689 972 628 986 q 801 931 750 958 q 833 901 822 919 q 843 863 843 882 q 821 803 843 829 q 764 776 799 776 q 741 779 753 776 q 718 788 729 782 q 644 811 683 803 q 563 819 606 819 q 398 774 472 819 q 280 653 324 729 q 236 486 236 578 q 280 319 236 396 q 398 198 324 243 q 563 153 472 153 q 654 161 604 153 q 736 183 704 169 l 724 142 l 724 379 l 747 358 l 593 358 q 533 382 557 358 q 508 442 508 406 q 533 501 508 478 q 593 525 557 525 l 821 525 q 881 501 857 525 q 904 440 904 476 l 904 146 q 891 100 904 118 q 861 71 878 82 q 722 9 797 32 q 563 -14 646 -14 m 539 1053 q 403 1087 461 1053 q 319 1182 346 1121 q 319 1238 306 1217 q 360 1258 333 1258 q 406 1245 389 1258 q 443 1208 424 1232 q 481 1181 458 1190 q 539 1171 504 1171 q 635 1208 606 1171 q 672 1245 654 1232 q 718 1258 689 1258 q 760 1238 746 1258 q 760 1185 774 1218 q 676 1087 733 1121 q 539 1053 618 1053 z "},"Ǧ":{"ha":967,"x_min":56,"x_max":904,"o":"m 563 -14 q 365 25 457 -14 q 204 133 274 64 q 95 292 135 201 q 56 486 56 382 q 95 681 56 590 q 204 840 135 771 q 365 947 274 908 q 563 986 457 986 q 689 972 628 986 q 801 931 750 958 q 833 901 822 919 q 843 863 843 882 q 821 803 843 829 q 764 776 799 776 q 741 779 753 776 q 718 788 729 782 q 644 811 683 803 q 563 819 606 819 q 398 774 472 819 q 280 653 324 729 q 236 486 236 578 q 280 319 236 396 q 398 198 324 243 q 563 153 472 153 q 654 161 604 153 q 736 183 704 169 l 724 142 l 724 379 l 747 358 l 593 358 q 533 382 557 358 q 508 442 508 406 q 533 501 508 478 q 593 525 557 525 l 821 525 q 881 501 857 525 q 904 440 904 476 l 904 146 q 891 100 904 118 q 861 71 878 82 q 722 9 797 32 q 563 -14 646 -14 m 514 1142 l 631 1217 q 671 1238 654 1232 q 701 1244 688 1244 q 733 1233 721 1244 q 744 1210 744 1222 q 740 1192 744 1200 q 724 1168 736 1183 l 636 1068 q 599 1038 618 1049 q 551 1028 579 1028 l 529 1028 q 482 1038 501 1028 q 444 1068 463 1049 l 357 1168 q 340 1192 344 1183 q 336 1210 336 1200 q 349 1233 336 1222 q 379 1244 361 1244 q 450 1217 407 1244 l 567 1142 l 514 1142 z "},"Ĝ":{"ha":967,"x_min":56,"x_max":904,"o":"m 563 -14 q 365 25 457 -14 q 204 133 274 64 q 95 292 135 201 q 56 486 56 382 q 95 681 56 590 q 204 840 135 771 q 365 947 274 908 q 563 986 457 986 q 689 972 628 986 q 801 931 750 958 q 833 901 822 919 q 843 863 843 882 q 821 803 843 829 q 764 776 799 776 q 741 779 753 776 q 718 788 729 782 q 644 811 683 803 q 563 819 606 819 q 398 774 472 819 q 280 653 324 729 q 236 486 236 578 q 280 319 236 396 q 398 198 324 243 q 563 153 472 153 q 654 161 604 153 q 736 183 704 169 l 724 142 l 724 379 l 747 358 l 593 358 q 533 382 557 358 q 508 442 508 406 q 533 501 508 478 q 593 525 557 525 l 821 525 q 881 501 857 525 q 904 440 904 476 l 904 146 q 891 100 904 118 q 861 71 878 82 q 722 9 797 32 q 563 -14 646 -14 m 564 1126 l 447 1058 q 407 1036 424 1044 q 376 1028 390 1028 q 346 1039 358 1028 q 333 1063 333 1050 q 338 1082 333 1074 q 354 1104 342 1090 l 442 1204 q 479 1234 460 1224 q 526 1244 499 1244 l 549 1244 q 596 1234 576 1244 q 633 1204 615 1224 l 721 1104 q 738 1082 733 1090 q 742 1063 742 1074 q 730 1039 742 1050 q 699 1028 718 1028 q 668 1036 685 1028 q 628 1058 651 1044 l 511 1126 l 564 1126 z "},"Ģ":{"ha":967,"x_min":56,"x_max":904,"o":"m 563 -14 q 365 25 457 -14 q 204 133 274 64 q 95 292 135 201 q 56 486 56 382 q 95 681 56 590 q 204 840 135 771 q 365 947 274 908 q 563 986 457 986 q 689 972 628 986 q 801 931 750 958 q 833 901 822 919 q 843 863 843 882 q 821 803 843 829 q 764 776 799 776 q 741 779 753 776 q 718 788 729 782 q 644 811 683 803 q 563 819 606 819 q 398 774 472 819 q 280 653 324 729 q 236 486 236 578 q 280 319 236 396 q 398 198 324 243 q 563 153 472 153 q 654 161 604 153 q 736 183 704 169 l 724 142 l 724 379 l 747 358 l 593 358 q 533 382 557 358 q 508 442 508 406 q 533 501 508 478 q 593 525 557 525 l 821 525 q 881 501 857 525 q 904 440 904 476 l 904 146 q 891 100 904 118 q 861 71 878 82 q 722 9 797 32 q 563 -14 646 -14 m 675 -144 q 656 -205 675 -175 q 606 -255 638 -235 q 533 -275 574 -275 q 483 -260 499 -275 q 467 -231 467 -244 q 476 -205 467 -211 q 496 -199 486 -199 q 515 -202 503 -199 q 538 -206 526 -206 q 563 -195 553 -206 q 572 -167 572 -185 q 558 -149 572 -149 q 544 -155 549 -149 q 521 -161 540 -161 q 485 -146 499 -161 q 471 -104 471 -131 q 497 -55 471 -71 q 565 -39 524 -39 q 644 -67 613 -39 q 675 -144 675 -94 z "},"Ġ":{"ha":967,"x_min":56,"x_max":904,"o":"m 563 -14 q 365 25 457 -14 q 204 133 274 64 q 95 292 135 201 q 56 486 56 382 q 95 681 56 590 q 204 840 135 771 q 365 947 274 908 q 563 986 457 986 q 689 972 628 986 q 801 931 750 958 q 833 901 822 919 q 843 863 843 882 q 821 803 843 829 q 764 776 799 776 q 741 779 753 776 q 718 788 729 782 q 644 811 683 803 q 563 819 606 819 q 398 774 472 819 q 280 653 324 729 q 236 486 236 578 q 280 319 236 396 q 398 198 324 243 q 563 153 472 153 q 654 161 604 153 q 736 183 704 169 l 724 142 l 724 379 l 747 358 l 593 358 q 533 382 557 358 q 508 442 508 406 q 533 501 508 478 q 593 525 557 525 l 821 525 q 881 501 857 525 q 904 440 904 476 l 904 146 q 891 100 904 118 q 861 71 878 82 q 722 9 797 32 q 563 -14 646 -14 m 536 1028 q 471 1043 490 1028 q 451 1097 451 1058 l 451 1124 q 473 1178 451 1164 q 538 1193 494 1193 q 607 1178 588 1193 q 626 1124 626 1164 l 626 1097 q 606 1042 626 1057 q 536 1028 585 1028 z "},"Ḡ":{"ha":967,"x_min":56,"x_max":904,"o":"m 563 -14 q 365 25 457 -14 q 204 133 274 64 q 95 292 135 201 q 56 486 56 382 q 95 681 56 590 q 204 840 135 771 q 365 947 274 908 q 563 986 457 986 q 689 972 628 986 q 801 931 750 958 q 833 901 822 919 q 843 863 843 882 q 821 803 843 829 q 764 776 799 776 q 741 779 753 776 q 718 788 729 782 q 644 811 683 803 q 563 819 606 819 q 398 774 472 819 q 280 653 324 729 q 236 486 236 578 q 280 319 236 396 q 398 198 324 243 q 563 153 472 153 q 654 161 604 153 q 736 183 704 169 l 724 142 l 724 379 l 747 358 l 593 358 q 533 382 557 358 q 508 442 508 406 q 533 501 508 478 q 593 525 557 525 l 821 525 q 881 501 857 525 q 904 440 904 476 l 904 146 q 891 100 904 118 q 861 71 878 82 q 722 9 797 32 q 563 -14 646 -14 m 371 1042 q 301 1104 301 1042 q 371 1165 301 1165 l 707 1165 q 776 1104 776 1165 q 707 1042 776 1042 l 371 1042 z "},"H":{"ha":999,"x_min":104,"x_max":894,"o":"m 193 972 q 252 948 226 972 q 278 888 278 924 l 278 85 q 251 24 278 49 q 190 0 225 0 q 128 24 151 0 q 104 85 104 49 l 104 888 q 129 948 104 924 q 193 972 154 972 m 808 972 q 871 948 847 972 q 894 888 894 924 l 894 85 q 870 24 894 49 q 806 0 846 0 q 747 24 772 0 q 721 85 721 49 l 721 888 q 747 948 721 924 q 808 972 774 972 m 189 568 l 808 568 l 808 408 l 189 408 l 189 568 z "},"Ħ":{"ha":1118,"x_min":56,"x_max":1063,"o":"m 126 681 q 76 701 96 681 q 56 751 56 721 q 76 800 56 781 q 126 819 96 819 l 992 819 q 1043 800 1024 819 q 1063 749 1063 781 q 1043 700 1063 719 q 992 681 1024 681 l 126 681 m 253 972 q 312 948 286 972 q 338 888 338 924 l 338 85 q 311 24 338 49 q 250 0 285 0 q 188 24 211 0 q 164 85 164 49 l 164 888 q 189 948 164 924 q 253 972 214 972 m 868 972 q 931 948 907 972 q 954 888 954 924 l 954 85 q 930 24 954 49 q 865 0 906 0 q 806 24 832 0 q 781 85 781 49 l 781 888 q 807 948 781 924 q 868 972 833 972 m 249 568 l 868 568 l 868 408 l 249 408 l 249 568 z "},"Ḫ":{"ha":999,"x_min":104,"x_max":894,"o":"m 193 972 q 252 948 226 972 q 278 888 278 924 l 278 85 q 251 24 278 49 q 190 0 225 0 q 128 24 151 0 q 104 85 104 49 l 104 888 q 129 948 104 924 q 193 972 154 972 m 808 972 q 871 948 847 972 q 894 888 894 924 l 894 85 q 870 24 894 49 q 806 0 846 0 q 747 24 772 0 q 721 85 721 49 l 721 888 q 747 948 721 924 q 808 972 774 972 m 189 568 l 808 568 l 808 408 l 189 408 l 189 568 m 500 -260 q 405 -244 449 -260 q 329 -201 361 -229 q 281 -131 297 -172 q 281 -75 267 -96 q 321 -54 294 -54 q 368 -67 350 -54 q 404 -104 386 -81 q 442 -132 419 -122 q 500 -142 465 -142 q 558 -132 535 -142 q 596 -104 581 -122 q 633 -67 615 -81 q 679 -54 650 -54 q 721 -74 707 -54 q 721 -128 735 -94 q 672 -199 704 -169 q 597 -244 640 -229 q 500 -260 553 -260 z "},"Ĥ":{"ha":999,"x_min":104,"x_max":894,"o":"m 193 972 q 252 948 226 972 q 278 888 278 924 l 278 85 q 251 24 278 49 q 190 0 225 0 q 128 24 151 0 q 104 85 104 49 l 104 888 q 129 948 104 924 q 193 972 154 972 m 808 972 q 871 948 847 972 q 894 888 894 924 l 894 85 q 870 24 894 49 q 806 0 846 0 q 747 24 772 0 q 721 85 721 49 l 721 888 q 747 948 721 924 q 808 972 774 972 m 189 568 l 808 568 l 808 408 l 189 408 l 189 568 m 525 1126 l 408 1058 q 368 1036 385 1044 q 338 1028 351 1028 q 307 1039 319 1028 q 294 1063 294 1050 q 299 1082 294 1074 q 315 1104 303 1090 l 403 1204 q 440 1234 421 1224 q 488 1244 460 1244 l 510 1244 q 557 1234 538 1244 q 594 1204 576 1224 l 682 1104 q 699 1082 694 1090 q 703 1063 703 1074 q 691 1039 703 1050 q 660 1028 679 1028 q 629 1036 646 1028 q 589 1058 613 1044 l 472 1126 l 525 1126 z "},"Ḥ":{"ha":999,"x_min":104,"x_max":894,"o":"m 193 972 q 252 948 226 972 q 278 888 278 924 l 278 85 q 251 24 278 49 q 190 0 225 0 q 128 24 151 0 q 104 85 104 49 l 104 888 q 129 948 104 924 q 193 972 154 972 m 808 972 q 871 948 847 972 q 894 888 894 924 l 894 85 q 870 24 894 49 q 806 0 846 0 q 747 24 772 0 q 721 85 721 49 l 721 888 q 747 948 721 924 q 808 972 774 972 m 189 568 l 808 568 l 808 408 l 189 408 l 189 568 m 497 -204 q 432 -189 451 -204 q 413 -135 413 -174 l 413 -108 q 434 -53 413 -68 q 497 -39 456 -39 q 568 -53 549 -39 q 588 -108 588 -68 l 588 -135 q 567 -190 588 -175 q 497 -204 546 -204 z "},"I":{"ha":382,"x_min":104,"x_max":278,"o":"m 278 85 q 251 24 278 49 q 190 0 225 0 q 128 24 151 0 q 104 85 104 49 l 104 888 q 129 948 104 924 q 193 972 154 972 q 252 948 226 972 q 278 888 278 924 l 278 85 z "},"Ĳ":{"ha":815,"x_min":104,"x_max":711,"o":"m 286 438 q 260 377 286 401 q 199 353 233 353 q 136 377 160 353 q 113 438 113 401 l 113 888 q 138 948 113 924 q 201 972 163 972 q 260 948 235 972 q 286 888 286 924 l 286 438 m 379 -14 q 232 18 300 -14 q 121 110 164 50 q 104 158 104 135 q 131 217 104 193 q 185 240 158 240 q 226 228 206 240 q 263 199 246 215 q 317 163 290 174 q 379 153 344 153 q 457 174 421 153 q 515 229 493 194 q 538 304 538 264 l 538 888 q 564 948 538 924 q 625 972 590 972 q 688 948 664 972 q 711 888 711 924 l 711 304 q 667 147 711 219 q 547 31 622 75 q 379 -14 472 -14 z "},"Í":{"ha":382,"x_min":104,"x_max":418,"o":"m 278 85 q 251 24 278 49 q 190 0 225 0 q 128 24 151 0 q 104 85 104 49 l 104 888 q 129 948 104 924 q 193 972 154 972 q 252 948 226 972 q 278 888 278 924 l 278 85 m 196 1025 q 153 1039 169 1025 q 138 1075 138 1053 q 142 1094 138 1085 q 157 1113 147 1103 l 276 1218 q 309 1240 292 1231 q 344 1249 326 1249 q 393 1231 368 1249 q 418 1181 418 1213 q 405 1140 418 1160 q 367 1107 392 1119 l 228 1033 q 211 1026 219 1028 q 196 1025 203 1025 z "},"Ĭ":{"ha":382,"x_min":-39,"x_max":429,"o":"m 278 85 q 251 24 278 49 q 190 0 225 0 q 128 24 151 0 q 104 85 104 49 l 104 888 q 129 948 104 924 q 193 972 154 972 q 252 948 226 972 q 278 888 278 924 l 278 85 m 194 1053 q 59 1087 117 1053 q -25 1182 1 1121 q -25 1238 -39 1217 q 15 1258 -11 1258 q 62 1245 44 1258 q 99 1208 79 1232 q 137 1181 114 1190 q 194 1171 160 1171 q 290 1208 261 1171 q 327 1245 310 1232 q 374 1258 344 1258 q 415 1238 401 1258 q 415 1185 429 1218 q 331 1087 389 1121 q 194 1053 274 1053 z "},"Ǐ":{"ha":382,"x_min":-8,"x_max":400,"o":"m 278 85 q 251 24 278 49 q 190 0 225 0 q 128 24 151 0 q 104 85 104 49 l 104 888 q 129 948 104 924 q 193 972 154 972 q 252 948 226 972 q 278 888 278 924 l 278 85 m 169 1142 l 286 1217 q 326 1238 310 1232 q 357 1244 343 1244 q 388 1233 376 1244 q 400 1210 400 1222 q 396 1192 400 1200 q 379 1168 392 1183 l 292 1068 q 254 1038 274 1049 q 207 1028 235 1028 l 185 1028 q 138 1038 157 1028 q 100 1068 118 1049 l 13 1168 q -4 1192 0 1183 q -8 1210 -8 1200 q 4 1233 -8 1222 q 35 1244 17 1244 q 106 1217 63 1244 l 222 1142 l 169 1142 z "},"Î":{"ha":382,"x_min":-11,"x_max":397,"o":"m 278 85 q 251 24 278 49 q 190 0 225 0 q 128 24 151 0 q 104 85 104 49 l 104 888 q 129 948 104 924 q 193 972 154 972 q 252 948 226 972 q 278 888 278 924 l 278 85 m 219 1126 l 103 1058 q 63 1036 79 1044 q 32 1028 46 1028 q 1 1039 14 1028 q -11 1063 -11 1050 q -7 1082 -11 1074 q 10 1104 -3 1090 l 97 1204 q 135 1234 115 1224 q 182 1244 154 1244 l 204 1244 q 251 1234 232 1244 q 289 1204 271 1224 l 376 1104 q 393 1082 389 1090 q 397 1063 397 1074 q 385 1039 397 1050 q 354 1028 374 1028 q 324 1036 340 1028 q 283 1058 307 1044 l 167 1126 l 219 1126 z "},"Ȉ":{"ha":382,"x_min":-167,"x_max":400,"o":"m 278 85 q 251 24 278 49 q 190 0 225 0 q 128 24 151 0 q 104 85 104 49 l 104 888 q 129 948 104 924 q 193 972 154 972 q 252 948 226 972 q 278 888 278 924 l 278 85 m 56 1044 q 40 1047 49 1044 q 24 1053 32 1049 l -115 1126 q -167 1200 -167 1154 q -142 1250 -167 1232 q -93 1268 -117 1268 q -56 1259 -74 1268 q -25 1238 -39 1250 l 94 1132 q 110 1113 106 1122 q 114 1094 114 1104 q 98 1058 114 1072 q 56 1044 82 1044 m 342 1058 q 326 1060 335 1058 q 310 1067 318 1063 l 171 1140 q 119 1214 119 1168 q 144 1264 119 1246 q 193 1282 169 1282 q 230 1273 213 1282 q 261 1251 247 1264 l 381 1146 q 396 1127 392 1136 q 400 1108 400 1118 q 384 1072 400 1086 q 342 1058 368 1058 z "},"Ï":{"ha":382,"x_min":-29,"x_max":418,"o":"m 278 85 q 251 24 278 49 q 190 0 225 0 q 128 24 151 0 q 104 85 104 49 l 104 888 q 129 948 104 924 q 193 972 154 972 q 252 948 226 972 q 278 888 278 924 l 278 85 m 331 1056 q 267 1071 288 1056 q 247 1125 247 1086 l 247 1150 q 268 1205 247 1190 q 331 1219 289 1219 q 398 1204 378 1219 q 418 1150 418 1189 l 418 1125 q 397 1070 418 1085 q 331 1056 376 1056 m 54 1056 q -9 1071 11 1056 q -29 1125 -29 1086 l -29 1150 q -8 1205 -29 1190 q 56 1219 14 1219 q 122 1204 101 1219 q 142 1150 142 1189 l 142 1125 q 121 1070 142 1085 q 54 1056 100 1056 z "},"Ḯ":{"ha":382,"x_min":-29,"x_max":418,"o":"m 278 85 q 251 24 278 49 q 190 0 225 0 q 128 24 151 0 q 104 85 104 49 l 104 888 q 129 948 104 924 q 193 972 154 972 q 252 948 226 972 q 278 888 278 924 l 278 85 m 331 1056 q 267 1071 288 1056 q 247 1125 247 1086 l 247 1150 q 268 1205 247 1190 q 331 1219 289 1219 q 398 1204 378 1219 q 418 1150 418 1189 l 418 1125 q 397 1070 418 1085 q 331 1056 376 1056 m 54 1056 q -9 1071 11 1056 q -29 1125 -29 1086 l -29 1150 q -8 1205 -29 1190 q 56 1219 14 1219 q 122 1204 101 1219 q 142 1150 142 1189 l 142 1125 q 121 1070 142 1085 q 54 1056 100 1056 m 196 1300 q 153 1314 169 1300 q 138 1350 138 1328 q 142 1369 138 1360 q 157 1388 147 1378 l 276 1493 q 309 1515 292 1506 q 344 1524 326 1524 q 393 1506 368 1524 q 418 1456 418 1488 q 405 1415 418 1435 q 367 1382 392 1394 l 228 1308 q 211 1301 219 1303 q 196 1300 203 1300 z "},"İ":{"ha":382,"x_min":104,"x_max":282,"o":"m 278 85 q 251 24 278 49 q 190 0 225 0 q 128 24 151 0 q 104 85 104 49 l 104 888 q 129 948 104 924 q 193 972 154 972 q 252 948 226 972 q 278 888 278 924 l 278 85 m 192 1028 q 126 1043 146 1028 q 107 1097 107 1058 l 107 1124 q 128 1178 107 1164 q 193 1193 150 1193 q 263 1178 243 1193 q 282 1124 282 1164 l 282 1097 q 261 1042 282 1057 q 192 1028 240 1028 z "},"Ị":{"ha":382,"x_min":104,"x_max":282,"o":"m 278 85 q 251 24 278 49 q 190 0 225 0 q 128 24 151 0 q 104 85 104 49 l 104 888 q 129 948 104 924 q 193 972 154 972 q 252 948 226 972 q 278 888 278 924 l 278 85 m 192 -204 q 126 -189 146 -204 q 107 -135 107 -174 l 107 -108 q 128 -53 107 -68 q 192 -39 150 -39 q 263 -53 243 -39 q 282 -108 282 -68 l 282 -135 q 261 -190 282 -175 q 192 -204 240 -204 z "},"Ì":{"ha":382,"x_min":-31,"x_max":278,"o":"m 278 85 q 251 24 278 49 q 190 0 225 0 q 128 24 151 0 q 104 85 104 49 l 104 888 q 129 948 104 924 q 193 972 154 972 q 252 948 226 972 q 278 888 278 924 l 278 85 m 192 1031 q 176 1033 185 1031 q 160 1039 168 1035 l 21 1113 q -31 1186 -31 1140 q -6 1236 -31 1218 q 43 1254 19 1254 q 80 1245 63 1254 q 111 1224 97 1236 l 231 1118 q 246 1099 242 1108 q 250 1081 250 1090 q 234 1044 250 1058 q 192 1031 218 1031 z "},"Ỉ":{"ha":382,"x_min":32,"x_max":313,"o":"m 278 85 q 251 24 278 49 q 190 0 225 0 q 128 24 151 0 q 104 85 104 49 l 104 888 q 129 948 104 924 q 193 972 154 972 q 252 948 226 972 q 278 888 278 924 l 278 85 m 60 1289 q 107 1318 82 1307 q 169 1329 132 1329 q 259 1310 228 1329 q 301 1262 290 1290 q 313 1208 313 1233 q 306 1169 313 1186 q 286 1133 300 1151 q 263 1104 272 1117 q 253 1081 253 1092 q 237 1056 253 1064 q 197 1049 221 1049 q 172 1056 185 1049 q 158 1081 158 1063 q 165 1108 158 1094 q 181 1135 171 1121 q 202 1167 192 1150 q 213 1194 213 1183 q 199 1222 213 1213 q 165 1232 185 1232 q 133 1224 147 1232 q 107 1208 119 1217 q 83 1201 97 1201 q 50 1218 68 1200 q 39 1258 32 1238 q 60 1289 46 1278 z "},"Ȋ":{"ha":382,"x_min":-40,"x_max":429,"o":"m 278 85 q 251 24 278 49 q 190 0 225 0 q 128 24 151 0 q 104 85 104 49 l 104 888 q 129 948 104 924 q 193 972 154 972 q 252 948 226 972 q 278 888 278 924 l 278 85 m 194 1289 q 290 1274 247 1289 q 365 1231 333 1260 q 414 1160 397 1201 q 415 1104 429 1125 q 374 1083 401 1083 q 327 1097 344 1083 q 290 1133 310 1110 q 252 1161 275 1151 q 194 1171 229 1171 q 137 1161 160 1171 q 99 1133 114 1151 q 63 1097 81 1110 q 15 1083 44 1083 q -26 1103 -11 1083 q -26 1157 -40 1124 q 23 1229 -8 1200 q 98 1274 54 1258 q 194 1289 142 1289 z "},"Ī":{"ha":382,"x_min":-43,"x_max":432,"o":"m 278 85 q 251 24 278 49 q 190 0 225 0 q 128 24 151 0 q 104 85 104 49 l 104 888 q 129 948 104 924 q 193 972 154 972 q 252 948 226 972 q 278 888 278 924 l 278 85 m 26 1042 q -43 1104 -43 1042 q 26 1165 -43 1165 l 363 1165 q 432 1104 432 1165 q 363 1042 432 1042 l 26 1042 z "},"Į":{"ha":389,"x_min":-36,"x_max":292,"o":"m 131 -287 q 13 -251 63 -287 q -36 -139 -36 -215 q -12 -44 -36 -82 q 49 19 11 -6 q 132 60 88 44 q 218 88 176 76 l 193 0 l 104 47 l 104 888 q 131 948 104 924 q 196 972 157 972 q 260 948 235 972 q 285 888 285 924 l 285 49 q 278 19 285 35 q 249 -3 271 4 q 144 -47 186 -21 q 101 -108 101 -74 q 115 -146 101 -133 q 144 -158 128 -158 q 171 -148 160 -158 q 196 -127 182 -137 q 231 -117 210 -117 q 274 -134 256 -117 q 292 -183 292 -151 q 269 -230 292 -206 q 209 -271 246 -254 q 131 -287 172 -287 z "},"Ĩ":{"ha":382,"x_min":-69,"x_max":458,"o":"m 278 85 q 251 24 278 49 q 190 0 225 0 q 128 24 151 0 q 104 85 104 49 l 104 888 q 129 948 104 924 q 193 972 154 972 q 252 948 226 972 q 278 888 278 924 l 278 85 m 7 1022 q -47 1049 -24 1022 q -69 1121 -69 1076 q -30 1204 -69 1165 q 85 1243 10 1243 q 172 1222 132 1243 q 247 1178 213 1200 q 306 1157 281 1157 q 329 1165 321 1157 q 333 1186 338 1172 q 340 1236 324 1218 q 382 1254 357 1254 q 436 1228 414 1254 q 458 1158 458 1201 q 444 1106 458 1135 q 401 1055 431 1076 q 326 1033 372 1033 q 229 1055 275 1033 q 146 1098 183 1076 q 83 1119 108 1119 q 60 1112 69 1119 q 56 1090 51 1104 q 49 1041 65 1060 q 7 1022 32 1022 z "},"J":{"ha":767,"x_min":56,"x_max":663,"o":"m 331 -14 q 183 18 251 -14 q 72 110 115 50 q 56 158 56 135 q 83 217 56 193 q 136 240 110 240 q 177 228 157 240 q 214 199 197 215 q 269 163 242 174 q 331 153 296 153 q 408 174 372 153 q 467 229 444 194 q 489 304 489 264 l 489 888 q 515 948 489 924 q 576 972 542 972 q 639 948 615 972 q 663 888 663 924 l 663 304 q 618 147 663 219 q 499 31 574 75 q 331 -14 424 -14 z "},"Ĵ":{"ha":767,"x_min":56,"x_max":779,"o":"m 331 -14 q 183 18 251 -14 q 72 110 115 50 q 56 158 56 135 q 83 217 56 193 q 136 240 110 240 q 177 228 157 240 q 214 199 197 215 q 269 163 242 174 q 331 153 296 153 q 408 174 372 153 q 467 229 444 194 q 489 304 489 264 l 489 888 q 515 948 489 924 q 576 972 542 972 q 639 948 615 972 q 663 888 663 924 l 663 304 q 618 147 663 219 q 499 31 574 75 q 331 -14 424 -14 m 601 1126 l 485 1058 q 444 1036 461 1044 q 414 1028 428 1028 q 383 1039 396 1028 q 371 1063 371 1050 q 375 1082 371 1074 q 392 1104 379 1090 l 479 1204 q 517 1234 497 1224 q 564 1244 536 1244 l 586 1244 q 633 1234 614 1244 q 671 1204 653 1224 l 758 1104 q 775 1082 771 1090 q 779 1063 779 1074 q 767 1039 779 1050 q 736 1028 756 1028 q 706 1036 722 1028 q 665 1058 689 1044 l 549 1126 l 601 1126 z "},"K":{"ha":910,"x_min":104,"x_max":868,"o":"m 774 0 q 711 32 735 0 l 390 454 l 517 583 l 849 144 q 868 88 868 118 q 839 24 868 49 q 774 0 810 0 m 790 979 q 845 952 824 979 q 867 897 867 925 q 842 843 867 868 l 260 286 l 253 485 l 722 947 q 790 979 754 979 m 190 0 q 128 24 151 0 q 104 85 104 49 l 104 888 q 129 948 104 924 q 193 972 154 972 q 255 948 232 972 q 278 888 278 924 l 278 85 q 254 24 278 49 q 190 0 231 0 z "},"Ķ":{"ha":910,"x_min":104,"x_max":868,"o":"m 774 0 q 711 32 735 0 l 390 454 l 517 583 l 849 144 q 868 88 868 118 q 839 24 868 49 q 774 0 810 0 m 790 979 q 845 952 824 979 q 867 897 867 925 q 842 843 867 868 l 260 286 l 253 485 l 722 947 q 790 979 754 979 m 190 0 q 128 24 151 0 q 104 85 104 49 l 104 888 q 129 948 104 924 q 193 972 154 972 q 255 948 232 972 q 278 888 278 924 l 278 85 q 254 24 278 49 q 190 0 231 0 m 572 -144 q 553 -205 572 -175 q 503 -255 535 -235 q 431 -275 471 -275 q 380 -260 396 -275 q 364 -231 364 -244 q 374 -205 364 -211 q 393 -199 383 -199 q 412 -202 400 -199 q 435 -206 424 -206 q 460 -195 450 -206 q 469 -167 469 -185 q 456 -149 469 -149 q 442 -155 446 -149 q 418 -161 438 -161 q 382 -146 396 -161 q 368 -104 368 -131 q 394 -55 368 -71 q 463 -39 421 -39 q 541 -67 510 -39 q 572 -144 572 -94 z "},"L":{"ha":781,"x_min":104,"x_max":725,"o":"m 640 163 q 701 140 676 163 q 725 81 725 117 q 701 23 725 46 q 640 0 676 0 l 189 0 q 128 24 153 0 q 104 85 104 49 l 104 888 q 129 948 104 924 q 193 972 154 972 q 252 948 226 972 q 278 888 278 924 l 278 139 l 247 163 l 640 163 z "},"Ǉ":{"ha":1547,"x_min":104,"x_max":1443,"o":"m 640 163 q 701 140 676 163 q 725 81 725 117 q 701 23 725 46 q 640 0 676 0 l 189 0 q 128 24 153 0 q 104 85 104 49 l 104 888 q 129 948 104 924 q 193 972 154 972 q 252 948 226 972 q 278 888 278 924 l 278 139 l 247 163 l 640 163 m 1111 -14 q 964 18 1032 -14 q 853 110 896 50 q 836 158 836 135 q 863 217 836 193 q 917 240 890 240 q 958 228 938 240 q 994 199 978 215 q 1049 163 1022 174 q 1111 153 1076 153 q 1189 174 1153 153 q 1247 229 1225 194 q 1269 304 1269 264 l 1269 888 q 1296 948 1269 924 q 1357 972 1322 972 q 1419 948 1396 972 q 1443 888 1443 924 l 1443 304 q 1399 147 1443 219 q 1279 31 1354 75 q 1111 -14 1204 -14 z "},"Ĺ":{"ha":781,"x_min":104,"x_max":725,"o":"m 640 163 q 701 140 676 163 q 725 81 725 117 q 701 23 725 46 q 640 0 676 0 l 189 0 q 128 24 153 0 q 104 85 104 49 l 104 888 q 129 948 104 924 q 193 972 154 972 q 252 948 226 972 q 278 888 278 924 l 278 139 l 247 163 l 640 163 m 183 1025 q 141 1039 157 1025 q 125 1075 125 1053 q 130 1094 125 1085 q 144 1113 135 1103 l 264 1218 q 297 1240 279 1231 q 332 1249 314 1249 q 381 1231 356 1249 q 406 1181 406 1213 q 392 1140 406 1160 q 354 1107 379 1119 l 215 1033 q 199 1026 207 1028 q 183 1025 190 1025 z "},"Ľ":{"ha":781,"x_min":104,"x_max":725,"o":"m 640 167 q 701 142 676 167 q 725 82 725 118 q 701 24 725 47 q 640 0 676 0 l 189 0 q 128 24 153 0 q 104 85 104 49 l 104 888 q 128 948 104 924 q 189 972 153 972 q 248 948 225 972 q 271 888 271 924 l 271 181 q 285 167 271 167 l 640 167 m 722 801 q 709 745 722 779 q 673 678 696 711 q 621 622 650 644 q 560 600 592 600 q 513 613 532 600 q 493 656 493 625 q 513 694 493 688 q 547 707 533 701 q 576 730 565 717 q 586 763 586 743 q 572 790 586 778 q 533 801 557 801 q 514 799 525 801 q 494 792 503 797 q 470 809 481 799 q 460 843 460 819 q 481 897 460 874 q 533 935 501 921 q 592 949 564 949 q 687 911 651 949 q 722 801 722 874 z "},"Ļ":{"ha":781,"x_min":104,"x_max":725,"o":"m 640 163 q 701 140 676 163 q 725 81 725 117 q 701 23 725 46 q 640 0 676 0 l 189 0 q 128 24 153 0 q 104 85 104 49 l 104 888 q 129 948 104 924 q 193 972 154 972 q 252 948 226 972 q 278 888 278 924 l 278 139 l 247 163 l 640 163 m 507 -144 q 488 -205 507 -175 q 438 -255 469 -235 q 365 -275 406 -275 q 315 -260 331 -275 q 299 -231 299 -244 q 308 -205 299 -211 q 328 -199 318 -199 q 347 -202 335 -199 q 369 -206 358 -206 q 394 -195 385 -206 q 404 -167 404 -185 q 390 -149 404 -149 q 376 -155 381 -149 q 353 -161 372 -161 q 317 -146 331 -161 q 303 -104 303 -131 q 329 -55 303 -71 q 397 -39 356 -39 q 476 -67 444 -39 q 507 -144 507 -94 z "},"Ŀ":{"ha":753,"x_min":104,"x_max":725,"o":"m 640 163 q 701 140 676 163 q 725 81 725 117 q 701 23 725 46 q 640 0 676 0 l 189 0 q 128 24 153 0 q 104 85 104 49 l 104 888 q 129 948 104 924 q 193 972 154 972 q 252 948 226 972 q 278 888 278 924 l 278 139 l 247 163 l 640 163 m 544 456 q 483 477 504 456 q 461 539 461 499 l 461 563 q 483 624 461 603 q 544 646 504 646 l 563 646 q 624 624 603 646 q 646 563 646 603 l 646 539 q 624 477 646 499 q 563 456 603 456 l 544 456 z "},"Ḷ":{"ha":781,"x_min":104,"x_max":725,"o":"m 640 163 q 701 140 676 163 q 725 81 725 117 q 701 23 725 46 q 640 0 676 0 l 189 0 q 128 24 153 0 q 104 85 104 49 l 104 888 q 129 948 104 924 q 193 972 154 972 q 252 948 226 972 q 278 888 278 924 l 278 139 l 247 163 l 640 163 m 388 -204 q 322 -189 342 -204 q 303 -135 303 -174 l 303 -108 q 324 -53 303 -68 q 388 -39 346 -39 q 458 -53 439 -39 q 478 -108 478 -68 l 478 -135 q 457 -190 478 -175 q 388 -204 436 -204 z "},"ǈ":{"ha":1163,"x_min":104,"x_max":1061,"o":"m 640 163 q 701 140 676 163 q 725 81 725 117 q 701 23 725 46 q 640 0 676 0 l 189 0 q 128 24 153 0 q 104 85 104 49 l 104 888 q 129 948 104 924 q 193 972 154 972 q 252 948 226 972 q 278 888 278 924 l 278 139 l 247 163 l 640 163 z "},"Ḻ":{"ha":781,"x_min":104,"x_max":725,"o":"m 640 163 q 701 140 676 163 q 725 81 725 117 q 701 23 725 46 q 640 0 676 0 l 189 0 q 128 24 153 0 q 104 85 104 49 l 104 888 q 129 948 104 924 q 193 972 154 972 q 252 948 226 972 q 278 888 278 924 l 278 139 l 247 163 l 640 163 m 236 -211 q 167 -149 167 -211 q 236 -87 167 -87 l 572 -87 q 642 -149 642 -87 q 572 -211 642 -211 l 236 -211 z "},"Ł":{"ha":879,"x_min":49,"x_max":824,"o":"m 119 375 q 66 401 83 375 q 49 449 49 426 q 93 510 49 490 l 501 690 q 532 697 518 697 q 584 672 567 697 q 601 625 601 647 q 557 563 601 582 l 149 382 q 134 377 142 379 q 119 375 126 375 m 369 151 l 361 167 l 739 167 q 799 142 775 167 q 824 82 824 118 q 799 24 824 47 q 739 0 775 0 l 288 0 q 227 24 251 0 q 203 85 203 49 l 203 888 q 227 948 203 924 q 288 972 251 972 q 347 948 324 972 q 369 888 369 924 l 369 151 z "},"M":{"ha":1138,"x_min":104,"x_max":1033,"o":"m 192 974 q 233 963 211 974 q 265 936 254 953 l 603 417 l 533 419 l 879 936 q 947 974 906 974 q 1007 950 981 974 q 1033 889 1033 926 l 1033 85 q 1010 24 1033 49 q 947 0 986 0 q 884 24 908 0 q 860 85 860 49 l 860 739 l 914 726 l 631 294 q 599 268 618 279 q 561 258 581 257 q 524 268 543 257 q 493 294 506 279 l 228 714 l 264 788 l 264 85 q 242 24 264 49 q 183 0 219 0 q 126 24 149 0 q 104 85 104 49 l 104 889 q 130 949 104 924 q 192 974 156 974 z "},"Ṃ":{"ha":1138,"x_min":104,"x_max":1033,"o":"m 192 974 q 233 963 211 974 q 265 936 254 953 l 603 417 l 533 419 l 879 936 q 947 974 906 974 q 1007 950 981 974 q 1033 889 1033 926 l 1033 85 q 1010 24 1033 49 q 947 0 986 0 q 884 24 908 0 q 860 85 860 49 l 860 739 l 914 726 l 631 294 q 599 268 618 279 q 561 258 581 257 q 524 268 543 257 q 493 294 506 279 l 228 714 l 264 788 l 264 85 q 242 24 264 49 q 183 0 219 0 q 126 24 149 0 q 104 85 104 49 l 104 889 q 130 949 104 924 q 192 974 156 974 m 567 -204 q 501 -189 521 -204 q 482 -135 482 -174 l 482 -108 q 503 -53 482 -68 q 567 -39 525 -39 q 638 -53 618 -39 q 657 -108 657 -68 l 657 -135 q 636 -190 657 -175 q 567 -204 615 -204 z "},"N":{"ha":1021,"x_min":104,"x_max":917,"o":"m 842 972 q 896 950 875 972 q 917 894 917 928 l 917 85 q 892 24 917 49 q 832 0 868 0 q 795 6 814 0 q 767 24 776 13 l 221 717 l 257 739 l 257 78 q 235 22 257 44 q 179 0 214 0 q 125 22 146 0 q 104 78 104 44 l 104 888 q 128 948 104 924 q 189 972 153 972 q 229 965 208 972 q 260 942 250 957 l 789 267 l 765 250 l 765 894 q 786 950 765 928 q 842 972 807 972 z "},"Ǌ":{"ha":1788,"x_min":104,"x_max":1683,"o":"m 842 972 q 896 950 875 972 q 917 894 917 928 l 917 85 q 892 24 917 49 q 832 0 868 0 q 795 6 814 0 q 767 24 776 13 l 221 717 l 257 739 l 257 78 q 235 22 257 44 q 179 0 214 0 q 125 22 146 0 q 104 78 104 44 l 104 888 q 128 948 104 924 q 189 972 153 972 q 229 965 208 972 q 260 942 250 957 l 789 267 l 765 250 l 765 894 q 786 950 765 928 q 842 972 807 972 m 1351 -14 q 1204 18 1272 -14 q 1093 110 1136 50 q 1076 158 1076 135 q 1103 217 1076 193 q 1157 240 1131 240 q 1198 228 1178 240 q 1235 199 1218 215 q 1290 163 1263 174 q 1351 153 1317 153 q 1429 174 1393 153 q 1488 229 1465 194 q 1510 304 1510 264 l 1510 888 q 1536 948 1510 924 q 1597 972 1563 972 q 1660 948 1636 972 q 1683 888 1683 924 l 1683 304 q 1639 147 1683 219 q 1519 31 1594 75 q 1351 -14 1444 -14 z "},"Ń":{"ha":1021,"x_min":104,"x_max":917,"o":"m 842 972 q 896 950 875 972 q 917 894 917 928 l 917 85 q 892 24 917 49 q 832 0 868 0 q 795 6 814 0 q 767 24 776 13 l 221 717 l 257 739 l 257 78 q 235 22 257 44 q 179 0 214 0 q 125 22 146 0 q 104 78 104 44 l 104 888 q 128 948 104 924 q 189 972 153 972 q 229 965 208 972 q 260 942 250 957 l 789 267 l 765 250 l 765 894 q 786 950 765 928 q 842 972 807 972 m 513 1025 q 470 1039 486 1025 q 454 1075 454 1053 q 459 1094 454 1085 q 474 1113 464 1103 l 593 1218 q 626 1240 608 1231 q 661 1249 643 1249 q 710 1231 685 1249 q 735 1181 735 1213 q 722 1140 735 1160 q 683 1107 708 1119 l 544 1033 q 528 1026 536 1028 q 513 1025 519 1025 z "},"Ň":{"ha":1021,"x_min":104,"x_max":917,"o":"m 842 972 q 896 950 875 972 q 917 894 917 928 l 917 85 q 892 24 917 49 q 832 0 868 0 q 795 6 814 0 q 767 24 776 13 l 221 717 l 257 739 l 257 78 q 235 22 257 44 q 179 0 214 0 q 125 22 146 0 q 104 78 104 44 l 104 888 q 128 948 104 924 q 189 972 153 972 q 229 965 208 972 q 260 942 250 957 l 789 267 l 765 250 l 765 894 q 786 950 765 928 q 842 972 807 972 m 486 1142 l 603 1217 q 643 1238 626 1232 q 674 1244 660 1244 q 705 1233 693 1244 q 717 1210 717 1222 q 713 1192 717 1200 q 696 1168 708 1183 l 608 1068 q 571 1038 590 1049 q 524 1028 551 1028 l 501 1028 q 454 1038 474 1028 q 417 1068 435 1049 l 329 1168 q 313 1192 317 1183 q 308 1210 308 1200 q 321 1233 308 1222 q 351 1244 333 1244 q 422 1217 379 1244 l 539 1142 l 486 1142 z "},"Ņ":{"ha":1021,"x_min":104,"x_max":917,"o":"m 842 972 q 896 950 875 972 q 917 894 917 928 l 917 85 q 892 24 917 49 q 832 0 868 0 q 795 6 814 0 q 767 24 776 13 l 221 717 l 257 739 l 257 78 q 235 22 257 44 q 179 0 214 0 q 125 22 146 0 q 104 78 104 44 l 104 888 q 128 948 104 924 q 189 972 153 972 q 229 965 208 972 q 260 942 250 957 l 789 267 l 765 250 l 765 894 q 786 950 765 928 q 842 972 807 972 m 628 -144 q 609 -205 628 -175 q 558 -255 590 -235 q 486 -275 526 -275 q 435 -260 451 -275 q 419 -231 419 -244 q 429 -205 419 -211 q 449 -199 439 -199 q 467 -202 456 -199 q 490 -206 479 -206 q 515 -195 506 -206 q 525 -167 525 -185 q 511 -149 525 -149 q 497 -155 501 -149 q 474 -161 493 -161 q 438 -146 451 -161 q 424 -104 424 -131 q 450 -55 424 -71 q 518 -39 476 -39 q 597 -67 565 -39 q 628 -144 628 -94 z "},"Ṅ":{"ha":1021,"x_min":104,"x_max":917,"o":"m 842 972 q 896 950 875 972 q 917 894 917 928 l 917 85 q 892 24 917 49 q 832 0 868 0 q 795 6 814 0 q 767 24 776 13 l 221 717 l 257 739 l 257 78 q 235 22 257 44 q 179 0 214 0 q 125 22 146 0 q 104 78 104 44 l 104 888 q 128 948 104 924 q 189 972 153 972 q 229 965 208 972 q 260 942 250 957 l 789 267 l 765 250 l 765 894 q 786 950 765 928 q 842 972 807 972 m 508 1028 q 443 1043 463 1028 q 424 1097 424 1058 l 424 1124 q 445 1178 424 1164 q 510 1193 467 1193 q 579 1178 560 1193 q 599 1124 599 1164 l 599 1097 q 578 1042 599 1057 q 508 1028 557 1028 z "},"Ṇ":{"ha":1021,"x_min":104,"x_max":917,"o":"m 842 972 q 896 950 875 972 q 917 894 917 928 l 917 85 q 892 24 917 49 q 832 0 868 0 q 795 6 814 0 q 767 24 776 13 l 221 717 l 257 739 l 257 78 q 235 22 257 44 q 179 0 214 0 q 125 22 146 0 q 104 78 104 44 l 104 888 q 128 948 104 924 q 189 972 153 972 q 229 965 208 972 q 260 942 250 957 l 789 267 l 765 250 l 765 894 q 786 950 765 928 q 842 972 807 972 m 508 -204 q 443 -189 463 -204 q 424 -135 424 -174 l 424 -108 q 445 -53 424 -68 q 508 -39 467 -39 q 579 -53 560 -39 q 599 -108 599 -68 l 599 -135 q 578 -190 599 -175 q 508 -204 557 -204 z "},"Ŋ":{"ha":1049,"x_min":104,"x_max":944,"o":"m 699 -278 q 635 -258 660 -278 q 610 -206 610 -239 q 633 -149 610 -172 q 690 -125 656 -126 q 739 -114 719 -124 q 768 -83 758 -104 q 778 -26 778 -61 l 778 75 l 786 39 l 249 693 l 271 692 l 271 85 q 247 24 271 49 q 186 0 222 0 q 128 24 151 0 q 104 85 104 49 l 104 888 q 128 948 104 924 q 189 972 153 972 q 227 964 210 972 q 258 936 244 956 l 803 271 l 778 260 l 778 888 q 802 948 778 924 q 863 972 826 972 q 922 948 899 972 q 944 888 944 924 l 944 69 l 944 -19 q 908 -175 944 -118 q 816 -255 872 -232 q 699 -278 760 -278 z "},"Ɲ":{"ha":1021,"x_min":-35,"x_max":917,"o":"m 42 -274 q -13 -249 8 -272 q -35 -194 -35 -226 q -17 -132 -35 -151 q 36 -103 0 -112 q 83 -72 69 -93 q 101 -24 97 -51 q 104 35 104 4 l 104 888 q 128 948 104 924 q 189 972 153 972 q 229 965 208 972 q 260 942 250 957 l 789 267 l 758 250 l 758 894 q 781 950 758 928 q 839 972 804 972 q 894 950 872 972 q 917 894 917 928 l 917 85 q 892 24 917 49 q 832 0 868 0 q 795 6 814 0 q 767 24 776 13 l 221 717 l 263 739 l 263 -14 q 242 -140 263 -90 q 190 -217 221 -189 q 128 -256 160 -244 q 72 -271 96 -268 q 42 -274 47 -274 z "},"ǋ":{"ha":1403,"x_min":104,"x_max":1301,"o":"m 842 972 q 896 950 875 972 q 917 894 917 928 l 917 85 q 892 24 917 49 q 832 0 868 0 q 795 6 814 0 q 767 24 776 13 l 221 717 l 257 739 l 257 78 q 235 22 257 44 q 179 0 214 0 q 125 22 146 0 q 104 78 104 44 l 104 888 q 128 948 104 924 q 189 972 153 972 q 229 965 208 972 q 260 942 250 957 l 789 267 l 765 250 l 765 894 q 786 950 765 928 q 842 972 807 972 z "},"Ṉ":{"ha":1021,"x_min":104,"x_max":917,"o":"m 842 972 q 896 950 875 972 q 917 894 917 928 l 917 85 q 892 24 917 49 q 832 0 868 0 q 795 6 814 0 q 767 24 776 13 l 221 717 l 257 739 l 257 78 q 235 22 257 44 q 179 0 214 0 q 125 22 146 0 q 104 78 104 44 l 104 888 q 128 948 104 924 q 189 972 153 972 q 229 965 208 972 q 260 942 250 957 l 789 267 l 765 250 l 765 894 q 786 950 765 928 q 842 972 807 972 m 357 -211 q 288 -149 288 -211 q 357 -87 288 -87 l 693 -87 q 763 -149 763 -87 q 693 -211 763 -211 l 357 -211 z "},"Ñ":{"ha":1021,"x_min":104,"x_max":917,"o":"m 842 972 q 896 950 875 972 q 917 894 917 928 l 917 85 q 892 24 917 49 q 832 0 868 0 q 795 6 814 0 q 767 24 776 13 l 221 717 l 257 739 l 257 78 q 235 22 257 44 q 179 0 214 0 q 125 22 146 0 q 104 78 104 44 l 104 888 q 128 948 104 924 q 189 972 153 972 q 229 965 208 972 q 260 942 250 957 l 789 267 l 765 250 l 765 894 q 786 950 765 928 q 842 972 807 972 m 324 1022 q 270 1049 293 1022 q 247 1121 247 1076 q 287 1204 247 1165 q 401 1243 326 1243 q 489 1222 449 1243 q 563 1178 529 1200 q 622 1157 597 1157 q 646 1165 638 1157 q 650 1186 654 1172 q 657 1236 640 1218 q 699 1254 674 1254 q 753 1228 731 1254 q 775 1158 775 1201 q 761 1106 775 1135 q 718 1055 747 1076 q 643 1033 689 1033 q 546 1055 592 1033 q 463 1098 500 1076 q 400 1119 425 1119 q 377 1112 386 1119 q 372 1090 368 1104 q 365 1041 382 1060 q 324 1022 349 1022 z "},"O":{"ha":1054,"x_min":56,"x_max":999,"o":"m 999 486 q 964 292 999 382 q 866 133 929 201 q 716 25 803 64 q 526 -14 629 -14 q 338 25 424 -14 q 188 133 251 64 q 90 292 125 201 q 56 486 56 382 q 90 681 56 590 q 188 840 125 771 q 338 947 251 908 q 526 986 424 986 q 716 947 629 986 q 866 840 803 908 q 964 681 929 771 q 999 486 999 590 m 818 486 q 781 655 818 579 q 678 775 743 731 q 526 819 613 819 q 375 775 440 819 q 273 656 310 731 q 236 486 236 581 q 273 317 236 393 q 375 197 310 242 q 526 153 440 153 q 678 197 613 153 q 781 317 743 242 q 818 486 818 393 z "},"Ó":{"ha":1054,"x_min":56,"x_max":999,"o":"m 999 486 q 964 292 999 382 q 866 133 929 201 q 716 25 803 64 q 526 -14 629 -14 q 338 25 424 -14 q 188 133 251 64 q 90 292 125 201 q 56 486 56 382 q 90 681 56 590 q 188 840 125 771 q 338 947 251 908 q 526 986 424 986 q 716 947 629 986 q 866 840 803 908 q 964 681 929 771 q 999 486 999 590 m 818 486 q 781 655 818 579 q 678 775 743 731 q 526 819 613 819 q 375 775 440 819 q 273 656 310 731 q 236 486 236 581 q 273 317 236 393 q 375 197 310 242 q 526 153 440 153 q 678 197 613 153 q 781 317 743 242 q 818 486 818 393 m 529 1025 q 487 1039 503 1025 q 471 1075 471 1053 q 476 1094 471 1085 q 490 1113 481 1103 l 610 1218 q 642 1240 625 1231 q 678 1249 660 1249 q 726 1231 701 1249 q 751 1181 751 1213 q 738 1140 751 1160 q 700 1107 725 1119 l 561 1033 q 544 1026 553 1028 q 529 1025 536 1025 z "},"Ŏ":{"ha":1054,"x_min":56,"x_max":999,"o":"m 999 486 q 964 292 999 382 q 866 133 929 201 q 716 25 803 64 q 526 -14 629 -14 q 338 25 424 -14 q 188 133 251 64 q 90 292 125 201 q 56 486 56 382 q 90 681 56 590 q 188 840 125 771 q 338 947 251 908 q 526 986 424 986 q 716 947 629 986 q 866 840 803 908 q 964 681 929 771 q 999 486 999 590 m 818 486 q 781 655 818 579 q 678 775 743 731 q 526 819 613 819 q 375 775 440 819 q 273 656 310 731 q 236 486 236 581 q 273 317 236 393 q 375 197 310 242 q 526 153 440 153 q 678 197 613 153 q 781 317 743 242 q 818 486 818 393 m 528 1053 q 392 1087 450 1053 q 308 1182 335 1121 q 308 1238 294 1217 q 349 1258 322 1258 q 395 1245 378 1258 q 432 1208 413 1232 q 470 1181 447 1190 q 528 1171 493 1171 q 624 1208 594 1171 q 660 1245 643 1232 q 707 1258 678 1258 q 749 1238 735 1258 q 749 1185 763 1218 q 665 1087 722 1121 q 528 1053 607 1053 z "},"Ǒ":{"ha":1054,"x_min":56,"x_max":999,"o":"m 999 486 q 964 292 999 382 q 866 133 929 201 q 716 25 803 64 q 526 -14 629 -14 q 338 25 424 -14 q 188 133 251 64 q 90 292 125 201 q 56 486 56 382 q 90 681 56 590 q 188 840 125 771 q 338 947 251 908 q 526 986 424 986 q 716 947 629 986 q 866 840 803 908 q 964 681 929 771 q 999 486 999 590 m 818 486 q 781 655 818 579 q 678 775 743 731 q 526 819 613 819 q 375 775 440 819 q 273 656 310 731 q 236 486 236 581 q 273 317 236 393 q 375 197 310 242 q 526 153 440 153 q 678 197 613 153 q 781 317 743 242 q 818 486 818 393 m 503 1142 l 619 1217 q 660 1238 643 1232 q 690 1244 676 1244 q 722 1233 710 1244 q 733 1210 733 1222 q 729 1192 733 1200 q 713 1168 725 1183 l 625 1068 q 588 1038 607 1049 q 540 1028 568 1028 l 518 1028 q 471 1038 490 1028 q 433 1068 451 1049 l 346 1168 q 329 1192 333 1183 q 325 1210 325 1200 q 338 1233 325 1222 q 368 1244 350 1244 q 439 1217 396 1244 l 556 1142 l 503 1142 z "},"Ô":{"ha":1054,"x_min":56,"x_max":999,"o":"m 999 486 q 964 292 999 382 q 866 133 929 201 q 716 25 803 64 q 526 -14 629 -14 q 338 25 424 -14 q 188 133 251 64 q 90 292 125 201 q 56 486 56 382 q 90 681 56 590 q 188 840 125 771 q 338 947 251 908 q 526 986 424 986 q 716 947 629 986 q 866 840 803 908 q 964 681 929 771 q 999 486 999 590 m 818 486 q 781 655 818 579 q 678 775 743 731 q 526 819 613 819 q 375 775 440 819 q 273 656 310 731 q 236 486 236 581 q 273 317 236 393 q 375 197 310 242 q 526 153 440 153 q 678 197 613 153 q 781 317 743 242 q 818 486 818 393 m 553 1126 l 436 1058 q 396 1036 413 1044 q 365 1028 379 1028 q 335 1039 347 1028 q 322 1063 322 1050 q 326 1082 322 1074 q 343 1104 331 1090 l 431 1204 q 468 1234 449 1224 q 515 1244 488 1244 l 538 1244 q 585 1234 565 1244 q 622 1204 604 1224 l 710 1104 q 726 1082 722 1090 q 731 1063 731 1074 q 719 1039 731 1050 q 688 1028 707 1028 q 657 1036 674 1028 q 617 1058 640 1044 l 500 1126 l 553 1126 z "},"Ố":{"ha":1054,"x_min":56,"x_max":999,"o":"m 999 486 q 964 292 999 382 q 866 133 929 201 q 716 25 803 64 q 526 -14 629 -14 q 338 25 424 -14 q 188 133 251 64 q 90 292 125 201 q 56 486 56 382 q 90 681 56 590 q 188 840 125 771 q 338 947 251 908 q 526 986 424 986 q 716 947 629 986 q 866 840 803 908 q 964 681 929 771 q 999 486 999 590 m 818 486 q 781 655 818 579 q 678 775 743 731 q 526 819 613 819 q 375 775 440 819 q 273 656 310 731 q 236 486 236 581 q 273 317 236 393 q 375 197 310 242 q 526 153 440 153 q 678 197 613 153 q 781 317 743 242 q 818 486 818 393 m 553 1126 l 436 1058 q 396 1036 413 1044 q 365 1028 379 1028 q 335 1039 347 1028 q 322 1063 322 1050 q 326 1082 322 1074 q 343 1104 331 1090 l 431 1204 q 468 1234 449 1224 q 515 1244 488 1244 l 538 1244 q 585 1234 565 1244 q 622 1204 604 1224 l 710 1104 q 726 1082 722 1090 q 731 1063 731 1074 q 719 1039 731 1050 q 688 1028 707 1028 q 657 1036 674 1028 q 617 1058 640 1044 l 500 1126 l 553 1126 m 760 1142 q 717 1156 733 1142 q 701 1192 701 1169 q 706 1210 701 1201 q 721 1229 711 1219 l 840 1335 q 873 1356 856 1347 q 908 1365 890 1365 q 957 1347 932 1365 q 982 1297 982 1329 q 969 1256 982 1276 q 931 1224 956 1236 l 792 1150 q 775 1143 783 1144 q 760 1142 767 1142 z "},"Ộ":{"ha":1054,"x_min":56,"x_max":999,"o":"m 999 486 q 964 292 999 382 q 866 133 929 201 q 716 25 803 64 q 526 -14 629 -14 q 338 25 424 -14 q 188 133 251 64 q 90 292 125 201 q 56 486 56 382 q 90 681 56 590 q 188 840 125 771 q 338 947 251 908 q 526 986 424 986 q 716 947 629 986 q 866 840 803 908 q 964 681 929 771 q 999 486 999 590 m 818 486 q 781 655 818 579 q 678 775 743 731 q 526 819 613 819 q 375 775 440 819 q 273 656 310 731 q 236 486 236 581 q 273 317 236 393 q 375 197 310 242 q 526 153 440 153 q 678 197 613 153 q 781 317 743 242 q 818 486 818 393 m 525 -204 q 460 -189 479 -204 q 440 -135 440 -174 l 440 -108 q 462 -53 440 -68 q 525 -39 483 -39 q 596 -53 576 -39 q 615 -108 615 -68 l 615 -135 q 594 -190 615 -175 q 525 -204 574 -204 m 553 1126 l 436 1058 q 396 1036 413 1044 q 365 1028 379 1028 q 335 1039 347 1028 q 322 1063 322 1050 q 326 1082 322 1074 q 343 1104 331 1090 l 431 1204 q 468 1234 449 1224 q 515 1244 488 1244 l 538 1244 q 585 1234 565 1244 q 622 1204 604 1224 l 710 1104 q 726 1082 722 1090 q 731 1063 731 1074 q 719 1039 731 1050 q 688 1028 707 1028 q 657 1036 674 1028 q 617 1058 640 1044 l 500 1126 l 553 1126 z "},"Ồ":{"ha":1054,"x_min":56,"x_max":999,"o":"m 999 486 q 964 292 999 382 q 866 133 929 201 q 716 25 803 64 q 526 -14 629 -14 q 338 25 424 -14 q 188 133 251 64 q 90 292 125 201 q 56 486 56 382 q 90 681 56 590 q 188 840 125 771 q 338 947 251 908 q 526 986 424 986 q 716 947 629 986 q 866 840 803 908 q 964 681 929 771 q 999 486 999 590 m 818 486 q 781 655 818 579 q 678 775 743 731 q 526 819 613 819 q 375 775 440 819 q 273 656 310 731 q 236 486 236 581 q 273 317 236 393 q 375 197 310 242 q 526 153 440 153 q 678 197 613 153 q 781 317 743 242 q 818 486 818 393 m 553 1126 l 436 1058 q 396 1036 413 1044 q 365 1028 379 1028 q 335 1039 347 1028 q 322 1063 322 1050 q 326 1082 322 1074 q 343 1104 331 1090 l 431 1204 q 468 1234 449 1224 q 515 1244 488 1244 l 538 1244 q 585 1234 565 1244 q 622 1204 604 1224 l 710 1104 q 726 1082 722 1090 q 731 1063 731 1074 q 719 1039 731 1050 q 688 1028 707 1028 q 657 1036 674 1028 q 617 1058 640 1044 l 500 1126 l 553 1126 m 761 1208 q 746 1210 754 1208 q 729 1217 738 1213 l 590 1290 q 539 1364 539 1318 q 564 1414 539 1396 q 613 1432 589 1432 q 649 1423 632 1432 q 681 1401 667 1414 l 800 1296 q 815 1277 811 1286 q 819 1258 819 1268 q 803 1222 819 1236 q 761 1208 788 1208 z "},"Ổ":{"ha":1054,"x_min":56,"x_max":999,"o":"m 999 486 q 964 292 999 382 q 866 133 929 201 q 716 25 803 64 q 526 -14 629 -14 q 338 25 424 -14 q 188 133 251 64 q 90 292 125 201 q 56 486 56 382 q 90 681 56 590 q 188 840 125 771 q 338 947 251 908 q 526 986 424 986 q 716 947 629 986 q 866 840 803 908 q 964 681 929 771 q 999 486 999 590 m 818 486 q 781 655 818 579 q 678 775 743 731 q 526 819 613 819 q 375 775 440 819 q 273 656 310 731 q 236 486 236 581 q 273 317 236 393 q 375 197 310 242 q 526 153 440 153 q 678 197 613 153 q 781 317 743 242 q 818 486 818 393 z "},"Ỗ":{"ha":1054,"x_min":56,"x_max":999,"o":"m 999 486 q 964 292 999 382 q 866 133 929 201 q 716 25 803 64 q 526 -14 629 -14 q 338 25 424 -14 q 188 133 251 64 q 90 292 125 201 q 56 486 56 382 q 90 681 56 590 q 188 840 125 771 q 338 947 251 908 q 526 986 424 986 q 716 947 629 986 q 866 840 803 908 q 964 681 929 771 q 999 486 999 590 m 818 486 q 781 655 818 579 q 678 775 743 731 q 526 819 613 819 q 375 775 440 819 q 273 656 310 731 q 236 486 236 581 q 273 317 236 393 q 375 197 310 242 q 526 153 440 153 q 678 197 613 153 q 781 317 743 242 q 818 486 818 393 m 553 1126 l 436 1058 q 396 1036 413 1044 q 365 1028 379 1028 q 335 1039 347 1028 q 322 1063 322 1050 q 326 1082 322 1074 q 343 1104 331 1090 l 431 1204 q 468 1234 449 1224 q 515 1244 488 1244 l 538 1244 q 585 1234 565 1244 q 622 1204 604 1224 l 710 1104 q 726 1082 722 1090 q 731 1063 731 1074 q 719 1039 731 1050 q 688 1028 707 1028 q 657 1036 674 1028 q 617 1058 640 1044 l 500 1126 l 553 1126 m 353 1240 q 299 1267 322 1240 q 276 1339 276 1294 q 316 1422 276 1383 q 431 1461 356 1461 q 518 1440 478 1461 q 592 1397 558 1418 q 651 1375 626 1375 q 675 1383 667 1375 q 679 1404 683 1390 q 686 1454 669 1436 q 728 1472 703 1472 q 782 1446 760 1472 q 804 1376 804 1419 q 790 1324 804 1353 q 747 1273 776 1294 q 672 1251 718 1251 q 575 1273 621 1251 q 492 1316 529 1294 q 429 1338 454 1338 q 406 1330 415 1338 q 401 1308 397 1322 q 394 1259 411 1278 q 353 1240 378 1240 z "},"Ȍ":{"ha":1054,"x_min":56,"x_max":999,"o":"m 999 486 q 964 292 999 382 q 866 133 929 201 q 716 25 803 64 q 526 -14 629 -14 q 338 25 424 -14 q 188 133 251 64 q 90 292 125 201 q 56 486 56 382 q 90 681 56 590 q 188 840 125 771 q 338 947 251 908 q 526 986 424 986 q 716 947 629 986 q 866 840 803 908 q 964 681 929 771 q 999 486 999 590 m 818 486 q 781 655 818 579 q 678 775 743 731 q 526 819 613 819 q 375 775 440 819 q 273 656 310 731 q 236 486 236 581 q 273 317 236 393 q 375 197 310 242 q 526 153 440 153 q 678 197 613 153 q 781 317 743 242 q 818 486 818 393 m 389 1044 q 374 1047 382 1044 q 357 1053 365 1049 l 218 1126 q 167 1200 167 1154 q 192 1250 167 1232 q 240 1268 217 1268 q 277 1259 260 1268 q 308 1238 294 1250 l 428 1132 q 443 1113 439 1122 q 447 1094 447 1104 q 431 1058 447 1072 q 389 1044 415 1044 m 675 1058 q 660 1060 668 1058 q 643 1067 651 1063 l 504 1140 q 453 1214 453 1168 q 478 1264 453 1246 q 526 1282 503 1282 q 563 1273 546 1282 q 594 1251 581 1264 l 714 1146 q 729 1127 725 1136 q 733 1108 733 1118 q 717 1072 733 1086 q 675 1058 701 1058 z "},"Ö":{"ha":1054,"x_min":56,"x_max":999,"o":"m 999 486 q 964 292 999 382 q 866 133 929 201 q 716 25 803 64 q 526 -14 629 -14 q 338 25 424 -14 q 188 133 251 64 q 90 292 125 201 q 56 486 56 382 q 90 681 56 590 q 188 840 125 771 q 338 947 251 908 q 526 986 424 986 q 716 947 629 986 q 866 840 803 908 q 964 681 929 771 q 999 486 999 590 m 818 486 q 781 655 818 579 q 678 775 743 731 q 526 819 613 819 q 375 775 440 819 q 273 656 310 731 q 236 486 236 581 q 273 317 236 393 q 375 197 310 242 q 526 153 440 153 q 678 197 613 153 q 781 317 743 242 q 818 486 818 393 m 664 1056 q 601 1071 621 1056 q 581 1125 581 1086 l 581 1150 q 601 1205 581 1190 q 664 1219 622 1219 q 731 1204 711 1219 q 751 1150 751 1189 l 751 1125 q 731 1070 751 1085 q 664 1056 710 1056 m 388 1056 q 324 1071 344 1056 q 304 1125 304 1086 l 304 1150 q 326 1205 304 1190 q 389 1219 347 1219 q 455 1204 435 1219 q 475 1150 475 1189 l 475 1125 q 454 1070 475 1085 q 388 1056 433 1056 z "},"Ȫ":{"ha":1054,"x_min":56,"x_max":999,"o":"m 999 486 q 964 292 999 382 q 866 133 929 201 q 716 25 803 64 q 526 -14 629 -14 q 338 25 424 -14 q 188 133 251 64 q 90 292 125 201 q 56 486 56 382 q 90 681 56 590 q 188 840 125 771 q 338 947 251 908 q 526 986 424 986 q 716 947 629 986 q 866 840 803 908 q 964 681 929 771 q 999 486 999 590 m 818 486 q 781 655 818 579 q 678 775 743 731 q 526 819 613 819 q 375 775 440 819 q 273 656 310 731 q 236 486 236 581 q 273 317 236 393 q 375 197 310 242 q 526 153 440 153 q 678 197 613 153 q 781 317 743 242 q 818 486 818 393 m 664 1056 q 601 1071 621 1056 q 581 1125 581 1086 l 581 1150 q 601 1205 581 1190 q 664 1219 622 1219 q 731 1204 711 1219 q 751 1150 751 1189 l 751 1125 q 731 1070 751 1085 q 664 1056 710 1056 m 388 1056 q 324 1071 344 1056 q 304 1125 304 1086 l 304 1150 q 326 1205 304 1190 q 389 1219 347 1219 q 455 1204 435 1219 q 475 1150 475 1189 l 475 1125 q 454 1070 475 1085 q 388 1056 433 1056 m 360 1317 q 290 1379 290 1317 q 360 1440 290 1440 l 696 1440 q 765 1379 765 1440 q 696 1317 765 1317 l 360 1317 z "},"Ȱ":{"ha":1054,"x_min":56,"x_max":999,"o":"m 999 486 q 964 292 999 382 q 866 133 929 201 q 716 25 803 64 q 526 -14 629 -14 q 338 25 424 -14 q 188 133 251 64 q 90 292 125 201 q 56 486 56 382 q 90 681 56 590 q 188 840 125 771 q 338 947 251 908 q 526 986 424 986 q 716 947 629 986 q 866 840 803 908 q 964 681 929 771 q 999 486 999 590 m 818 486 q 781 655 818 579 q 678 775 743 731 q 526 819 613 819 q 375 775 440 819 q 273 656 310 731 q 236 486 236 581 q 273 317 236 393 q 375 197 310 242 q 526 153 440 153 q 678 197 613 153 q 781 317 743 242 q 818 486 818 393 m 525 1028 q 460 1043 479 1028 q 440 1097 440 1058 l 440 1124 q 462 1178 440 1164 q 526 1193 483 1193 q 596 1178 576 1193 q 615 1124 615 1164 l 615 1097 q 594 1042 615 1057 q 525 1028 574 1028 m 360 1318 q 290 1381 290 1318 q 360 1442 290 1442 l 696 1442 q 765 1381 765 1442 q 696 1318 765 1318 l 360 1318 z "},"Ọ":{"ha":1054,"x_min":56,"x_max":999,"o":"m 999 486 q 964 292 999 382 q 866 133 929 201 q 716 25 803 64 q 526 -14 629 -14 q 338 25 424 -14 q 188 133 251 64 q 90 292 125 201 q 56 486 56 382 q 90 681 56 590 q 188 840 125 771 q 338 947 251 908 q 526 986 424 986 q 716 947 629 986 q 866 840 803 908 q 964 681 929 771 q 999 486 999 590 m 818 486 q 781 655 818 579 q 678 775 743 731 q 526 819 613 819 q 375 775 440 819 q 273 656 310 731 q 236 486 236 581 q 273 317 236 393 q 375 197 310 242 q 526 153 440 153 q 678 197 613 153 q 781 317 743 242 q 818 486 818 393 m 525 -204 q 460 -189 479 -204 q 440 -135 440 -174 l 440 -108 q 462 -53 440 -68 q 525 -39 483 -39 q 596 -53 576 -39 q 615 -108 615 -68 l 615 -135 q 594 -190 615 -175 q 525 -204 574 -204 z "},"Ò":{"ha":1054,"x_min":56,"x_max":999,"o":"m 999 486 q 964 292 999 382 q 866 133 929 201 q 716 25 803 64 q 526 -14 629 -14 q 338 25 424 -14 q 188 133 251 64 q 90 292 125 201 q 56 486 56 382 q 90 681 56 590 q 188 840 125 771 q 338 947 251 908 q 526 986 424 986 q 716 947 629 986 q 866 840 803 908 q 964 681 929 771 q 999 486 999 590 m 818 486 q 781 655 818 579 q 678 775 743 731 q 526 819 613 819 q 375 775 440 819 q 273 656 310 731 q 236 486 236 581 q 273 317 236 393 q 375 197 310 242 q 526 153 440 153 q 678 197 613 153 q 781 317 743 242 q 818 486 818 393 m 525 1031 q 510 1033 518 1031 q 493 1039 501 1035 l 354 1113 q 303 1186 303 1140 q 328 1236 303 1218 q 376 1254 353 1254 q 413 1245 396 1254 q 444 1224 431 1236 l 564 1118 q 579 1099 575 1108 q 583 1081 583 1090 q 567 1044 583 1058 q 525 1031 551 1031 z "},"Ỏ":{"ha":1054,"x_min":56,"x_max":999,"o":"m 999 486 q 964 292 999 382 q 866 133 929 201 q 716 25 803 64 q 526 -14 629 -14 q 338 25 424 -14 q 188 133 251 64 q 90 292 125 201 q 56 486 56 382 q 90 681 56 590 q 188 840 125 771 q 338 947 251 908 q 526 986 424 986 q 716 947 629 986 q 866 840 803 908 q 964 681 929 771 q 999 486 999 590 m 818 486 q 781 655 818 579 q 678 775 743 731 q 526 819 613 819 q 375 775 440 819 q 273 656 310 731 q 236 486 236 581 q 273 317 236 393 q 375 197 310 242 q 526 153 440 153 q 678 197 613 153 q 781 317 743 242 q 818 486 818 393 m 393 1289 q 440 1318 415 1307 q 503 1329 465 1329 q 592 1310 561 1329 q 635 1262 624 1290 q 646 1208 646 1233 q 640 1169 646 1186 q 619 1133 633 1151 q 596 1104 606 1117 q 586 1081 586 1092 q 570 1056 586 1064 q 531 1049 554 1049 q 505 1056 518 1049 q 492 1081 492 1063 q 498 1108 492 1094 q 514 1135 504 1121 q 535 1167 525 1150 q 546 1194 546 1183 q 532 1222 546 1213 q 499 1232 518 1232 q 467 1224 481 1232 q 440 1208 453 1217 q 416 1201 431 1201 q 383 1218 401 1200 q 372 1258 365 1238 q 393 1289 379 1278 z "},"Ơ":{"ha":1054,"x_min":56,"x_max":999,"o":"m 999 486 q 964 292 999 382 q 866 133 929 201 q 716 25 803 64 q 526 -14 629 -14 q 338 25 424 -14 q 188 133 251 64 q 90 292 125 201 q 56 486 56 382 q 90 681 56 590 q 188 840 125 771 q 338 947 251 908 q 526 986 424 986 q 716 947 629 986 q 866 840 803 908 q 964 681 929 771 q 999 486 999 590 m 818 486 q 781 655 818 579 q 678 775 743 731 q 526 819 613 819 q 375 775 440 819 q 273 656 310 731 q 236 486 236 581 q 273 317 236 393 q 375 197 310 242 q 526 153 440 153 q 678 197 613 153 q 781 317 743 242 q 818 486 818 393 m 629 829 l 629 968 q 715 989 683 968 q 747 1054 747 1010 q 765 1103 747 1079 q 818 1128 783 1128 q 872 1102 857 1128 q 886 1054 886 1076 q 860 943 886 994 q 777 860 833 892 q 629 829 721 829 z "},"Ớ":{"ha":1054,"x_min":56,"x_max":999,"o":"m 999 486 q 964 292 999 382 q 866 133 929 201 q 716 25 803 64 q 526 -14 629 -14 q 338 25 424 -14 q 188 133 251 64 q 90 292 125 201 q 56 486 56 382 q 90 681 56 590 q 188 840 125 771 q 338 947 251 908 q 526 986 424 986 q 716 947 629 986 q 866 840 803 908 q 964 681 929 771 q 999 486 999 590 m 818 486 q 781 655 818 579 q 678 775 743 731 q 526 819 613 819 q 375 775 440 819 q 273 656 310 731 q 236 486 236 581 q 273 317 236 393 q 375 197 310 242 q 526 153 440 153 q 678 197 613 153 q 781 317 743 242 q 818 486 818 393 m 629 829 l 629 968 q 715 989 683 968 q 747 1054 747 1010 q 765 1103 747 1079 q 818 1128 783 1128 q 872 1102 857 1128 q 886 1054 886 1076 q 860 943 886 994 q 777 860 833 892 q 629 829 721 829 m 529 1025 q 487 1039 503 1025 q 471 1075 471 1053 q 476 1094 471 1085 q 490 1113 481 1103 l 610 1218 q 642 1240 625 1231 q 678 1249 660 1249 q 726 1231 701 1249 q 751 1181 751 1213 q 738 1140 751 1160 q 700 1107 725 1119 l 561 1033 q 544 1026 553 1028 q 529 1025 536 1025 z "},"Ợ":{"ha":1054,"x_min":56,"x_max":999,"o":"m 999 486 q 964 292 999 382 q 866 133 929 201 q 716 25 803 64 q 526 -14 629 -14 q 338 25 424 -14 q 188 133 251 64 q 90 292 125 201 q 56 486 56 382 q 90 681 56 590 q 188 840 125 771 q 338 947 251 908 q 526 986 424 986 q 716 947 629 986 q 866 840 803 908 q 964 681 929 771 q 999 486 999 590 m 818 486 q 781 655 818 579 q 678 775 743 731 q 526 819 613 819 q 375 775 440 819 q 273 656 310 731 q 236 486 236 581 q 273 317 236 393 q 375 197 310 242 q 526 153 440 153 q 678 197 613 153 q 781 317 743 242 q 818 486 818 393 m 629 829 l 629 968 q 715 989 683 968 q 747 1054 747 1010 q 765 1103 747 1079 q 818 1128 783 1128 q 872 1102 857 1128 q 886 1054 886 1076 q 860 943 886 994 q 777 860 833 892 q 629 829 721 829 m 525 -204 q 460 -189 479 -204 q 440 -135 440 -174 l 440 -108 q 462 -53 440 -68 q 525 -39 483 -39 q 596 -53 576 -39 q 615 -108 615 -68 l 615 -135 q 594 -190 615 -175 q 525 -204 574 -204 z "},"Ờ":{"ha":1054,"x_min":56,"x_max":999,"o":"m 999 486 q 964 292 999 382 q 866 133 929 201 q 716 25 803 64 q 526 -14 629 -14 q 338 25 424 -14 q 188 133 251 64 q 90 292 125 201 q 56 486 56 382 q 90 681 56 590 q 188 840 125 771 q 338 947 251 908 q 526 986 424 986 q 716 947 629 986 q 866 840 803 908 q 964 681 929 771 q 999 486 999 590 m 818 486 q 781 655 818 579 q 678 775 743 731 q 526 819 613 819 q 375 775 440 819 q 273 656 310 731 q 236 486 236 581 q 273 317 236 393 q 375 197 310 242 q 526 153 440 153 q 678 197 613 153 q 781 317 743 242 q 818 486 818 393 m 629 829 l 629 968 q 715 989 683 968 q 747 1054 747 1010 q 765 1103 747 1079 q 818 1128 783 1128 q 872 1102 857 1128 q 886 1054 886 1076 q 860 943 886 994 q 777 860 833 892 q 629 829 721 829 m 525 1031 q 510 1033 518 1031 q 493 1039 501 1035 l 354 1113 q 303 1186 303 1140 q 328 1236 303 1218 q 376 1254 353 1254 q 413 1245 396 1254 q 444 1224 431 1236 l 564 1118 q 579 1099 575 1108 q 583 1081 583 1090 q 567 1044 583 1058 q 525 1031 551 1031 z "},"Ở":{"ha":1054,"x_min":56,"x_max":999,"o":"m 999 486 q 964 292 999 382 q 866 133 929 201 q 716 25 803 64 q 526 -14 629 -14 q 338 25 424 -14 q 188 133 251 64 q 90 292 125 201 q 56 486 56 382 q 90 681 56 590 q 188 840 125 771 q 338 947 251 908 q 526 986 424 986 q 716 947 629 986 q 866 840 803 908 q 964 681 929 771 q 999 486 999 590 m 818 486 q 781 655 818 579 q 678 775 743 731 q 526 819 613 819 q 375 775 440 819 q 273 656 310 731 q 236 486 236 581 q 273 317 236 393 q 375 197 310 242 q 526 153 440 153 q 678 197 613 153 q 781 317 743 242 q 818 486 818 393 m 629 829 l 629 968 q 715 989 683 968 q 747 1054 747 1010 q 765 1103 747 1079 q 818 1128 783 1128 q 872 1102 857 1128 q 886 1054 886 1076 q 860 943 886 994 q 777 860 833 892 q 629 829 721 829 m 393 1289 q 440 1318 415 1307 q 503 1329 465 1329 q 592 1310 561 1329 q 635 1262 624 1290 q 646 1208 646 1233 q 640 1169 646 1186 q 619 1133 633 1151 q 596 1104 606 1117 q 586 1081 586 1092 q 570 1056 586 1064 q 531 1049 554 1049 q 505 1056 518 1049 q 492 1081 492 1063 q 498 1108 492 1094 q 514 1135 504 1121 q 535 1167 525 1150 q 546 1194 546 1183 q 532 1222 546 1213 q 499 1232 518 1232 q 467 1224 481 1232 q 440 1208 453 1217 q 416 1201 431 1201 q 383 1218 401 1200 q 372 1258 365 1238 q 393 1289 379 1278 z "},"Ỡ":{"ha":1054,"x_min":56,"x_max":999,"o":"m 999 486 q 964 292 999 382 q 866 133 929 201 q 716 25 803 64 q 526 -14 629 -14 q 338 25 424 -14 q 188 133 251 64 q 90 292 125 201 q 56 486 56 382 q 90 681 56 590 q 188 840 125 771 q 338 947 251 908 q 526 986 424 986 q 716 947 629 986 q 866 840 803 908 q 964 681 929 771 q 999 486 999 590 m 818 486 q 781 655 818 579 q 678 775 743 731 q 526 819 613 819 q 375 775 440 819 q 273 656 310 731 q 236 486 236 581 q 273 317 236 393 q 375 197 310 242 q 526 153 440 153 q 678 197 613 153 q 781 317 743 242 q 818 486 818 393 m 629 829 l 629 968 q 715 989 683 968 q 747 1054 747 1010 q 765 1103 747 1079 q 818 1128 783 1128 q 872 1102 857 1128 q 886 1054 886 1076 q 860 943 886 994 q 777 860 833 892 q 629 829 721 829 m 315 1044 q 262 1072 285 1044 q 239 1143 239 1099 q 278 1226 239 1188 q 393 1265 318 1265 q 481 1244 440 1265 q 555 1201 521 1222 q 614 1179 589 1179 q 638 1187 629 1179 q 642 1208 646 1194 q 649 1258 632 1240 q 690 1276 665 1276 q 744 1250 722 1276 q 767 1181 767 1224 q 753 1128 767 1157 q 710 1077 739 1099 q 635 1056 681 1056 q 538 1077 583 1056 q 454 1120 492 1099 q 392 1142 417 1142 q 369 1134 378 1142 q 364 1113 360 1126 q 357 1063 374 1082 q 315 1044 340 1044 z "},"Ő":{"ha":1054,"x_min":56,"x_max":999,"o":"m 999 486 q 964 292 999 382 q 866 133 929 201 q 716 25 803 64 q 526 -14 629 -14 q 338 25 424 -14 q 188 133 251 64 q 90 292 125 201 q 56 486 56 382 q 90 681 56 590 q 188 840 125 771 q 338 947 251 908 q 526 986 424 986 q 716 947 629 986 q 866 840 803 908 q 964 681 929 771 q 999 486 999 590 m 818 486 q 781 655 818 579 q 678 775 743 731 q 526 819 613 819 q 375 775 440 819 q 273 656 310 731 q 236 486 236 581 q 273 317 236 393 q 375 197 310 242 q 526 153 440 153 q 678 197 613 153 q 781 317 743 242 q 818 486 818 393 z "},"Ȏ":{"ha":1054,"x_min":56,"x_max":999,"o":"m 999 486 q 964 292 999 382 q 866 133 929 201 q 716 25 803 64 q 526 -14 629 -14 q 338 25 424 -14 q 188 133 251 64 q 90 292 125 201 q 56 486 56 382 q 90 681 56 590 q 188 840 125 771 q 338 947 251 908 q 526 986 424 986 q 716 947 629 986 q 866 840 803 908 q 964 681 929 771 q 999 486 999 590 m 818 486 q 781 655 818 579 q 678 775 743 731 q 526 819 613 819 q 375 775 440 819 q 273 656 310 731 q 236 486 236 581 q 273 317 236 393 q 375 197 310 242 q 526 153 440 153 q 678 197 613 153 q 781 317 743 242 q 818 486 818 393 m 528 1289 q 624 1274 581 1289 q 699 1231 667 1260 q 747 1160 731 1201 q 749 1104 763 1125 q 707 1083 735 1083 q 660 1097 678 1083 q 624 1133 643 1110 q 585 1161 608 1151 q 528 1171 563 1171 q 470 1161 493 1171 q 432 1133 447 1151 q 396 1097 414 1110 q 349 1083 378 1083 q 308 1103 322 1083 q 307 1157 293 1124 q 356 1229 325 1200 q 431 1274 388 1258 q 528 1289 475 1289 z "},"Ō":{"ha":1054,"x_min":56,"x_max":999,"o":"m 999 486 q 964 292 999 382 q 866 133 929 201 q 716 25 803 64 q 526 -14 629 -14 q 338 25 424 -14 q 188 133 251 64 q 90 292 125 201 q 56 486 56 382 q 90 681 56 590 q 188 840 125 771 q 338 947 251 908 q 526 986 424 986 q 716 947 629 986 q 866 840 803 908 q 964 681 929 771 q 999 486 999 590 m 818 486 q 781 655 818 579 q 678 775 743 731 q 526 819 613 819 q 375 775 440 819 q 273 656 310 731 q 236 486 236 581 q 273 317 236 393 q 375 197 310 242 q 526 153 440 153 q 678 197 613 153 q 781 317 743 242 q 818 486 818 393 m 360 1042 q 290 1104 290 1042 q 360 1165 290 1165 l 696 1165 q 765 1104 765 1165 q 696 1042 765 1042 l 360 1042 z "},"Ṓ":{"ha":1054,"x_min":56,"x_max":999,"o":"m 999 486 q 964 292 999 382 q 866 133 929 201 q 716 25 803 64 q 526 -14 629 -14 q 338 25 424 -14 q 188 133 251 64 q 90 292 125 201 q 56 486 56 382 q 90 681 56 590 q 188 840 125 771 q 338 947 251 908 q 526 986 424 986 q 716 947 629 986 q 866 840 803 908 q 964 681 929 771 q 999 486 999 590 m 818 486 q 781 655 818 579 q 678 775 743 731 q 526 819 613 819 q 375 775 440 819 q 273 656 310 731 q 236 486 236 581 q 273 317 236 393 q 375 197 310 242 q 526 153 440 153 q 678 197 613 153 q 781 317 743 242 q 818 486 818 393 m 360 1042 q 290 1104 290 1042 q 360 1165 290 1165 l 696 1165 q 765 1104 765 1165 q 696 1042 765 1042 l 360 1042 m 529 1260 q 487 1274 503 1260 q 471 1310 471 1288 q 476 1328 471 1319 q 490 1347 481 1338 l 610 1453 q 642 1474 625 1465 q 678 1483 660 1483 q 726 1465 701 1483 q 751 1415 751 1447 q 738 1374 751 1394 q 700 1342 725 1354 l 561 1268 q 544 1261 553 1263 q 529 1260 536 1260 z "},"Ṑ":{"ha":1054,"x_min":56,"x_max":999,"o":"m 999 486 q 964 292 999 382 q 866 133 929 201 q 716 25 803 64 q 526 -14 629 -14 q 338 25 424 -14 q 188 133 251 64 q 90 292 125 201 q 56 486 56 382 q 90 681 56 590 q 188 840 125 771 q 338 947 251 908 q 526 986 424 986 q 716 947 629 986 q 866 840 803 908 q 964 681 929 771 q 999 486 999 590 m 818 486 q 781 655 818 579 q 678 775 743 731 q 526 819 613 819 q 375 775 440 819 q 273 656 310 731 q 236 486 236 581 q 273 317 236 393 q 375 197 310 242 q 526 153 440 153 q 678 197 613 153 q 781 317 743 242 q 818 486 818 393 m 360 1042 q 290 1104 290 1042 q 360 1165 290 1165 l 696 1165 q 765 1104 765 1165 q 696 1042 765 1042 l 360 1042 m 525 1265 q 510 1267 518 1265 q 493 1274 501 1269 l 354 1347 q 303 1421 303 1375 q 328 1471 303 1453 q 376 1489 353 1489 q 413 1480 396 1489 q 444 1458 431 1471 l 564 1353 q 579 1334 575 1343 q 583 1315 583 1325 q 567 1279 583 1293 q 525 1265 551 1265 z "},"Ǫ":{"ha":1054,"x_min":56,"x_max":999,"o":"m 567 -287 q 449 -251 499 -287 q 400 -139 400 -215 q 424 -41 400 -82 q 485 28 447 0 q 568 75 524 57 q 654 104 613 93 l 685 14 q 596 -22 628 -1 q 551 -63 564 -42 q 538 -108 538 -85 q 551 -146 538 -133 q 581 -158 564 -158 q 597 -154 589 -158 q 610 -142 604 -150 q 640 -121 622 -125 q 667 -117 657 -117 q 710 -134 692 -117 q 728 -183 728 -151 q 705 -230 728 -206 q 645 -271 682 -254 q 567 -287 608 -287 m 999 486 q 964 292 999 382 q 866 133 929 201 q 716 25 803 64 q 526 -14 629 -14 q 338 25 424 -14 q 188 133 251 64 q 90 292 125 201 q 56 486 56 382 q 90 681 56 590 q 188 840 125 771 q 338 947 251 908 q 526 986 424 986 q 716 947 629 986 q 866 840 803 908 q 964 681 929 771 q 999 486 999 590 m 818 486 q 781 655 818 579 q 678 775 743 731 q 526 819 613 819 q 375 775 440 819 q 273 656 310 731 q 236 486 236 581 q 273 317 236 393 q 375 197 310 242 q 526 153 440 153 q 678 197 613 153 q 781 317 743 242 q 818 486 818 393 z "},"Ø":{"ha":1026,"x_min":56,"x_max":999,"o":"m 132 -43 q 83 -23 106 -43 q 61 26 61 -3 q 78 72 61 51 l 842 1014 q 867 1034 853 1028 q 896 1040 882 1040 q 945 1021 924 1040 q 967 972 967 1001 q 950 926 967 947 l 186 -15 q 162 -36 176 -29 q 132 -43 147 -43 m 999 486 q 964 292 999 382 q 866 133 929 201 q 716 25 803 64 q 526 -14 629 -14 q 338 25 424 -14 q 188 133 251 64 q 90 292 125 201 q 56 486 56 382 q 90 681 56 590 q 188 840 125 771 q 338 947 251 908 q 526 986 424 986 q 716 947 629 986 q 866 840 803 908 q 964 681 929 771 q 999 486 999 590 m 818 486 q 781 655 818 579 q 678 775 743 731 q 526 819 613 819 q 375 775 440 819 q 273 656 310 731 q 236 486 236 581 q 273 317 236 393 q 375 197 310 242 q 526 153 440 153 q 678 197 613 153 q 781 317 743 242 q 818 486 818 393 z "},"Ǿ":{"ha":1026,"x_min":56,"x_max":999,"o":"m 132 -43 q 83 -23 106 -43 q 61 26 61 -3 q 78 72 61 51 l 842 1014 q 867 1034 853 1028 q 896 1040 882 1040 q 945 1021 924 1040 q 967 972 967 1001 q 950 926 967 947 l 186 -15 q 162 -36 176 -29 q 132 -43 147 -43 m 999 486 q 964 292 999 382 q 866 133 929 201 q 716 25 803 64 q 526 -14 629 -14 q 338 25 424 -14 q 188 133 251 64 q 90 292 125 201 q 56 486 56 382 q 90 681 56 590 q 188 840 125 771 q 338 947 251 908 q 526 986 424 986 q 716 947 629 986 q 866 840 803 908 q 964 681 929 771 q 999 486 999 590 m 818 486 q 781 655 818 579 q 678 775 743 731 q 526 819 613 819 q 375 775 440 819 q 273 656 310 731 q 236 486 236 581 q 273 317 236 393 q 375 197 310 242 q 526 153 440 153 q 678 197 613 153 q 781 317 743 242 q 818 486 818 393 m 515 1025 q 473 1039 489 1025 q 457 1075 457 1053 q 462 1094 457 1085 q 476 1113 467 1103 l 596 1218 q 628 1240 611 1231 q 664 1249 646 1249 q 713 1231 688 1249 q 738 1181 738 1213 q 724 1140 738 1160 q 686 1107 711 1119 l 547 1033 q 531 1026 539 1028 q 515 1025 522 1025 z "},"Õ":{"ha":1054,"x_min":56,"x_max":999,"o":"m 999 486 q 964 292 999 382 q 866 133 929 201 q 716 25 803 64 q 526 -14 629 -14 q 338 25 424 -14 q 188 133 251 64 q 90 292 125 201 q 56 486 56 382 q 90 681 56 590 q 188 840 125 771 q 338 947 251 908 q 526 986 424 986 q 716 947 629 986 q 866 840 803 908 q 964 681 929 771 q 999 486 999 590 m 818 486 q 781 655 818 579 q 678 775 743 731 q 526 819 613 819 q 375 775 440 819 q 273 656 310 731 q 236 486 236 581 q 273 317 236 393 q 375 197 310 242 q 526 153 440 153 q 678 197 613 153 q 781 317 743 242 q 818 486 818 393 m 340 1022 q 287 1049 310 1022 q 264 1121 264 1076 q 303 1204 264 1165 q 418 1243 343 1243 q 506 1222 465 1243 q 580 1178 546 1200 q 639 1157 614 1157 q 663 1165 654 1157 q 667 1186 671 1172 q 674 1236 657 1218 q 715 1254 690 1254 q 769 1228 747 1254 q 792 1158 792 1201 q 778 1106 792 1135 q 735 1055 764 1076 q 660 1033 706 1033 q 563 1055 608 1033 q 479 1098 517 1076 q 417 1119 442 1119 q 394 1112 403 1119 q 389 1090 385 1104 q 382 1041 399 1060 q 340 1022 365 1022 z "},"Ṍ":{"ha":1054,"x_min":56,"x_max":999,"o":"m 999 486 q 964 292 999 382 q 866 133 929 201 q 716 25 803 64 q 526 -14 629 -14 q 338 25 424 -14 q 188 133 251 64 q 90 292 125 201 q 56 486 56 382 q 90 681 56 590 q 188 840 125 771 q 338 947 251 908 q 526 986 424 986 q 716 947 629 986 q 866 840 803 908 q 964 681 929 771 q 999 486 999 590 m 818 486 q 781 655 818 579 q 678 775 743 731 q 526 819 613 819 q 375 775 440 819 q 273 656 310 731 q 236 486 236 581 q 273 317 236 393 q 375 197 310 242 q 526 153 440 153 q 678 197 613 153 q 781 317 743 242 q 818 486 818 393 m 340 1022 q 287 1049 310 1022 q 264 1121 264 1076 q 303 1204 264 1165 q 418 1243 343 1243 q 506 1222 465 1243 q 580 1178 546 1200 q 639 1157 614 1157 q 663 1165 654 1157 q 667 1186 671 1172 q 674 1236 657 1218 q 715 1254 690 1254 q 769 1228 747 1254 q 792 1158 792 1201 q 778 1106 792 1135 q 735 1055 764 1076 q 660 1033 706 1033 q 563 1055 608 1033 q 479 1098 517 1076 q 417 1119 442 1119 q 394 1112 403 1119 q 389 1090 385 1104 q 382 1041 399 1060 q 340 1022 365 1022 m 529 1326 q 487 1340 503 1326 q 471 1376 471 1354 q 476 1395 471 1386 q 490 1414 481 1404 l 610 1519 q 642 1541 625 1532 q 678 1550 660 1550 q 726 1532 701 1550 q 751 1482 751 1514 q 738 1441 751 1461 q 700 1408 725 1421 l 561 1335 q 544 1328 553 1329 q 529 1326 536 1326 z "},"Ṏ":{"ha":1054,"x_min":56,"x_max":999,"o":"m 999 486 q 964 292 999 382 q 866 133 929 201 q 716 25 803 64 q 526 -14 629 -14 q 338 25 424 -14 q 188 133 251 64 q 90 292 125 201 q 56 486 56 382 q 90 681 56 590 q 188 840 125 771 q 338 947 251 908 q 526 986 424 986 q 716 947 629 986 q 866 840 803 908 q 964 681 929 771 q 999 486 999 590 m 818 486 q 781 655 818 579 q 678 775 743 731 q 526 819 613 819 q 375 775 440 819 q 273 656 310 731 q 236 486 236 581 q 273 317 236 393 q 375 197 310 242 q 526 153 440 153 q 678 197 613 153 q 781 317 743 242 q 818 486 818 393 m 340 1022 q 287 1049 310 1022 q 264 1121 264 1076 q 303 1204 264 1165 q 418 1243 343 1243 q 506 1222 465 1243 q 580 1178 546 1200 q 639 1157 614 1157 q 663 1165 654 1157 q 667 1186 671 1172 q 674 1236 657 1218 q 715 1254 690 1254 q 769 1228 747 1254 q 792 1158 792 1201 q 778 1106 792 1135 q 735 1055 764 1076 q 660 1033 706 1033 q 563 1055 608 1033 q 479 1098 517 1076 q 417 1119 442 1119 q 394 1112 403 1119 q 389 1090 385 1104 q 382 1041 399 1060 q 340 1022 365 1022 m 664 1357 q 601 1372 621 1357 q 581 1426 581 1388 l 581 1451 q 601 1506 581 1492 q 664 1521 622 1521 q 731 1506 711 1521 q 751 1451 751 1490 l 751 1426 q 731 1372 751 1386 q 664 1357 710 1357 m 388 1357 q 324 1372 344 1357 q 304 1426 304 1388 l 304 1451 q 326 1506 304 1492 q 389 1521 347 1521 q 455 1506 435 1521 q 475 1451 475 1490 l 475 1426 q 454 1372 475 1386 q 388 1357 433 1357 z "},"Ȭ":{"ha":1054,"x_min":56,"x_max":999,"o":"m 999 486 q 964 292 999 382 q 866 133 929 201 q 716 25 803 64 q 526 -14 629 -14 q 338 25 424 -14 q 188 133 251 64 q 90 292 125 201 q 56 486 56 382 q 90 681 56 590 q 188 840 125 771 q 338 947 251 908 q 526 986 424 986 q 716 947 629 986 q 866 840 803 908 q 964 681 929 771 q 999 486 999 590 m 818 486 q 781 655 818 579 q 678 775 743 731 q 526 819 613 819 q 375 775 440 819 q 273 656 310 731 q 236 486 236 581 q 273 317 236 393 q 375 197 310 242 q 526 153 440 153 q 678 197 613 153 q 781 317 743 242 q 818 486 818 393 m 340 1022 q 287 1049 310 1022 q 264 1121 264 1076 q 303 1204 264 1165 q 418 1243 343 1243 q 506 1222 465 1243 q 580 1178 546 1200 q 639 1157 614 1157 q 663 1165 654 1157 q 667 1186 671 1172 q 674 1236 657 1218 q 715 1254 690 1254 q 769 1228 747 1254 q 792 1158 792 1201 q 778 1106 792 1135 q 735 1055 764 1076 q 660 1033 706 1033 q 563 1055 608 1033 q 479 1098 517 1076 q 417 1119 442 1119 q 394 1112 403 1119 q 389 1090 385 1104 q 382 1041 399 1060 q 340 1022 365 1022 m 360 1343 q 290 1406 290 1343 q 360 1467 290 1467 l 696 1467 q 765 1406 765 1467 q 696 1343 765 1343 l 360 1343 z "},"Œ":{"ha":1343,"x_min":56,"x_max":1288,"o":"m 1203 167 q 1263 142 1239 167 q 1288 82 1288 118 q 1263 24 1288 47 q 1203 0 1239 0 l 472 0 q 246 65 339 0 q 104 241 153 131 q 56 486 56 351 q 83 674 56 586 q 163 830 110 763 q 294 935 217 897 q 472 972 372 972 l 1203 972 q 1263 948 1239 972 q 1288 888 1288 924 q 1263 829 1288 853 q 1203 806 1239 806 l 818 806 l 833 835 l 833 540 l 817 561 l 1140 561 q 1201 537 1176 561 q 1225 476 1225 513 q 1201 418 1225 442 q 1140 394 1176 394 l 817 394 l 833 422 l 833 154 l 825 167 l 1203 167 m 688 167 l 667 144 l 667 831 l 685 806 l 472 806 q 360 781 407 806 q 282 712 313 756 q 237 610 251 668 q 222 486 222 551 q 248 326 222 399 q 329 210 274 253 q 472 167 385 167 l 688 167 z "},"P":{"ha":838,"x_min":104,"x_max":782,"o":"m 506 972 q 641 931 578 972 q 743 818 704 889 q 782 660 782 747 q 743 503 782 574 q 641 390 704 432 q 506 347 578 347 l 250 347 l 264 372 l 264 85 q 242 24 264 49 q 183 0 219 0 q 126 24 149 0 q 104 85 104 49 l 104 888 q 128 948 104 924 q 189 972 153 972 l 506 972 m 506 506 q 557 528 532 506 q 599 585 582 550 q 615 660 615 621 q 599 735 615 700 q 557 791 582 769 q 506 813 532 813 l 247 813 l 264 838 l 264 483 l 249 506 l 506 506 z "},"Þ":{"ha":838,"x_min":104,"x_max":782,"o":"m 271 85 q 247 24 271 49 q 186 0 222 0 q 127 24 150 0 q 104 85 104 49 l 104 943 q 128 1003 104 979 q 189 1028 153 1028 q 248 1003 225 1028 q 271 943 271 979 l 271 85 m 256 389 l 506 389 q 557 409 532 389 q 599 463 582 429 q 615 535 615 496 q 599 608 615 575 q 557 661 582 642 q 506 681 532 681 l 254 681 l 189 847 l 506 847 q 641 806 578 847 q 743 693 704 764 q 782 535 782 622 q 742 378 782 449 q 640 265 703 307 q 506 222 576 222 l 172 222 l 256 389 z "},"Q":{"ha":1049,"x_min":56,"x_max":1083,"o":"m 1004 -39 q 1058 -63 1033 -39 q 1083 -119 1083 -87 q 1055 -180 1083 -151 q 982 -231 1026 -208 q 890 -265 938 -253 q 803 -278 842 -278 q 665 -262 717 -278 q 581 -226 614 -246 q 518 -190 547 -206 q 447 -174 489 -174 q 405 -183 421 -174 q 370 -201 389 -192 q 318 -210 351 -210 q 260 -183 283 -210 q 236 -126 236 -157 q 285 -54 236 -72 l 572 53 l 697 22 l 428 -78 l 507 -32 q 592 -47 556 -32 q 663 -79 629 -61 q 731 -112 696 -97 q 813 -126 767 -126 q 876 -114 850 -126 q 921 -86 901 -101 q 963 -53 944 -68 q 1004 -39 982 -39 m 999 486 q 964 292 999 382 q 866 133 929 201 q 716 25 803 64 q 526 -14 629 -14 q 338 25 424 -14 q 188 133 251 64 q 90 292 125 201 q 56 486 56 382 q 90 681 56 590 q 188 840 125 771 q 338 947 251 908 q 526 986 424 986 q 716 947 629 986 q 866 840 803 908 q 964 681 929 771 q 999 486 999 590 m 818 486 q 781 655 818 579 q 678 775 743 731 q 526 819 613 819 q 375 775 440 819 q 273 656 310 731 q 236 486 236 581 q 273 317 236 393 q 375 197 310 242 q 526 153 440 153 q 678 197 613 153 q 781 317 743 242 q 818 486 818 393 z "},"R":{"ha":954,"x_min":104,"x_max":913,"o":"m 204 0 q 135 24 165 0 q 104 85 104 49 l 104 888 q 128 948 104 924 q 189 972 153 972 l 589 972 q 724 934 661 972 q 826 828 788 896 q 865 674 865 761 q 844 571 865 621 q 785 481 822 521 q 703 418 749 440 l 704 450 q 769 401 743 429 q 809 340 794 372 q 826 269 824 307 q 834 208 832 235 q 842 164 836 182 q 867 136 849 146 q 905 84 897 118 q 889 24 913 50 q 850 1 874 6 q 803 1 826 -4 q 764 14 779 6 q 717 55 740 28 q 678 128 693 82 q 664 246 664 174 q 656 290 664 269 q 632 324 647 310 q 593 347 617 339 q 538 354 569 354 l 257 354 l 278 386 l 278 85 q 258 24 278 49 q 204 0 239 0 m 258 497 l 582 497 q 631 520 607 497 q 669 583 654 543 q 685 669 685 622 q 652 772 685 731 q 582 813 619 813 l 261 813 l 278 857 l 278 464 l 258 497 z "},"Ŕ":{"ha":954,"x_min":104,"x_max":913,"o":"m 204 0 q 135 24 165 0 q 104 85 104 49 l 104 888 q 128 948 104 924 q 189 972 153 972 l 589 972 q 724 934 661 972 q 826 828 788 896 q 865 674 865 761 q 844 571 865 621 q 785 481 822 521 q 703 418 749 440 l 704 450 q 769 401 743 429 q 809 340 794 372 q 826 269 824 307 q 834 208 832 235 q 842 164 836 182 q 867 136 849 146 q 905 84 897 118 q 889 24 913 50 q 850 1 874 6 q 803 1 826 -4 q 764 14 779 6 q 717 55 740 28 q 678 128 693 82 q 664 246 664 174 q 656 290 664 269 q 632 324 647 310 q 593 347 617 339 q 538 354 569 354 l 257 354 l 278 386 l 278 85 q 258 24 278 49 q 204 0 239 0 m 258 497 l 582 497 q 631 520 607 497 q 669 583 654 543 q 685 669 685 622 q 652 772 685 731 q 582 813 619 813 l 261 813 l 278 857 l 278 464 l 258 497 m 479 1025 q 437 1039 453 1025 q 421 1075 421 1053 q 426 1094 421 1085 q 440 1113 431 1103 l 560 1218 q 592 1240 575 1231 q 628 1249 610 1249 q 676 1231 651 1249 q 701 1181 701 1213 q 688 1140 701 1160 q 650 1107 675 1119 l 511 1033 q 494 1026 503 1028 q 479 1025 486 1025 z "},"Ř":{"ha":954,"x_min":104,"x_max":913,"o":"m 204 0 q 135 24 165 0 q 104 85 104 49 l 104 888 q 128 948 104 924 q 189 972 153 972 l 589 972 q 724 934 661 972 q 826 828 788 896 q 865 674 865 761 q 844 571 865 621 q 785 481 822 521 q 703 418 749 440 l 704 450 q 769 401 743 429 q 809 340 794 372 q 826 269 824 307 q 834 208 832 235 q 842 164 836 182 q 867 136 849 146 q 905 84 897 118 q 889 24 913 50 q 850 1 874 6 q 803 1 826 -4 q 764 14 779 6 q 717 55 740 28 q 678 128 693 82 q 664 246 664 174 q 656 290 664 269 q 632 324 647 310 q 593 347 617 339 q 538 354 569 354 l 257 354 l 278 386 l 278 85 q 258 24 278 49 q 204 0 239 0 m 258 497 l 582 497 q 631 520 607 497 q 669 583 654 543 q 685 669 685 622 q 652 772 685 731 q 582 813 619 813 l 261 813 l 278 857 l 278 464 l 258 497 m 453 1142 l 569 1217 q 610 1238 593 1232 q 640 1244 626 1244 q 672 1233 660 1244 q 683 1210 683 1222 q 679 1192 683 1200 q 663 1168 675 1183 l 575 1068 q 538 1038 557 1049 q 490 1028 518 1028 l 468 1028 q 421 1038 440 1028 q 383 1068 401 1049 l 296 1168 q 279 1192 283 1183 q 275 1210 275 1200 q 288 1233 275 1222 q 318 1244 300 1244 q 389 1217 346 1244 l 506 1142 l 453 1142 z "},"Ŗ":{"ha":954,"x_min":104,"x_max":913,"o":"m 204 0 q 135 24 165 0 q 104 85 104 49 l 104 888 q 128 948 104 924 q 189 972 153 972 l 589 972 q 724 934 661 972 q 826 828 788 896 q 865 674 865 761 q 844 571 865 621 q 785 481 822 521 q 703 418 749 440 l 704 450 q 769 401 743 429 q 809 340 794 372 q 826 269 824 307 q 834 208 832 235 q 842 164 836 182 q 867 136 849 146 q 905 84 897 118 q 889 24 913 50 q 850 1 874 6 q 803 1 826 -4 q 764 14 779 6 q 717 55 740 28 q 678 128 693 82 q 664 246 664 174 q 656 290 664 269 q 632 324 647 310 q 593 347 617 339 q 538 354 569 354 l 257 354 l 278 386 l 278 85 q 258 24 278 49 q 204 0 239 0 m 258 497 l 582 497 q 631 520 607 497 q 669 583 654 543 q 685 669 685 622 q 652 772 685 731 q 582 813 619 813 l 261 813 l 278 857 l 278 464 l 258 497 m 594 -144 q 576 -205 594 -175 q 525 -255 557 -235 q 453 -275 493 -275 q 402 -260 418 -275 q 386 -231 386 -244 q 396 -205 386 -211 q 415 -199 406 -199 q 434 -202 422 -199 q 457 -206 446 -206 q 482 -195 472 -206 q 492 -167 492 -185 q 478 -149 492 -149 q 464 -155 468 -149 q 440 -161 460 -161 q 404 -146 418 -161 q 390 -104 390 -131 q 417 -55 390 -71 q 485 -39 443 -39 q 563 -67 532 -39 q 594 -144 594 -94 z "},"Ȑ":{"ha":954,"x_min":104,"x_max":913,"o":"m 204 0 q 135 24 165 0 q 104 85 104 49 l 104 888 q 128 948 104 924 q 189 972 153 972 l 589 972 q 724 934 661 972 q 826 828 788 896 q 865 674 865 761 q 844 571 865 621 q 785 481 822 521 q 703 418 749 440 l 704 450 q 769 401 743 429 q 809 340 794 372 q 826 269 824 307 q 834 208 832 235 q 842 164 836 182 q 867 136 849 146 q 905 84 897 118 q 889 24 913 50 q 850 1 874 6 q 803 1 826 -4 q 764 14 779 6 q 717 55 740 28 q 678 128 693 82 q 664 246 664 174 q 656 290 664 269 q 632 324 647 310 q 593 347 617 339 q 538 354 569 354 l 257 354 l 278 386 l 278 85 q 258 24 278 49 q 204 0 239 0 m 258 497 l 582 497 q 631 520 607 497 q 669 583 654 543 q 685 669 685 622 q 652 772 685 731 q 582 813 619 813 l 261 813 l 278 857 l 278 464 l 258 497 m 339 1044 q 324 1047 332 1044 q 307 1053 315 1049 l 168 1126 q 117 1200 117 1154 q 142 1250 117 1232 q 190 1268 167 1268 q 227 1259 210 1268 q 258 1238 244 1250 l 378 1132 q 393 1113 389 1122 q 397 1094 397 1104 q 381 1058 397 1072 q 339 1044 365 1044 m 625 1058 q 610 1060 618 1058 q 593 1067 601 1063 l 454 1140 q 403 1214 403 1168 q 428 1264 403 1246 q 476 1282 453 1282 q 513 1273 496 1282 q 544 1251 531 1264 l 664 1146 q 679 1127 675 1136 q 683 1108 683 1118 q 667 1072 683 1086 q 625 1058 651 1058 z "},"Ṛ":{"ha":954,"x_min":104,"x_max":913,"o":"m 204 0 q 135 24 165 0 q 104 85 104 49 l 104 888 q 128 948 104 924 q 189 972 153 972 l 589 972 q 724 934 661 972 q 826 828 788 896 q 865 674 865 761 q 844 571 865 621 q 785 481 822 521 q 703 418 749 440 l 704 450 q 769 401 743 429 q 809 340 794 372 q 826 269 824 307 q 834 208 832 235 q 842 164 836 182 q 867 136 849 146 q 905 84 897 118 q 889 24 913 50 q 850 1 874 6 q 803 1 826 -4 q 764 14 779 6 q 717 55 740 28 q 678 128 693 82 q 664 246 664 174 q 656 290 664 269 q 632 324 647 310 q 593 347 617 339 q 538 354 569 354 l 257 354 l 278 386 l 278 85 q 258 24 278 49 q 204 0 239 0 m 258 497 l 582 497 q 631 520 607 497 q 669 583 654 543 q 685 669 685 622 q 652 772 685 731 q 582 813 619 813 l 261 813 l 278 857 l 278 464 l 258 497 m 475 -204 q 410 -189 429 -204 q 390 -135 390 -174 l 390 -108 q 412 -53 390 -68 q 475 -39 433 -39 q 546 -53 526 -39 q 565 -108 565 -68 l 565 -135 q 544 -190 565 -175 q 475 -204 524 -204 z "},"Ȓ":{"ha":954,"x_min":104,"x_max":913,"o":"m 204 0 q 135 24 165 0 q 104 85 104 49 l 104 888 q 128 948 104 924 q 189 972 153 972 l 589 972 q 724 934 661 972 q 826 828 788 896 q 865 674 865 761 q 844 571 865 621 q 785 481 822 521 q 703 418 749 440 l 704 450 q 769 401 743 429 q 809 340 794 372 q 826 269 824 307 q 834 208 832 235 q 842 164 836 182 q 867 136 849 146 q 905 84 897 118 q 889 24 913 50 q 850 1 874 6 q 803 1 826 -4 q 764 14 779 6 q 717 55 740 28 q 678 128 693 82 q 664 246 664 174 q 656 290 664 269 q 632 324 647 310 q 593 347 617 339 q 538 354 569 354 l 257 354 l 278 386 l 278 85 q 258 24 278 49 q 204 0 239 0 m 258 497 l 582 497 q 631 520 607 497 q 669 583 654 543 q 685 669 685 622 q 652 772 685 731 q 582 813 619 813 l 261 813 l 278 857 l 278 464 l 258 497 m 478 1289 q 574 1274 531 1289 q 649 1231 617 1260 q 697 1160 681 1201 q 699 1104 713 1125 q 657 1083 685 1083 q 610 1097 628 1083 q 574 1133 593 1110 q 535 1161 558 1151 q 478 1171 513 1171 q 420 1161 443 1171 q 382 1133 397 1151 q 346 1097 364 1110 q 299 1083 328 1083 q 258 1103 272 1083 q 257 1157 243 1124 q 306 1229 275 1200 q 381 1274 338 1258 q 478 1289 425 1289 z "},"Ṟ":{"ha":954,"x_min":104,"x_max":913,"o":"m 204 0 q 135 24 165 0 q 104 85 104 49 l 104 888 q 128 948 104 924 q 189 972 153 972 l 589 972 q 724 934 661 972 q 826 828 788 896 q 865 674 865 761 q 844 571 865 621 q 785 481 822 521 q 703 418 749 440 l 704 450 q 769 401 743 429 q 809 340 794 372 q 826 269 824 307 q 834 208 832 235 q 842 164 836 182 q 867 136 849 146 q 905 84 897 118 q 889 24 913 50 q 850 1 874 6 q 803 1 826 -4 q 764 14 779 6 q 717 55 740 28 q 678 128 693 82 q 664 246 664 174 q 656 290 664 269 q 632 324 647 310 q 593 347 617 339 q 538 354 569 354 l 257 354 l 278 386 l 278 85 q 258 24 278 49 q 204 0 239 0 m 258 497 l 582 497 q 631 520 607 497 q 669 583 654 543 q 685 669 685 622 q 652 772 685 731 q 582 813 619 813 l 261 813 l 278 857 l 278 464 l 258 497 m 324 -211 q 254 -149 254 -211 q 324 -87 254 -87 l 660 -87 q 729 -149 729 -87 q 660 -211 729 -211 l 324 -211 z "},"S":{"ha":829,"x_min":56,"x_max":774,"o":"m 417 -14 q 242 10 319 -14 q 93 96 164 35 q 65 131 75 111 q 56 169 56 150 q 78 226 56 201 q 136 250 101 250 q 183 233 163 250 q 288 168 236 190 q 417 146 340 146 q 511 162 468 146 q 581 205 554 178 q 607 267 607 232 q 582 338 607 308 q 506 387 557 367 q 375 418 454 407 q 243 452 300 429 q 148 510 186 475 q 90 594 110 546 q 71 701 71 642 q 117 856 71 792 q 243 953 164 919 q 418 986 322 986 q 585 959 508 986 q 711 890 663 932 q 751 817 751 858 q 728 761 751 786 q 672 736 704 736 q 635 749 651 736 q 575 785 613 768 q 496 815 538 803 q 418 826 454 826 q 317 811 358 826 q 256 769 276 796 q 235 708 235 743 q 259 640 235 667 q 329 597 283 613 q 439 568 375 581 q 585 532 522 553 q 690 478 649 511 q 753 397 732 446 q 774 276 774 347 q 724 121 774 186 q 592 21 674 56 q 417 -14 511 -14 z "},"Ś":{"ha":829,"x_min":56,"x_max":774,"o":"m 417 -14 q 242 10 319 -14 q 93 96 164 35 q 65 131 75 111 q 56 169 56 150 q 78 226 56 201 q 136 250 101 250 q 183 233 163 250 q 288 168 236 190 q 417 146 340 146 q 511 162 468 146 q 581 205 554 178 q 607 267 607 232 q 582 338 607 308 q 506 387 557 367 q 375 418 454 407 q 243 452 300 429 q 148 510 186 475 q 90 594 110 546 q 71 701 71 642 q 117 856 71 792 q 243 953 164 919 q 418 986 322 986 q 585 959 508 986 q 711 890 663 932 q 751 817 751 858 q 728 761 751 786 q 672 736 704 736 q 635 749 651 736 q 575 785 613 768 q 496 815 538 803 q 418 826 454 826 q 317 811 358 826 q 256 769 276 796 q 235 708 235 743 q 259 640 235 667 q 329 597 283 613 q 439 568 375 581 q 585 532 522 553 q 690 478 649 511 q 753 397 732 446 q 774 276 774 347 q 724 121 774 186 q 592 21 674 56 q 417 -14 511 -14 m 417 1025 q 374 1039 390 1025 q 358 1075 358 1053 q 363 1094 358 1085 q 378 1113 368 1103 l 497 1218 q 530 1240 513 1231 q 565 1249 547 1249 q 614 1231 589 1249 q 639 1181 639 1213 q 626 1140 639 1160 q 588 1107 613 1119 l 449 1033 q 432 1026 440 1028 q 417 1025 424 1025 z "},"Ṥ":{"ha":829,"x_min":56,"x_max":774,"o":"m 417 -14 q 242 10 319 -14 q 93 96 164 35 q 65 131 75 111 q 56 169 56 150 q 78 226 56 201 q 136 250 101 250 q 183 233 163 250 q 288 168 236 190 q 417 146 340 146 q 511 162 468 146 q 581 205 554 178 q 607 267 607 232 q 582 338 607 308 q 506 387 557 367 q 375 418 454 407 q 243 452 300 429 q 148 510 186 475 q 90 594 110 546 q 71 701 71 642 q 117 856 71 792 q 243 953 164 919 q 418 986 322 986 q 585 959 508 986 q 711 890 663 932 q 751 817 751 858 q 728 761 751 786 q 672 736 704 736 q 635 749 651 736 q 575 785 613 768 q 496 815 538 803 q 418 826 454 826 q 317 811 358 826 q 256 769 276 796 q 235 708 235 743 q 259 640 235 667 q 329 597 283 613 q 439 568 375 581 q 585 532 522 553 q 690 478 649 511 q 753 397 732 446 q 774 276 774 347 q 724 121 774 186 q 592 21 674 56 q 417 -14 511 -14 m 417 1025 q 374 1039 390 1025 q 358 1075 358 1053 q 363 1094 358 1085 q 378 1113 368 1103 l 497 1218 q 530 1240 513 1231 q 565 1249 547 1249 q 614 1231 589 1249 q 639 1181 639 1213 q 626 1140 639 1160 q 588 1107 613 1119 l 449 1033 q 432 1026 440 1028 q 417 1025 424 1025 m 483 1293 q 418 1308 438 1293 q 399 1363 399 1324 l 399 1389 q 420 1444 399 1429 q 485 1458 442 1458 q 554 1444 535 1458 q 574 1389 574 1429 l 574 1363 q 553 1308 574 1322 q 483 1293 532 1293 z "},"Š":{"ha":829,"x_min":56,"x_max":774,"o":"m 417 -14 q 242 10 319 -14 q 93 96 164 35 q 65 131 75 111 q 56 169 56 150 q 78 226 56 201 q 136 250 101 250 q 183 233 163 250 q 288 168 236 190 q 417 146 340 146 q 511 162 468 146 q 581 205 554 178 q 607 267 607 232 q 582 338 607 308 q 506 387 557 367 q 375 418 454 407 q 243 452 300 429 q 148 510 186 475 q 90 594 110 546 q 71 701 71 642 q 117 856 71 792 q 243 953 164 919 q 418 986 322 986 q 585 959 508 986 q 711 890 663 932 q 751 817 751 858 q 728 761 751 786 q 672 736 704 736 q 635 749 651 736 q 575 785 613 768 q 496 815 538 803 q 418 826 454 826 q 317 811 358 826 q 256 769 276 796 q 235 708 235 743 q 259 640 235 667 q 329 597 283 613 q 439 568 375 581 q 585 532 522 553 q 690 478 649 511 q 753 397 732 446 q 774 276 774 347 q 724 121 774 186 q 592 21 674 56 q 417 -14 511 -14 m 390 1142 l 507 1217 q 547 1238 531 1232 q 578 1244 564 1244 q 609 1233 597 1244 q 621 1210 621 1222 q 617 1192 621 1200 q 600 1168 613 1183 l 513 1068 q 475 1038 494 1049 q 428 1028 456 1028 l 406 1028 q 358 1038 378 1028 q 321 1068 339 1049 l 233 1168 q 217 1192 221 1183 q 213 1210 213 1200 q 225 1233 213 1222 q 256 1244 238 1244 q 326 1217 283 1244 l 443 1142 l 390 1142 z "},"Ṧ":{"ha":829,"x_min":56,"x_max":774,"o":"m 417 -14 q 242 10 319 -14 q 93 96 164 35 q 65 131 75 111 q 56 169 56 150 q 78 226 56 201 q 136 250 101 250 q 183 233 163 250 q 288 168 236 190 q 417 146 340 146 q 511 162 468 146 q 581 205 554 178 q 607 267 607 232 q 582 338 607 308 q 506 387 557 367 q 375 418 454 407 q 243 452 300 429 q 148 510 186 475 q 90 594 110 546 q 71 701 71 642 q 117 856 71 792 q 243 953 164 919 q 418 986 322 986 q 585 959 508 986 q 711 890 663 932 q 751 817 751 858 q 728 761 751 786 q 672 736 704 736 q 635 749 651 736 q 575 785 613 768 q 496 815 538 803 q 418 826 454 826 q 317 811 358 826 q 256 769 276 796 q 235 708 235 743 q 259 640 235 667 q 329 597 283 613 q 439 568 375 581 q 585 532 522 553 q 690 478 649 511 q 753 397 732 446 q 774 276 774 347 q 724 121 774 186 q 592 21 674 56 q 417 -14 511 -14 m 390 1142 l 507 1217 q 547 1238 531 1232 q 578 1244 564 1244 q 609 1233 597 1244 q 621 1210 621 1222 q 617 1192 621 1200 q 600 1168 613 1183 l 513 1068 q 475 1038 494 1049 q 428 1028 456 1028 l 406 1028 q 358 1038 378 1028 q 321 1068 339 1049 l 233 1168 q 217 1192 221 1183 q 213 1210 213 1200 q 225 1233 213 1222 q 256 1244 238 1244 q 326 1217 283 1244 l 443 1142 l 390 1142 m 413 1342 q 347 1357 367 1342 q 328 1411 328 1372 l 328 1438 q 349 1492 328 1478 q 414 1507 371 1507 q 483 1492 464 1507 q 503 1438 503 1478 l 503 1411 q 482 1356 503 1371 q 413 1342 461 1342 z "},"Ş":{"ha":829,"x_min":56,"x_max":774,"o":"m 417 -14 q 242 10 319 -14 q 93 96 164 35 q 65 131 75 111 q 56 169 56 150 q 78 226 56 201 q 136 250 101 250 q 183 233 163 250 q 288 168 236 190 q 417 146 340 146 q 511 162 468 146 q 581 205 554 178 q 607 267 607 232 q 582 338 607 308 q 506 387 557 367 q 375 418 454 407 q 243 452 300 429 q 148 510 186 475 q 90 594 110 546 q 71 701 71 642 q 117 856 71 792 q 243 953 164 919 q 418 986 322 986 q 585 959 508 986 q 711 890 663 932 q 751 817 751 858 q 728 761 751 786 q 672 736 704 736 q 635 749 651 736 q 575 785 613 768 q 496 815 538 803 q 418 826 454 826 q 317 811 358 826 q 256 769 276 796 q 235 708 235 743 q 259 640 235 667 q 329 597 283 613 q 439 568 375 581 q 585 532 522 553 q 690 478 649 511 q 753 397 732 446 q 774 276 774 347 q 724 121 774 186 q 592 21 674 56 q 417 -14 511 -14 z "},"Ŝ":{"ha":829,"x_min":56,"x_max":774,"o":"m 417 -14 q 242 10 319 -14 q 93 96 164 35 q 65 131 75 111 q 56 169 56 150 q 78 226 56 201 q 136 250 101 250 q 183 233 163 250 q 288 168 236 190 q 417 146 340 146 q 511 162 468 146 q 581 205 554 178 q 607 267 607 232 q 582 338 607 308 q 506 387 557 367 q 375 418 454 407 q 243 452 300 429 q 148 510 186 475 q 90 594 110 546 q 71 701 71 642 q 117 856 71 792 q 243 953 164 919 q 418 986 322 986 q 585 959 508 986 q 711 890 663 932 q 751 817 751 858 q 728 761 751 786 q 672 736 704 736 q 635 749 651 736 q 575 785 613 768 q 496 815 538 803 q 418 826 454 826 q 317 811 358 826 q 256 769 276 796 q 235 708 235 743 q 259 640 235 667 q 329 597 283 613 q 439 568 375 581 q 585 532 522 553 q 690 478 649 511 q 753 397 732 446 q 774 276 774 347 q 724 121 774 186 q 592 21 674 56 q 417 -14 511 -14 m 440 1126 l 324 1058 q 283 1036 300 1044 q 253 1028 267 1028 q 222 1039 235 1028 q 210 1063 210 1050 q 214 1082 210 1074 q 231 1104 218 1090 l 318 1204 q 356 1234 336 1224 q 403 1244 375 1244 l 425 1244 q 472 1234 453 1244 q 510 1204 492 1224 l 597 1104 q 614 1082 610 1090 q 618 1063 618 1074 q 606 1039 618 1050 q 575 1028 594 1028 q 544 1036 561 1028 q 504 1058 528 1044 l 388 1126 l 440 1126 z "},"Ș":{"ha":829,"x_min":56,"x_max":774,"o":"m 417 -14 q 242 10 319 -14 q 93 96 164 35 q 65 131 75 111 q 56 169 56 150 q 78 226 56 201 q 136 250 101 250 q 183 233 163 250 q 288 168 236 190 q 417 146 340 146 q 511 162 468 146 q 581 205 554 178 q 607 267 607 232 q 582 338 607 308 q 506 387 557 367 q 375 418 454 407 q 243 452 300 429 q 148 510 186 475 q 90 594 110 546 q 71 701 71 642 q 117 856 71 792 q 243 953 164 919 q 418 986 322 986 q 585 959 508 986 q 711 890 663 932 q 751 817 751 858 q 728 761 751 786 q 672 736 704 736 q 635 749 651 736 q 575 785 613 768 q 496 815 538 803 q 418 826 454 826 q 317 811 358 826 q 256 769 276 796 q 235 708 235 743 q 259 640 235 667 q 329 597 283 613 q 439 568 375 581 q 585 532 522 553 q 690 478 649 511 q 753 397 732 446 q 774 276 774 347 q 724 121 774 186 q 592 21 674 56 q 417 -14 511 -14 m 532 -144 q 513 -205 532 -175 q 463 -255 494 -235 q 390 -275 431 -275 q 340 -260 356 -275 q 324 -231 324 -244 q 333 -205 324 -211 q 353 -199 343 -199 q 372 -202 360 -199 q 394 -206 383 -206 q 419 -195 410 -206 q 429 -167 429 -185 q 415 -149 429 -149 q 401 -155 406 -149 q 378 -161 397 -161 q 342 -146 356 -161 q 328 -104 328 -131 q 354 -55 328 -71 q 422 -39 381 -39 q 501 -67 469 -39 q 532 -144 532 -94 z "},"Ṡ":{"ha":829,"x_min":56,"x_max":774,"o":"m 417 -14 q 242 10 319 -14 q 93 96 164 35 q 65 131 75 111 q 56 169 56 150 q 78 226 56 201 q 136 250 101 250 q 183 233 163 250 q 288 168 236 190 q 417 146 340 146 q 511 162 468 146 q 581 205 554 178 q 607 267 607 232 q 582 338 607 308 q 506 387 557 367 q 375 418 454 407 q 243 452 300 429 q 148 510 186 475 q 90 594 110 546 q 71 701 71 642 q 117 856 71 792 q 243 953 164 919 q 418 986 322 986 q 585 959 508 986 q 711 890 663 932 q 751 817 751 858 q 728 761 751 786 q 672 736 704 736 q 635 749 651 736 q 575 785 613 768 q 496 815 538 803 q 418 826 454 826 q 317 811 358 826 q 256 769 276 796 q 235 708 235 743 q 259 640 235 667 q 329 597 283 613 q 439 568 375 581 q 585 532 522 553 q 690 478 649 511 q 753 397 732 446 q 774 276 774 347 q 724 121 774 186 q 592 21 674 56 q 417 -14 511 -14 m 413 1028 q 347 1043 367 1028 q 328 1097 328 1058 l 328 1124 q 349 1178 328 1164 q 414 1193 371 1193 q 483 1178 464 1193 q 503 1124 503 1164 l 503 1097 q 482 1042 503 1057 q 413 1028 461 1028 z "},"Ṣ":{"ha":829,"x_min":56,"x_max":774,"o":"m 417 -14 q 242 10 319 -14 q 93 96 164 35 q 65 131 75 111 q 56 169 56 150 q 78 226 56 201 q 136 250 101 250 q 183 233 163 250 q 288 168 236 190 q 417 146 340 146 q 511 162 468 146 q 581 205 554 178 q 607 267 607 232 q 582 338 607 308 q 506 387 557 367 q 375 418 454 407 q 243 452 300 429 q 148 510 186 475 q 90 594 110 546 q 71 701 71 642 q 117 856 71 792 q 243 953 164 919 q 418 986 322 986 q 585 959 508 986 q 711 890 663 932 q 751 817 751 858 q 728 761 751 786 q 672 736 704 736 q 635 749 651 736 q 575 785 613 768 q 496 815 538 803 q 418 826 454 826 q 317 811 358 826 q 256 769 276 796 q 235 708 235 743 q 259 640 235 667 q 329 597 283 613 q 439 568 375 581 q 585 532 522 553 q 690 478 649 511 q 753 397 732 446 q 774 276 774 347 q 724 121 774 186 q 592 21 674 56 q 417 -14 511 -14 m 413 -204 q 347 -189 367 -204 q 328 -135 328 -174 l 328 -108 q 349 -53 328 -68 q 413 -39 371 -39 q 483 -53 464 -39 q 503 -108 503 -68 l 503 -135 q 482 -190 503 -175 q 413 -204 461 -204 z "},"Ṩ":{"ha":829,"x_min":56,"x_max":774,"o":"m 417 -14 q 242 10 319 -14 q 93 96 164 35 q 65 131 75 111 q 56 169 56 150 q 78 226 56 201 q 136 250 101 250 q 183 233 163 250 q 288 168 236 190 q 417 146 340 146 q 511 162 468 146 q 581 205 554 178 q 607 267 607 232 q 582 338 607 308 q 506 387 557 367 q 375 418 454 407 q 243 452 300 429 q 148 510 186 475 q 90 594 110 546 q 71 701 71 642 q 117 856 71 792 q 243 953 164 919 q 418 986 322 986 q 585 959 508 986 q 711 890 663 932 q 751 817 751 858 q 728 761 751 786 q 672 736 704 736 q 635 749 651 736 q 575 785 613 768 q 496 815 538 803 q 418 826 454 826 q 317 811 358 826 q 256 769 276 796 q 235 708 235 743 q 259 640 235 667 q 329 597 283 613 q 439 568 375 581 q 585 532 522 553 q 690 478 649 511 q 753 397 732 446 q 774 276 774 347 q 724 121 774 186 q 592 21 674 56 q 417 -14 511 -14 m 413 -204 q 347 -189 367 -204 q 328 -135 328 -174 l 328 -108 q 349 -53 328 -68 q 413 -39 371 -39 q 483 -53 464 -39 q 503 -108 503 -68 l 503 -135 q 482 -190 503 -175 q 413 -204 461 -204 m 413 1028 q 347 1043 367 1028 q 328 1097 328 1058 l 328 1124 q 349 1178 328 1164 q 414 1193 371 1193 q 483 1178 464 1193 q 503 1124 503 1164 l 503 1097 q 482 1042 503 1057 q 413 1028 461 1028 z "},"ẞ":{"ha":1036,"x_min":104,"x_max":981,"o":"m 667 -14 q 560 -1 617 -14 q 453 39 503 13 q 372 104 403 65 q 360 128 371 107 q 350 178 350 150 q 370 239 350 210 q 426 268 390 268 q 455 263 438 268 q 483 244 472 257 q 565 181 515 210 q 661 153 614 153 q 739 163 708 153 q 785 194 769 174 q 800 240 800 214 q 772 308 800 283 q 699 349 743 332 q 607 386 656 367 q 519 434 561 406 q 450 507 476 463 q 424 619 424 551 q 449 740 424 690 q 514 819 474 789 q 603 867 554 850 q 697 888 651 883 l 797 804 q 729 839 760 825 q 659 860 699 853 q 551 867 619 868 q 454 853 501 868 q 369 806 407 838 q 310 725 332 774 q 288 610 288 676 l 285 85 q 259 24 285 49 q 193 0 233 0 q 129 24 154 0 q 104 85 104 49 l 107 564 q 136 738 107 657 q 221 879 165 818 q 356 974 276 940 q 533 1008 435 1008 q 696 994 628 1008 q 810 961 764 981 q 897 857 897 926 q 878 815 897 828 q 828 798 858 803 q 764 783 799 793 q 685 762 721 772 q 629 731 650 751 q 608 669 608 710 q 626 616 608 639 q 676 576 644 593 q 743 546 707 560 q 824 514 783 532 q 901 466 865 496 q 959 388 938 436 q 981 267 981 340 q 935 126 981 190 q 819 25 890 63 q 667 -14 747 -12 z "},"Ə":{"ha":1078,"x_min":56,"x_max":1022,"o":"m 539 -14 q 367 16 451 -14 q 216 102 283 46 q 106 240 149 158 q 56 424 63 321 l 56 458 q 88 535 56 510 q 160 561 121 561 l 950 561 l 965 394 l 235 394 q 277 298 249 342 q 346 222 306 254 q 435 171 386 189 q 539 153 485 153 q 658 174 603 153 q 756 239 714 196 q 822 344 799 282 q 846 490 846 407 q 822 643 846 581 q 755 744 797 706 q 656 801 713 783 q 535 819 600 819 q 404 803 468 819 q 281 739 340 786 q 223 718 254 718 q 167 740 192 718 q 137 800 139 764 q 165 863 135 836 q 334 959 246 932 q 535 986 422 986 q 723 947 635 986 q 878 840 811 908 q 984 681 946 771 q 1022 486 1022 590 q 985 292 1022 382 q 881 133 947 201 q 726 25 814 64 q 539 -14 639 -14 z "},"T":{"ha":869,"x_min":42,"x_max":828,"o":"m 433 0 q 369 24 394 0 q 344 85 344 49 l 344 890 l 525 890 l 525 85 q 499 24 525 49 q 433 0 474 0 m 126 813 q 66 835 90 813 q 42 893 42 857 q 66 951 42 929 q 126 972 90 972 l 743 972 q 803 950 779 972 q 828 892 828 928 q 803 834 828 856 q 743 813 779 813 l 126 813 z "},"Ŧ":{"ha":869,"x_min":42,"x_max":828,"o":"m 328 413 q 267 434 292 413 q 243 490 243 456 q 267 544 243 522 q 328 565 292 565 l 569 565 q 630 544 606 565 q 654 490 654 522 q 630 434 654 456 q 569 413 606 413 l 328 413 m 433 0 q 369 24 394 0 q 344 85 344 49 l 344 890 l 525 890 l 525 85 q 499 24 525 49 q 433 0 474 0 m 126 813 q 66 835 90 813 q 42 893 42 857 q 66 951 42 929 q 126 972 90 972 l 743 972 q 803 950 779 972 q 828 892 828 928 q 803 834 828 856 q 743 813 779 813 l 126 813 z "},"Ť":{"ha":869,"x_min":42,"x_max":828,"o":"m 433 0 q 369 24 394 0 q 344 85 344 49 l 344 890 l 525 890 l 525 85 q 499 24 525 49 q 433 0 474 0 m 126 813 q 66 835 90 813 q 42 893 42 857 q 66 951 42 929 q 126 972 90 972 l 743 972 q 803 950 779 972 q 828 892 828 928 q 803 834 828 856 q 743 813 779 813 l 126 813 m 410 1142 l 526 1217 q 567 1238 550 1232 q 597 1244 583 1244 q 628 1233 617 1244 q 640 1210 640 1222 q 636 1192 640 1200 q 619 1168 632 1183 l 532 1068 q 494 1038 514 1049 q 447 1028 475 1028 l 425 1028 q 378 1038 397 1028 q 340 1068 358 1049 l 253 1168 q 236 1192 240 1183 q 232 1210 232 1200 q 244 1233 232 1222 q 275 1244 257 1244 q 346 1217 303 1244 l 463 1142 l 410 1142 z "},"Ţ":{"ha":869,"x_min":42,"x_max":828,"o":"m 433 0 q 369 24 394 0 q 344 85 344 49 l 344 890 l 525 890 l 525 85 q 499 24 525 49 q 433 0 474 0 m 126 813 q 66 835 90 813 q 42 893 42 857 q 66 951 42 929 q 126 972 90 972 l 743 972 q 803 950 779 972 q 828 892 828 928 q 803 834 828 856 q 743 813 779 813 l 126 813 z "},"Ț":{"ha":869,"x_min":42,"x_max":828,"o":"m 433 0 q 369 24 394 0 q 344 85 344 49 l 344 890 l 525 890 l 525 85 q 499 24 525 49 q 433 0 474 0 m 126 813 q 66 835 90 813 q 42 893 42 857 q 66 951 42 929 q 126 972 90 972 l 743 972 q 803 950 779 972 q 828 892 828 928 q 803 834 828 856 q 743 813 779 813 l 126 813 m 551 -144 q 533 -205 551 -175 q 482 -255 514 -235 q 410 -275 450 -275 q 359 -260 375 -275 q 343 -231 343 -244 q 353 -205 343 -211 q 372 -199 363 -199 q 391 -202 379 -199 q 414 -206 403 -206 q 439 -195 429 -206 q 449 -167 449 -185 q 435 -149 449 -149 q 421 -155 425 -149 q 397 -161 417 -161 q 361 -146 375 -161 q 347 -104 347 -131 q 374 -55 347 -71 q 442 -39 400 -39 q 520 -67 489 -39 q 551 -144 551 -94 z "},"Ṭ":{"ha":869,"x_min":42,"x_max":828,"o":"m 433 0 q 369 24 394 0 q 344 85 344 49 l 344 890 l 525 890 l 525 85 q 499 24 525 49 q 433 0 474 0 m 126 813 q 66 835 90 813 q 42 893 42 857 q 66 951 42 929 q 126 972 90 972 l 743 972 q 803 950 779 972 q 828 892 828 928 q 803 834 828 856 q 743 813 779 813 l 126 813 m 432 -204 q 367 -189 386 -204 q 347 -135 347 -174 l 347 -108 q 369 -53 347 -68 q 432 -39 390 -39 q 503 -53 483 -39 q 522 -108 522 -68 l 522 -135 q 501 -190 522 -175 q 432 -204 481 -204 z "},"Ṯ":{"ha":869,"x_min":42,"x_max":828,"o":"m 433 0 q 369 24 394 0 q 344 85 344 49 l 344 890 l 525 890 l 525 85 q 499 24 525 49 q 433 0 474 0 m 126 813 q 66 835 90 813 q 42 893 42 857 q 66 951 42 929 q 126 972 90 972 l 743 972 q 803 950 779 972 q 828 892 828 928 q 803 834 828 856 q 743 813 779 813 l 126 813 m 281 -211 q 211 -149 211 -211 q 281 -87 211 -87 l 617 -87 q 686 -149 686 -87 q 617 -211 686 -211 l 281 -211 z "},"U":{"ha":979,"x_min":104,"x_max":875,"o":"m 794 974 q 853 949 831 974 q 875 889 875 925 l 875 386 q 826 182 875 271 q 690 43 776 93 q 490 -7 604 -7 q 290 43 376 -7 q 153 182 203 93 q 104 386 104 271 l 104 889 q 129 949 104 925 q 193 974 154 974 q 251 949 225 974 q 276 889 276 925 l 276 386 q 306 266 276 317 q 385 188 336 215 q 490 160 435 160 q 601 188 550 160 q 685 266 653 215 q 717 386 717 317 l 717 889 q 738 949 717 925 q 794 974 758 974 z "},"Ú":{"ha":979,"x_min":104,"x_max":875,"o":"m 794 974 q 853 949 831 974 q 875 889 875 925 l 875 386 q 826 182 875 271 q 690 43 776 93 q 490 -7 604 -7 q 290 43 376 -7 q 153 182 203 93 q 104 386 104 271 l 104 889 q 129 949 104 925 q 193 974 154 974 q 251 949 225 974 q 276 889 276 925 l 276 386 q 306 266 276 317 q 385 188 336 215 q 490 160 435 160 q 601 188 550 160 q 685 266 653 215 q 717 386 717 317 l 717 889 q 738 949 717 925 q 794 974 758 974 m 492 1025 q 449 1039 465 1025 q 433 1075 433 1053 q 438 1094 433 1085 q 453 1113 443 1103 l 572 1218 q 605 1240 588 1231 q 640 1249 622 1249 q 689 1231 664 1249 q 714 1181 714 1213 q 701 1140 714 1160 q 663 1107 688 1119 l 524 1033 q 507 1026 515 1028 q 492 1025 499 1025 z "},"Ŭ":{"ha":979,"x_min":104,"x_max":875,"o":"m 794 974 q 853 949 831 974 q 875 889 875 925 l 875 386 q 826 182 875 271 q 690 43 776 93 q 490 -7 604 -7 q 290 43 376 -7 q 153 182 203 93 q 104 386 104 271 l 104 889 q 129 949 104 925 q 193 974 154 974 q 251 949 225 974 q 276 889 276 925 l 276 386 q 306 266 276 317 q 385 188 336 215 q 490 160 435 160 q 601 188 550 160 q 685 266 653 215 q 717 386 717 317 l 717 889 q 738 949 717 925 q 794 974 758 974 m 490 1053 q 355 1087 413 1053 q 271 1182 297 1121 q 271 1238 257 1217 q 311 1258 285 1258 q 358 1245 340 1258 q 394 1208 375 1232 q 433 1181 410 1190 q 490 1171 456 1171 q 586 1208 557 1171 q 623 1245 606 1232 q 669 1258 640 1258 q 711 1238 697 1258 q 711 1185 725 1218 q 627 1087 685 1121 q 490 1053 569 1053 z "},"Ǔ":{"ha":979,"x_min":104,"x_max":875,"o":"m 794 974 q 853 949 831 974 q 875 889 875 925 l 875 386 q 826 182 875 271 q 690 43 776 93 q 490 -7 604 -7 q 290 43 376 -7 q 153 182 203 93 q 104 386 104 271 l 104 889 q 129 949 104 925 q 193 974 154 974 q 251 949 225 974 q 276 889 276 925 l 276 386 q 306 266 276 317 q 385 188 336 215 q 490 160 435 160 q 601 188 550 160 q 685 266 653 215 q 717 386 717 317 l 717 889 q 738 949 717 925 q 794 974 758 974 m 465 1142 l 582 1217 q 622 1238 606 1232 q 653 1244 639 1244 q 684 1233 672 1244 q 696 1210 696 1222 q 692 1192 696 1200 q 675 1168 688 1183 l 588 1068 q 550 1038 569 1049 q 503 1028 531 1028 l 481 1028 q 433 1038 453 1028 q 396 1068 414 1049 l 308 1168 q 292 1192 296 1183 q 288 1210 288 1200 q 300 1233 288 1222 q 331 1244 313 1244 q 401 1217 358 1244 l 518 1142 l 465 1142 z "},"Û":{"ha":979,"x_min":104,"x_max":875,"o":"m 794 974 q 853 949 831 974 q 875 889 875 925 l 875 386 q 826 182 875 271 q 690 43 776 93 q 490 -7 604 -7 q 290 43 376 -7 q 153 182 203 93 q 104 386 104 271 l 104 889 q 129 949 104 925 q 193 974 154 974 q 251 949 225 974 q 276 889 276 925 l 276 386 q 306 266 276 317 q 385 188 336 215 q 490 160 435 160 q 601 188 550 160 q 685 266 653 215 q 717 386 717 317 l 717 889 q 738 949 717 925 q 794 974 758 974 m 515 1126 l 399 1058 q 358 1036 375 1044 q 328 1028 342 1028 q 297 1039 310 1028 q 285 1063 285 1050 q 289 1082 285 1074 q 306 1104 293 1090 l 393 1204 q 431 1234 411 1224 q 478 1244 450 1244 l 500 1244 q 547 1234 528 1244 q 585 1204 567 1224 l 672 1104 q 689 1082 685 1090 q 693 1063 693 1074 q 681 1039 693 1050 q 650 1028 669 1028 q 619 1036 636 1028 q 579 1058 603 1044 l 463 1126 l 515 1126 z "},"Ȕ":{"ha":979,"x_min":104,"x_max":875,"o":"m 794 974 q 853 949 831 974 q 875 889 875 925 l 875 386 q 826 182 875 271 q 690 43 776 93 q 490 -7 604 -7 q 290 43 376 -7 q 153 182 203 93 q 104 386 104 271 l 104 889 q 129 949 104 925 q 193 974 154 974 q 251 949 225 974 q 276 889 276 925 l 276 386 q 306 266 276 317 q 385 188 336 215 q 490 160 435 160 q 601 188 550 160 q 685 266 653 215 q 717 386 717 317 l 717 889 q 738 949 717 925 q 794 974 758 974 m 351 1044 q 336 1047 344 1044 q 319 1053 328 1049 l 181 1126 q 129 1200 129 1154 q 154 1250 129 1232 q 203 1268 179 1268 q 240 1259 222 1268 q 271 1238 257 1250 l 390 1132 q 406 1113 401 1122 q 410 1094 410 1104 q 394 1058 410 1072 q 351 1044 378 1044 m 638 1058 q 622 1060 631 1058 q 606 1067 614 1063 l 467 1140 q 415 1214 415 1168 q 440 1264 415 1246 q 489 1282 465 1282 q 526 1273 508 1282 q 557 1251 543 1264 l 676 1146 q 692 1127 688 1136 q 696 1108 696 1118 q 680 1072 696 1086 q 638 1058 664 1058 z "},"Ü":{"ha":979,"x_min":104,"x_max":875,"o":"m 794 974 q 853 949 831 974 q 875 889 875 925 l 875 386 q 826 182 875 271 q 690 43 776 93 q 490 -7 604 -7 q 290 43 376 -7 q 153 182 203 93 q 104 386 104 271 l 104 889 q 129 949 104 925 q 193 974 154 974 q 251 949 225 974 q 276 889 276 925 l 276 386 q 306 266 276 317 q 385 188 336 215 q 490 160 435 160 q 601 188 550 160 q 685 266 653 215 q 717 386 717 317 l 717 889 q 738 949 717 925 q 794 974 758 974 m 626 1056 q 563 1071 583 1056 q 543 1125 543 1086 l 543 1150 q 564 1205 543 1190 q 626 1219 585 1219 q 694 1204 674 1219 q 714 1150 714 1189 l 714 1125 q 693 1070 714 1085 q 626 1056 672 1056 m 350 1056 q 287 1071 307 1056 q 267 1125 267 1086 l 267 1150 q 288 1205 267 1190 q 351 1219 310 1219 q 417 1204 397 1219 q 438 1150 438 1189 l 438 1125 q 417 1070 438 1085 q 350 1056 396 1056 z "},"Ụ":{"ha":979,"x_min":104,"x_max":875,"o":"m 794 974 q 853 949 831 974 q 875 889 875 925 l 875 386 q 826 182 875 271 q 690 43 776 93 q 490 -7 604 -7 q 290 43 376 -7 q 153 182 203 93 q 104 386 104 271 l 104 889 q 129 949 104 925 q 193 974 154 974 q 251 949 225 974 q 276 889 276 925 l 276 386 q 306 266 276 317 q 385 188 336 215 q 490 160 435 160 q 601 188 550 160 q 685 266 653 215 q 717 386 717 317 l 717 889 q 738 949 717 925 q 794 974 758 974 m 488 -204 q 422 -189 442 -204 q 403 -135 403 -174 l 403 -108 q 424 -53 403 -68 q 488 -39 446 -39 q 558 -53 539 -39 q 578 -108 578 -68 l 578 -135 q 557 -190 578 -175 q 488 -204 536 -204 z "},"Ù":{"ha":979,"x_min":104,"x_max":875,"o":"m 794 974 q 853 949 831 974 q 875 889 875 925 l 875 386 q 826 182 875 271 q 690 43 776 93 q 490 -7 604 -7 q 290 43 376 -7 q 153 182 203 93 q 104 386 104 271 l 104 889 q 129 949 104 925 q 193 974 154 974 q 251 949 225 974 q 276 889 276 925 l 276 386 q 306 266 276 317 q 385 188 336 215 q 490 160 435 160 q 601 188 550 160 q 685 266 653 215 q 717 386 717 317 l 717 889 q 738 949 717 925 q 794 974 758 974 m 488 1031 q 472 1033 481 1031 q 456 1039 464 1035 l 317 1113 q 265 1186 265 1140 q 290 1236 265 1218 q 339 1254 315 1254 q 376 1245 358 1254 q 407 1224 393 1236 l 526 1118 q 542 1099 538 1108 q 546 1081 546 1090 q 530 1044 546 1058 q 488 1031 514 1031 z "},"Ủ":{"ha":979,"x_min":104,"x_max":875,"o":"m 794 974 q 853 949 831 974 q 875 889 875 925 l 875 386 q 826 182 875 271 q 690 43 776 93 q 490 -7 604 -7 q 290 43 376 -7 q 153 182 203 93 q 104 386 104 271 l 104 889 q 129 949 104 925 q 193 974 154 974 q 251 949 225 974 q 276 889 276 925 l 276 386 q 306 266 276 317 q 385 188 336 215 q 490 160 435 160 q 601 188 550 160 q 685 266 653 215 q 717 386 717 317 l 717 889 q 738 949 717 925 q 794 974 758 974 m 356 1289 q 403 1318 378 1307 q 465 1329 428 1329 q 555 1310 524 1329 q 597 1262 586 1290 q 608 1208 608 1233 q 602 1169 608 1186 q 582 1133 596 1151 q 558 1104 568 1117 q 549 1081 549 1092 q 533 1056 549 1064 q 493 1049 517 1049 q 467 1056 481 1049 q 454 1081 454 1063 q 460 1108 454 1094 q 476 1135 467 1121 q 498 1167 488 1150 q 508 1194 508 1183 q 494 1222 508 1213 q 461 1232 481 1232 q 429 1224 443 1232 q 403 1208 415 1217 q 378 1201 393 1201 q 346 1218 364 1200 q 335 1258 328 1238 q 356 1289 342 1278 z "},"Ư":{"ha":979,"x_min":104,"x_max":1035,"o":"m 794 974 q 853 949 831 974 q 875 889 875 925 l 875 386 q 826 182 875 271 q 690 43 776 93 q 490 -7 604 -7 q 290 43 376 -7 q 153 182 203 93 q 104 386 104 271 l 104 889 q 129 949 104 925 q 193 974 154 974 q 251 949 225 974 q 276 889 276 925 l 276 386 q 306 266 276 317 q 385 188 336 215 q 490 160 435 160 q 601 188 550 160 q 685 266 653 215 q 717 386 717 317 l 717 889 q 738 949 717 925 q 794 974 758 974 m 778 833 l 778 972 q 864 993 832 972 q 896 1058 896 1014 q 914 1108 896 1083 q 967 1132 932 1132 q 1020 1106 1006 1132 q 1035 1058 1035 1081 q 1008 947 1035 999 q 926 865 982 896 q 778 833 869 833 z "},"Ứ":{"ha":979,"x_min":104,"x_max":1035,"o":"m 794 974 q 853 949 831 974 q 875 889 875 925 l 875 386 q 826 182 875 271 q 690 43 776 93 q 490 -7 604 -7 q 290 43 376 -7 q 153 182 203 93 q 104 386 104 271 l 104 889 q 129 949 104 925 q 193 974 154 974 q 251 949 225 974 q 276 889 276 925 l 276 386 q 306 266 276 317 q 385 188 336 215 q 490 160 435 160 q 601 188 550 160 q 685 266 653 215 q 717 386 717 317 l 717 889 q 738 949 717 925 q 794 974 758 974 m 778 833 l 778 972 q 864 993 832 972 q 896 1058 896 1014 q 914 1108 896 1083 q 967 1132 932 1132 q 1020 1106 1006 1132 q 1035 1058 1035 1081 q 1008 947 1035 999 q 926 865 982 896 q 778 833 869 833 m 503 1025 q 460 1039 476 1025 q 444 1075 444 1053 q 449 1094 444 1085 q 464 1113 454 1103 l 583 1218 q 616 1240 599 1231 q 651 1249 633 1249 q 700 1231 675 1249 q 725 1181 725 1213 q 712 1140 725 1160 q 674 1107 699 1119 l 535 1033 q 518 1026 526 1028 q 503 1025 510 1025 z "},"Ự":{"ha":979,"x_min":104,"x_max":1035,"o":"m 794 974 q 853 949 831 974 q 875 889 875 925 l 875 386 q 826 182 875 271 q 690 43 776 93 q 490 -7 604 -7 q 290 43 376 -7 q 153 182 203 93 q 104 386 104 271 l 104 889 q 129 949 104 925 q 193 974 154 974 q 251 949 225 974 q 276 889 276 925 l 276 386 q 306 266 276 317 q 385 188 336 215 q 490 160 435 160 q 601 188 550 160 q 685 266 653 215 q 717 386 717 317 l 717 889 q 738 949 717 925 q 794 974 758 974 m 778 833 l 778 972 q 864 993 832 972 q 896 1058 896 1014 q 914 1108 896 1083 q 967 1132 932 1132 q 1020 1106 1006 1132 q 1035 1058 1035 1081 q 1008 947 1035 999 q 926 865 982 896 q 778 833 869 833 m 497 -204 q 432 -189 451 -204 q 413 -135 413 -174 l 413 -108 q 434 -53 413 -68 q 497 -39 456 -39 q 568 -53 549 -39 q 588 -108 588 -68 l 588 -135 q 567 -190 588 -175 q 497 -204 546 -204 z "},"Ừ":{"ha":979,"x_min":104,"x_max":1035,"o":"m 794 974 q 853 949 831 974 q 875 889 875 925 l 875 386 q 826 182 875 271 q 690 43 776 93 q 490 -7 604 -7 q 290 43 376 -7 q 153 182 203 93 q 104 386 104 271 l 104 889 q 129 949 104 925 q 193 974 154 974 q 251 949 225 974 q 276 889 276 925 l 276 386 q 306 266 276 317 q 385 188 336 215 q 490 160 435 160 q 601 188 550 160 q 685 266 653 215 q 717 386 717 317 l 717 889 q 738 949 717 925 q 794 974 758 974 m 778 833 l 778 972 q 864 993 832 972 q 896 1058 896 1014 q 914 1108 896 1083 q 967 1132 932 1132 q 1020 1106 1006 1132 q 1035 1058 1035 1081 q 1008 947 1035 999 q 926 865 982 896 q 778 833 869 833 m 499 1031 q 483 1033 492 1031 q 467 1039 475 1035 l 328 1113 q 276 1186 276 1140 q 301 1236 276 1218 q 350 1254 326 1254 q 387 1245 369 1254 q 418 1224 404 1236 l 538 1118 q 553 1099 549 1108 q 557 1081 557 1090 q 541 1044 557 1058 q 499 1031 525 1031 z "},"Ử":{"ha":979,"x_min":104,"x_max":1035,"o":"m 794 974 q 853 949 831 974 q 875 889 875 925 l 875 386 q 826 182 875 271 q 690 43 776 93 q 490 -7 604 -7 q 290 43 376 -7 q 153 182 203 93 q 104 386 104 271 l 104 889 q 129 949 104 925 q 193 974 154 974 q 251 949 225 974 q 276 889 276 925 l 276 386 q 306 266 276 317 q 385 188 336 215 q 490 160 435 160 q 601 188 550 160 q 685 266 653 215 q 717 386 717 317 l 717 889 q 738 949 717 925 q 794 974 758 974 m 778 833 l 778 972 q 864 993 832 972 q 896 1058 896 1014 q 914 1108 896 1083 q 967 1132 932 1132 q 1020 1106 1006 1132 q 1035 1058 1035 1081 q 1008 947 1035 999 q 926 865 982 896 q 778 833 869 833 m 367 1289 q 414 1318 389 1307 q 476 1329 439 1329 q 566 1310 535 1329 q 608 1262 597 1290 q 619 1208 619 1233 q 613 1169 619 1186 q 593 1133 607 1151 q 569 1104 579 1117 q 560 1081 560 1092 q 544 1056 560 1064 q 504 1049 528 1049 q 478 1056 492 1049 q 465 1081 465 1063 q 472 1108 465 1094 q 488 1135 478 1121 q 509 1167 499 1150 q 519 1194 519 1183 q 506 1222 519 1213 q 472 1232 492 1232 q 440 1224 454 1232 q 414 1208 426 1217 q 390 1201 404 1201 q 357 1218 375 1200 q 346 1258 339 1238 q 367 1289 353 1278 z "},"Ữ":{"ha":979,"x_min":104,"x_max":1035,"o":"m 794 974 q 853 949 831 974 q 875 889 875 925 l 875 386 q 826 182 875 271 q 690 43 776 93 q 490 -7 604 -7 q 290 43 376 -7 q 153 182 203 93 q 104 386 104 271 l 104 889 q 129 949 104 925 q 193 974 154 974 q 251 949 225 974 q 276 889 276 925 l 276 386 q 306 266 276 317 q 385 188 336 215 q 490 160 435 160 q 601 188 550 160 q 685 266 653 215 q 717 386 717 317 l 717 889 q 738 949 717 925 q 794 974 758 974 m 778 833 l 778 972 q 864 993 832 972 q 896 1058 896 1014 q 914 1108 896 1083 q 967 1132 932 1132 q 1020 1106 1006 1132 q 1035 1058 1035 1081 q 1008 947 1035 999 q 926 865 982 896 q 778 833 869 833 m 314 1022 q 260 1049 283 1022 q 238 1121 238 1076 q 277 1204 238 1165 q 392 1243 317 1243 q 479 1222 439 1243 q 553 1178 519 1200 q 613 1157 588 1157 q 636 1165 628 1157 q 640 1186 644 1172 q 647 1236 631 1218 q 689 1254 664 1254 q 743 1228 721 1254 q 765 1158 765 1201 q 751 1106 765 1135 q 708 1055 738 1076 q 633 1033 679 1033 q 536 1055 582 1033 q 453 1098 490 1076 q 390 1119 415 1119 q 367 1112 376 1119 q 363 1090 358 1104 q 356 1041 372 1060 q 314 1022 339 1022 z "},"Ű":{"ha":979,"x_min":104,"x_max":875,"o":"m 794 974 q 853 949 831 974 q 875 889 875 925 l 875 386 q 826 182 875 271 q 690 43 776 93 q 490 -7 604 -7 q 290 43 376 -7 q 153 182 203 93 q 104 386 104 271 l 104 889 q 129 949 104 925 q 193 974 154 974 q 251 949 225 974 q 276 889 276 925 l 276 386 q 306 266 276 317 q 385 188 336 215 q 490 160 435 160 q 601 188 550 160 q 685 266 653 215 q 717 386 717 317 l 717 889 q 738 949 717 925 q 794 974 758 974 z "},"Ȗ":{"ha":979,"x_min":104,"x_max":875,"o":"m 794 974 q 853 949 831 974 q 875 889 875 925 l 875 386 q 826 182 875 271 q 690 43 776 93 q 490 -7 604 -7 q 290 43 376 -7 q 153 182 203 93 q 104 386 104 271 l 104 889 q 129 949 104 925 q 193 974 154 974 q 251 949 225 974 q 276 889 276 925 l 276 386 q 306 266 276 317 q 385 188 336 215 q 490 160 435 160 q 601 188 550 160 q 685 266 653 215 q 717 386 717 317 l 717 889 q 738 949 717 925 q 794 974 758 974 m 490 1289 q 586 1274 543 1289 q 661 1231 629 1260 q 710 1160 693 1201 q 711 1104 725 1125 q 669 1083 697 1083 q 623 1097 640 1083 q 586 1133 606 1110 q 548 1161 571 1151 q 490 1171 525 1171 q 433 1161 456 1171 q 394 1133 410 1151 q 358 1097 376 1110 q 311 1083 340 1083 q 270 1103 285 1083 q 269 1157 256 1124 q 319 1229 288 1200 q 394 1274 350 1258 q 490 1289 438 1289 z "},"Ū":{"ha":979,"x_min":104,"x_max":875,"o":"m 794 974 q 853 949 831 974 q 875 889 875 925 l 875 386 q 826 182 875 271 q 690 43 776 93 q 490 -7 604 -7 q 290 43 376 -7 q 153 182 203 93 q 104 386 104 271 l 104 889 q 129 949 104 925 q 193 974 154 974 q 251 949 225 974 q 276 889 276 925 l 276 386 q 306 266 276 317 q 385 188 336 215 q 490 160 435 160 q 601 188 550 160 q 685 266 653 215 q 717 386 717 317 l 717 889 q 738 949 717 925 q 794 974 758 974 m 322 1042 q 253 1104 253 1042 q 322 1165 253 1165 l 658 1165 q 728 1104 728 1165 q 658 1042 728 1042 l 322 1042 z "},"Ṻ":{"ha":979,"x_min":104,"x_max":875,"o":"m 794 974 q 853 949 831 974 q 875 889 875 925 l 875 386 q 826 182 875 271 q 690 43 776 93 q 490 -7 604 -7 q 290 43 376 -7 q 153 182 203 93 q 104 386 104 271 l 104 889 q 129 949 104 925 q 193 974 154 974 q 251 949 225 974 q 276 889 276 925 l 276 386 q 306 266 276 317 q 385 188 336 215 q 490 160 435 160 q 601 188 550 160 q 685 266 653 215 q 717 386 717 317 l 717 889 q 738 949 717 925 q 794 974 758 974 m 322 1042 q 253 1104 253 1042 q 322 1165 253 1165 l 658 1165 q 728 1104 728 1165 q 658 1042 728 1042 l 322 1042 m 626 1290 q 563 1306 583 1290 q 543 1360 543 1321 l 543 1385 q 564 1440 543 1425 q 626 1454 585 1454 q 694 1439 674 1454 q 714 1385 714 1424 l 714 1360 q 693 1305 714 1319 q 626 1290 672 1290 m 350 1290 q 287 1306 307 1290 q 267 1360 267 1321 l 267 1385 q 288 1440 267 1425 q 351 1454 310 1454 q 417 1439 397 1454 q 438 1385 438 1424 l 438 1360 q 417 1305 438 1319 q 350 1290 396 1290 z "},"Ų":{"ha":979,"x_min":104,"x_max":875,"o":"m 613 -287 q 495 -251 544 -287 q 446 -139 446 -215 q 469 -37 446 -82 q 531 40 493 7 q 614 96 569 74 q 700 129 658 118 l 546 -6 q 518 -6 532 -6 q 490 -7 504 -7 q 290 43 376 -7 q 153 182 203 93 q 104 386 104 271 l 104 889 q 129 949 104 925 q 193 974 154 974 q 254 949 232 974 q 276 889 276 925 l 276 386 q 306 266 276 317 q 385 188 336 215 q 490 160 435 160 q 601 188 550 160 q 685 266 653 215 q 717 386 717 317 l 717 889 q 740 949 717 925 q 794 974 764 974 q 853 949 831 974 q 875 889 875 925 l 875 386 q 860 270 875 332 q 813 153 846 208 q 722 61 779 99 q 645 0 676 31 q 599 -58 614 -31 q 583 -108 583 -85 q 597 -146 583 -133 q 626 -158 610 -158 q 656 -142 643 -158 q 685 -121 668 -125 q 713 -117 703 -117 q 756 -134 738 -117 q 774 -183 774 -151 q 751 -230 774 -206 q 691 -271 728 -254 q 613 -287 654 -287 z "},"Ů":{"ha":979,"x_min":104,"x_max":875,"o":"m 794 974 q 853 949 831 974 q 875 889 875 925 l 875 386 q 826 182 875 271 q 690 43 776 93 q 490 -7 604 -7 q 290 43 376 -7 q 153 182 203 93 q 104 386 104 271 l 104 889 q 129 949 104 925 q 193 974 154 974 q 251 949 225 974 q 276 889 276 925 l 276 386 q 306 266 276 317 q 385 188 336 215 q 490 160 435 160 q 601 188 550 160 q 685 266 653 215 q 717 386 717 317 l 717 889 q 738 949 717 925 q 794 974 758 974 m 490 1042 q 413 1063 449 1042 q 354 1118 376 1083 q 332 1193 332 1153 q 354 1271 332 1236 q 413 1326 376 1306 q 490 1347 449 1347 q 568 1326 532 1347 q 626 1271 604 1306 q 649 1193 649 1236 q 626 1118 649 1153 q 568 1063 604 1083 q 490 1042 532 1042 m 490 1139 q 534 1154 517 1139 q 551 1193 551 1169 q 533 1236 551 1222 q 490 1250 514 1250 q 447 1235 464 1250 q 429 1193 429 1221 q 447 1154 429 1169 q 490 1139 464 1139 z "},"Ũ":{"ha":979,"x_min":104,"x_max":875,"o":"m 794 974 q 853 949 831 974 q 875 889 875 925 l 875 386 q 826 182 875 271 q 690 43 776 93 q 490 -7 604 -7 q 290 43 376 -7 q 153 182 203 93 q 104 386 104 271 l 104 889 q 129 949 104 925 q 193 974 154 974 q 251 949 225 974 q 276 889 276 925 l 276 386 q 306 266 276 317 q 385 188 336 215 q 490 160 435 160 q 601 188 550 160 q 685 266 653 215 q 717 386 717 317 l 717 889 q 738 949 717 925 q 794 974 758 974 m 303 1022 q 249 1049 272 1022 q 226 1121 226 1076 q 266 1204 226 1165 q 381 1243 306 1243 q 468 1222 428 1243 q 542 1178 508 1200 q 601 1157 576 1157 q 625 1165 617 1157 q 629 1186 633 1172 q 636 1236 619 1218 q 678 1254 653 1254 q 732 1228 710 1254 q 754 1158 754 1201 q 740 1106 754 1135 q 697 1055 726 1076 q 622 1033 668 1033 q 525 1055 571 1033 q 442 1098 479 1076 q 379 1119 404 1119 q 356 1112 365 1119 q 351 1090 347 1104 q 344 1041 361 1060 q 303 1022 328 1022 z "},"Ṹ":{"ha":979,"x_min":104,"x_max":875,"o":"m 794 974 q 853 949 831 974 q 875 889 875 925 l 875 386 q 826 182 875 271 q 690 43 776 93 q 490 -7 604 -7 q 290 43 376 -7 q 153 182 203 93 q 104 386 104 271 l 104 889 q 129 949 104 925 q 193 974 154 974 q 251 949 225 974 q 276 889 276 925 l 276 386 q 306 266 276 317 q 385 188 336 215 q 490 160 435 160 q 601 188 550 160 q 685 266 653 215 q 717 386 717 317 l 717 889 q 738 949 717 925 q 794 974 758 974 m 303 1022 q 249 1049 272 1022 q 226 1121 226 1076 q 266 1204 226 1165 q 381 1243 306 1243 q 468 1222 428 1243 q 542 1178 508 1200 q 601 1157 576 1157 q 625 1165 617 1157 q 629 1186 633 1172 q 636 1236 619 1218 q 678 1254 653 1254 q 732 1228 710 1254 q 754 1158 754 1201 q 740 1106 754 1135 q 697 1055 726 1076 q 622 1033 668 1033 q 525 1055 571 1033 q 442 1098 479 1076 q 379 1119 404 1119 q 356 1112 365 1119 q 351 1090 347 1104 q 344 1041 361 1060 q 303 1022 328 1022 m 492 1326 q 449 1340 465 1326 q 433 1376 433 1354 q 438 1395 433 1386 q 453 1414 443 1404 l 572 1519 q 605 1541 588 1532 q 640 1550 622 1550 q 689 1532 664 1550 q 714 1482 714 1514 q 701 1441 714 1461 q 663 1408 688 1421 l 524 1335 q 507 1328 515 1329 q 492 1326 499 1326 z "},"V":{"ha":942,"x_min":42,"x_max":900,"o":"m 814 975 q 874 952 849 975 q 900 894 900 929 q 892 857 900 876 l 549 54 q 513 13 536 26 q 467 0 490 0 q 424 15 444 1 q 392 53 403 28 l 49 858 q 43 876 44 867 q 42 893 42 885 q 71 955 42 933 q 126 976 100 976 q 203 922 179 976 l 507 207 l 458 206 l 738 922 q 814 975 761 975 z "},"W":{"ha":1310,"x_min":22,"x_max":1288,"o":"m 1197 976 q 1258 952 1229 976 q 1288 886 1288 928 q 1283 858 1288 874 l 1010 53 q 980 15 1001 28 q 935 0 958 1 q 888 14 911 0 q 853 54 865 28 l 647 521 l 660 513 l 457 54 q 422 14 444 28 q 375 0 399 0 q 331 15 353 1 q 300 53 308 28 l 26 858 q 22 886 22 874 q 52 952 22 928 q 114 976 82 976 q 163 963 140 976 q 194 922 186 949 l 415 253 l 385 254 l 582 728 q 614 767 593 753 q 661 781 635 782 q 708 767 688 782 q 739 728 729 753 l 919 275 l 897 261 l 1115 922 q 1147 963 1124 949 q 1197 976 1171 976 z "},"Ẃ":{"ha":1310,"x_min":22,"x_max":1288,"o":"m 1197 976 q 1258 952 1229 976 q 1288 886 1288 928 q 1283 858 1288 874 l 1010 53 q 980 15 1001 28 q 935 0 958 1 q 888 14 911 0 q 853 54 865 28 l 647 521 l 660 513 l 457 54 q 422 14 444 28 q 375 0 399 0 q 331 15 353 1 q 300 53 308 28 l 26 858 q 22 886 22 874 q 52 952 22 928 q 114 976 82 976 q 163 963 140 976 q 194 922 186 949 l 415 253 l 385 254 l 582 728 q 614 767 593 753 q 661 781 635 782 q 708 767 688 782 q 739 728 729 753 l 919 275 l 897 261 l 1115 922 q 1147 963 1124 949 q 1197 976 1171 976 m 657 1025 q 615 1039 631 1025 q 599 1075 599 1053 q 603 1094 599 1085 q 618 1113 608 1103 l 738 1218 q 770 1240 753 1231 q 806 1249 788 1249 q 854 1231 829 1249 q 879 1181 879 1213 q 866 1140 879 1160 q 828 1107 853 1119 l 689 1033 q 672 1026 681 1028 q 657 1025 664 1025 z "},"Ŵ":{"ha":1310,"x_min":22,"x_max":1288,"o":"m 1197 976 q 1258 952 1229 976 q 1288 886 1288 928 q 1283 858 1288 874 l 1010 53 q 980 15 1001 28 q 935 0 958 1 q 888 14 911 0 q 853 54 865 28 l 647 521 l 660 513 l 457 54 q 422 14 444 28 q 375 0 399 0 q 331 15 353 1 q 300 53 308 28 l 26 858 q 22 886 22 874 q 52 952 22 928 q 114 976 82 976 q 163 963 140 976 q 194 922 186 949 l 415 253 l 385 254 l 582 728 q 614 767 593 753 q 661 781 635 782 q 708 767 688 782 q 739 728 729 753 l 919 275 l 897 261 l 1115 922 q 1147 963 1124 949 q 1197 976 1171 976 m 681 1126 l 564 1058 q 524 1036 540 1044 q 493 1028 507 1028 q 463 1039 475 1028 q 450 1063 450 1050 q 454 1082 450 1074 q 471 1104 458 1090 l 558 1204 q 596 1234 576 1224 q 643 1244 615 1244 l 665 1244 q 713 1234 693 1244 q 750 1204 732 1224 l 838 1104 q 854 1082 850 1090 q 858 1063 858 1074 q 847 1039 858 1050 q 815 1028 835 1028 q 785 1036 801 1028 q 744 1058 768 1044 l 628 1126 l 681 1126 z "},"Ẅ":{"ha":1310,"x_min":22,"x_max":1288,"o":"m 1197 976 q 1258 952 1229 976 q 1288 886 1288 928 q 1283 858 1288 874 l 1010 53 q 980 15 1001 28 q 935 0 958 1 q 888 14 911 0 q 853 54 865 28 l 647 521 l 660 513 l 457 54 q 422 14 444 28 q 375 0 399 0 q 331 15 353 1 q 300 53 308 28 l 26 858 q 22 886 22 874 q 52 952 22 928 q 114 976 82 976 q 163 963 140 976 q 194 922 186 949 l 415 253 l 385 254 l 582 728 q 614 767 593 753 q 661 781 635 782 q 708 767 688 782 q 739 728 729 753 l 919 275 l 897 261 l 1115 922 q 1147 963 1124 949 q 1197 976 1171 976 m 792 1056 q 728 1071 749 1056 q 708 1125 708 1086 l 708 1150 q 729 1205 708 1190 q 792 1219 750 1219 q 859 1204 839 1219 q 879 1150 879 1189 l 879 1125 q 858 1070 879 1085 q 792 1056 838 1056 m 515 1056 q 452 1071 472 1056 q 432 1125 432 1086 l 432 1150 q 453 1205 432 1190 q 517 1219 475 1219 q 583 1204 563 1219 q 603 1150 603 1189 l 603 1125 q 582 1070 603 1085 q 515 1056 561 1056 z "},"Ẁ":{"ha":1310,"x_min":22,"x_max":1288,"o":"m 1197 976 q 1258 952 1229 976 q 1288 886 1288 928 q 1283 858 1288 874 l 1010 53 q 980 15 1001 28 q 935 0 958 1 q 888 14 911 0 q 853 54 865 28 l 647 521 l 660 513 l 457 54 q 422 14 444 28 q 375 0 399 0 q 331 15 353 1 q 300 53 308 28 l 26 858 q 22 886 22 874 q 52 952 22 928 q 114 976 82 976 q 163 963 140 976 q 194 922 186 949 l 415 253 l 385 254 l 582 728 q 614 767 593 753 q 661 781 635 782 q 708 767 688 782 q 739 728 729 753 l 919 275 l 897 261 l 1115 922 q 1147 963 1124 949 q 1197 976 1171 976 m 653 1031 q 638 1033 646 1031 q 621 1039 629 1035 l 482 1113 q 431 1186 431 1140 q 456 1236 431 1218 q 504 1254 481 1254 q 541 1245 524 1254 q 572 1224 558 1236 l 692 1118 q 707 1099 703 1108 q 711 1081 711 1090 q 695 1044 711 1058 q 653 1031 679 1031 z "},"X":{"ha":910,"x_min":63,"x_max":847,"o":"m 769 974 q 824 949 801 974 q 847 896 847 924 q 829 846 847 869 l 550 478 l 456 607 l 701 933 q 769 974 731 974 m 150 976 q 218 940 190 976 l 829 128 q 846 76 846 106 q 818 15 846 38 q 763 -7 790 -7 q 694 29 722 -7 l 83 842 q 65 892 65 864 q 92 952 65 928 q 150 976 119 976 m 138 -7 q 85 16 107 -7 q 63 67 63 39 q 83 124 63 97 l 365 506 l 457 371 l 207 32 q 138 -7 179 -7 z "},"Y":{"ha":828,"x_min":24,"x_max":807,"o":"m 724 976 q 781 952 756 976 q 807 890 807 928 q 803 865 807 878 q 792 839 800 851 l 476 388 l 501 483 l 501 85 q 477 24 501 49 q 421 0 453 0 q 362 24 386 0 q 338 85 338 49 l 338 472 l 349 428 l 49 826 q 29 861 35 844 q 24 892 24 878 q 53 953 24 929 q 113 976 82 976 q 181 938 151 976 l 447 569 l 408 575 l 654 935 q 724 976 683 976 z "},"Ý":{"ha":828,"x_min":24,"x_max":807,"o":"m 724 976 q 781 952 756 976 q 807 890 807 928 q 803 865 807 878 q 792 839 800 851 l 476 388 l 501 483 l 501 85 q 477 24 501 49 q 421 0 453 0 q 362 24 386 0 q 338 85 338 49 l 338 472 l 349 428 l 49 826 q 29 861 35 844 q 24 892 24 878 q 53 953 24 929 q 113 976 82 976 q 181 938 151 976 l 447 569 l 408 575 l 654 935 q 724 976 683 976 m 415 1025 q 373 1039 389 1025 q 357 1075 357 1053 q 362 1094 357 1085 q 376 1113 367 1103 l 496 1218 q 528 1240 511 1231 q 564 1249 546 1249 q 613 1231 588 1249 q 638 1181 638 1213 q 624 1140 638 1160 q 586 1107 611 1119 l 447 1033 q 431 1026 439 1028 q 415 1025 422 1025 z "},"Ŷ":{"ha":828,"x_min":24,"x_max":807,"o":"m 724 976 q 781 952 756 976 q 807 890 807 928 q 803 865 807 878 q 792 839 800 851 l 476 388 l 501 483 l 501 85 q 477 24 501 49 q 421 0 453 0 q 362 24 386 0 q 338 85 338 49 l 338 472 l 349 428 l 49 826 q 29 861 35 844 q 24 892 24 878 q 53 953 24 929 q 113 976 82 976 q 181 938 151 976 l 447 569 l 408 575 l 654 935 q 724 976 683 976 m 439 1126 l 322 1058 q 282 1036 299 1044 q 251 1028 265 1028 q 221 1039 233 1028 q 208 1063 208 1050 q 213 1082 208 1074 q 229 1104 217 1090 l 317 1204 q 354 1234 335 1224 q 401 1244 374 1244 l 424 1244 q 471 1234 451 1244 q 508 1204 490 1224 l 596 1104 q 613 1082 608 1090 q 617 1063 617 1074 q 605 1039 617 1050 q 574 1028 593 1028 q 543 1036 560 1028 q 503 1058 526 1044 l 386 1126 l 439 1126 z "},"Ÿ":{"ha":828,"x_min":24,"x_max":807,"o":"m 724 976 q 781 952 756 976 q 807 890 807 928 q 803 865 807 878 q 792 839 800 851 l 476 388 l 501 483 l 501 85 q 477 24 501 49 q 421 0 453 0 q 362 24 386 0 q 338 85 338 49 l 338 472 l 349 428 l 49 826 q 29 861 35 844 q 24 892 24 878 q 53 953 24 929 q 113 976 82 976 q 181 938 151 976 l 447 569 l 408 575 l 654 935 q 724 976 683 976 m 550 1056 q 487 1071 507 1056 q 467 1125 467 1086 l 467 1150 q 488 1205 467 1190 q 550 1219 508 1219 q 617 1204 597 1219 q 638 1150 638 1189 l 638 1125 q 617 1070 638 1085 q 550 1056 596 1056 m 274 1056 q 210 1071 231 1056 q 190 1125 190 1086 l 190 1150 q 212 1205 190 1190 q 275 1219 233 1219 q 341 1204 321 1219 q 361 1150 361 1189 l 361 1125 q 340 1070 361 1085 q 274 1056 319 1056 z "},"Ẏ":{"ha":828,"x_min":24,"x_max":807,"o":"m 724 976 q 781 952 756 976 q 807 890 807 928 q 803 865 807 878 q 792 839 800 851 l 476 388 l 501 483 l 501 85 q 477 24 501 49 q 421 0 453 0 q 362 24 386 0 q 338 85 338 49 l 338 472 l 349 428 l 49 826 q 29 861 35 844 q 24 892 24 878 q 53 953 24 929 q 113 976 82 976 q 181 938 151 976 l 447 569 l 408 575 l 654 935 q 724 976 683 976 m 411 1028 q 346 1043 365 1028 q 326 1097 326 1058 l 326 1124 q 348 1178 326 1164 q 413 1193 369 1193 q 482 1178 463 1193 q 501 1124 501 1164 l 501 1097 q 481 1042 501 1057 q 411 1028 460 1028 z "},"Ỵ":{"ha":828,"x_min":24,"x_max":807,"o":"m 724 976 q 781 952 756 976 q 807 890 807 928 q 803 865 807 878 q 792 839 800 851 l 476 388 l 501 483 l 501 85 q 477 24 501 49 q 421 0 453 0 q 362 24 386 0 q 338 85 338 49 l 338 472 l 349 428 l 49 826 q 29 861 35 844 q 24 892 24 878 q 53 953 24 929 q 113 976 82 976 q 181 938 151 976 l 447 569 l 408 575 l 654 935 q 724 976 683 976 m 418 -206 q 353 -190 372 -206 q 333 -136 333 -175 l 333 -110 q 355 -55 333 -69 q 418 -40 376 -40 q 489 -55 469 -40 q 508 -110 508 -69 l 508 -136 q 488 -191 508 -176 q 418 -206 467 -206 z "},"Ỳ":{"ha":828,"x_min":24,"x_max":807,"o":"m 724 976 q 781 952 756 976 q 807 890 807 928 q 803 865 807 878 q 792 839 800 851 l 476 388 l 501 483 l 501 85 q 477 24 501 49 q 421 0 453 0 q 362 24 386 0 q 338 85 338 49 l 338 472 l 349 428 l 49 826 q 29 861 35 844 q 24 892 24 878 q 53 953 24 929 q 113 976 82 976 q 181 938 151 976 l 447 569 l 408 575 l 654 935 q 724 976 683 976 m 411 1031 q 396 1033 404 1031 q 379 1039 388 1035 l 240 1113 q 189 1186 189 1140 q 214 1236 189 1218 q 263 1254 239 1254 q 299 1245 282 1254 q 331 1224 317 1236 l 450 1118 q 465 1099 461 1108 q 469 1081 469 1090 q 453 1044 469 1058 q 411 1031 438 1031 z "},"Ỷ":{"ha":828,"x_min":24,"x_max":807,"o":"m 724 976 q 781 952 756 976 q 807 890 807 928 q 803 865 807 878 q 792 839 800 851 l 476 388 l 501 483 l 501 85 q 477 24 501 49 q 421 0 453 0 q 362 24 386 0 q 338 85 338 49 l 338 472 l 349 428 l 49 826 q 29 861 35 844 q 24 892 24 878 q 53 953 24 929 q 113 976 82 976 q 181 938 151 976 l 447 569 l 408 575 l 654 935 q 724 976 683 976 m 279 1289 q 326 1318 301 1307 q 389 1329 351 1329 q 478 1310 447 1329 q 521 1262 510 1290 q 532 1208 532 1233 q 526 1169 532 1186 q 506 1133 519 1151 q 482 1104 492 1117 q 472 1081 472 1092 q 456 1056 472 1064 q 417 1049 440 1049 q 391 1056 404 1049 q 378 1081 378 1063 q 384 1108 378 1094 q 400 1135 390 1121 q 422 1167 411 1150 q 432 1194 432 1183 q 418 1222 432 1213 q 385 1232 404 1232 q 353 1224 367 1232 q 326 1208 339 1217 q 302 1201 317 1201 q 269 1218 288 1200 q 258 1258 251 1238 q 279 1289 265 1278 z "},"Ȳ":{"ha":828,"x_min":24,"x_max":807,"o":"m 724 976 q 781 952 756 976 q 807 890 807 928 q 803 865 807 878 q 792 839 800 851 l 476 388 l 501 483 l 501 85 q 477 24 501 49 q 421 0 453 0 q 362 24 386 0 q 338 85 338 49 l 338 472 l 349 428 l 49 826 q 29 861 35 844 q 24 892 24 878 q 53 953 24 929 q 113 976 82 976 q 181 938 151 976 l 447 569 l 408 575 l 654 935 q 724 976 683 976 m 246 1042 q 176 1104 176 1042 q 246 1165 176 1165 l 582 1165 q 651 1104 651 1165 q 582 1042 651 1042 l 246 1042 z "},"Ỹ":{"ha":828,"x_min":24,"x_max":807,"o":"m 724 976 q 781 952 756 976 q 807 890 807 928 q 803 865 807 878 q 792 839 800 851 l 476 388 l 501 483 l 501 85 q 477 24 501 49 q 421 0 453 0 q 362 24 386 0 q 338 85 338 49 l 338 472 l 349 428 l 49 826 q 29 861 35 844 q 24 892 24 878 q 53 953 24 929 q 113 976 82 976 q 181 938 151 976 l 447 569 l 408 575 l 654 935 q 724 976 683 976 m 226 1022 q 173 1049 196 1022 q 150 1121 150 1076 q 190 1204 150 1165 q 304 1243 229 1243 q 392 1222 351 1243 q 466 1178 432 1200 q 525 1157 500 1157 q 549 1165 540 1157 q 553 1186 557 1172 q 560 1236 543 1218 q 601 1254 576 1254 q 656 1228 633 1254 q 678 1158 678 1201 q 664 1106 678 1135 q 621 1055 650 1076 q 546 1033 592 1033 q 449 1055 494 1033 q 365 1098 403 1076 q 303 1119 328 1119 q 280 1112 289 1119 q 275 1090 271 1104 q 268 1041 285 1060 q 226 1022 251 1022 z "},"Z":{"ha":900,"x_min":49,"x_max":851,"o":"m 761 972 q 822 950 792 972 q 851 890 851 928 q 832 838 851 864 l 300 154 l 283 160 l 747 160 q 808 138 783 160 q 832 81 832 117 q 808 23 832 46 q 747 0 783 0 l 138 0 q 75 26 101 0 q 49 82 49 51 q 68 135 49 108 l 601 821 l 614 813 l 193 813 q 133 835 157 813 q 108 893 108 857 q 133 951 108 929 q 193 972 157 972 l 761 972 z "},"Ź":{"ha":900,"x_min":49,"x_max":851,"o":"m 761 972 q 822 950 792 972 q 851 890 851 928 q 832 838 851 864 l 300 154 l 283 160 l 747 160 q 808 138 783 160 q 832 81 832 117 q 808 23 832 46 q 747 0 783 0 l 138 0 q 75 26 101 0 q 49 82 49 51 q 68 135 49 108 l 601 821 l 614 813 l 193 813 q 133 835 157 813 q 108 893 108 857 q 133 951 108 929 q 193 972 157 972 l 761 972 m 451 1025 q 409 1039 425 1025 q 393 1075 393 1053 q 398 1094 393 1085 q 413 1113 403 1103 l 532 1218 q 565 1240 547 1231 q 600 1249 582 1249 q 649 1231 624 1249 q 674 1181 674 1213 q 660 1140 674 1160 q 622 1107 647 1119 l 483 1033 q 467 1026 475 1028 q 451 1025 458 1025 z "},"Ž":{"ha":900,"x_min":49,"x_max":851,"o":"m 761 972 q 822 950 792 972 q 851 890 851 928 q 832 838 851 864 l 300 154 l 283 160 l 747 160 q 808 138 783 160 q 832 81 832 117 q 808 23 832 46 q 747 0 783 0 l 138 0 q 75 26 101 0 q 49 82 49 51 q 68 135 49 108 l 601 821 l 614 813 l 193 813 q 133 835 157 813 q 108 893 108 857 q 133 951 108 929 q 193 972 157 972 l 761 972 m 425 1142 l 542 1217 q 582 1238 565 1232 q 613 1244 599 1244 q 644 1233 632 1244 q 656 1210 656 1222 q 651 1192 656 1200 q 635 1168 647 1183 l 547 1068 q 510 1038 529 1049 q 463 1028 490 1028 l 440 1028 q 393 1038 413 1028 q 356 1068 374 1049 l 268 1168 q 251 1192 256 1183 q 247 1210 247 1200 q 260 1233 247 1222 q 290 1244 272 1244 q 361 1217 318 1244 l 478 1142 l 425 1142 z "},"Ż":{"ha":900,"x_min":49,"x_max":851,"o":"m 761 972 q 822 950 792 972 q 851 890 851 928 q 832 838 851 864 l 300 154 l 283 160 l 747 160 q 808 138 783 160 q 832 81 832 117 q 808 23 832 46 q 747 0 783 0 l 138 0 q 75 26 101 0 q 49 82 49 51 q 68 135 49 108 l 601 821 l 614 813 l 193 813 q 133 835 157 813 q 108 893 108 857 q 133 951 108 929 q 193 972 157 972 l 761 972 m 447 1028 q 382 1043 401 1028 q 363 1097 363 1058 l 363 1124 q 384 1178 363 1164 q 449 1193 406 1193 q 518 1178 499 1193 q 538 1124 538 1164 l 538 1097 q 517 1042 538 1057 q 447 1028 496 1028 z "},"Ẓ":{"ha":900,"x_min":49,"x_max":851,"o":"m 761 972 q 822 950 792 972 q 851 890 851 928 q 832 838 851 864 l 300 154 l 283 160 l 747 160 q 808 138 783 160 q 832 81 832 117 q 808 23 832 46 q 747 0 783 0 l 138 0 q 75 26 101 0 q 49 82 49 51 q 68 135 49 108 l 601 821 l 614 813 l 193 813 q 133 835 157 813 q 108 893 108 857 q 133 951 108 929 q 193 972 157 972 l 761 972 m 447 -204 q 382 -189 401 -204 q 363 -135 363 -174 l 363 -108 q 384 -53 363 -68 q 447 -39 406 -39 q 518 -53 499 -39 q 538 -108 538 -68 l 538 -135 q 517 -190 538 -175 q 447 -204 496 -204 z "},"a":{"ha":865,"x_min":49,"x_max":775,"o":"m 692 757 q 751 733 728 757 q 775 672 775 710 l 775 85 q 751 24 775 49 q 692 0 728 0 q 632 24 656 0 q 608 85 608 49 l 608 153 l 639 140 q 619 97 639 122 q 567 46 600 71 q 488 3 533 21 q 390 -14 443 -14 q 217 35 294 -14 q 94 172 139 85 q 49 371 49 258 q 94 572 49 485 q 215 708 139 658 q 385 757 292 757 q 494 739 444 757 q 581 693 544 721 q 638 637 618 665 q 658 589 658 608 l 608 571 l 608 672 q 632 733 608 708 q 692 757 656 757 m 411 139 q 518 169 472 139 q 590 253 564 200 q 615 371 615 306 q 590 490 615 438 q 518 574 564 543 q 411 604 472 604 q 306 574 351 604 q 234 490 260 543 q 208 371 208 438 q 234 253 208 306 q 306 169 260 200 q 411 139 351 139 z "},"á":{"ha":865,"x_min":49,"x_max":775,"o":"m 692 757 q 751 733 728 757 q 775 672 775 710 l 775 85 q 751 24 775 49 q 692 0 728 0 q 632 24 656 0 q 608 85 608 49 l 608 153 l 639 140 q 619 97 639 122 q 567 46 600 71 q 488 3 533 21 q 390 -14 443 -14 q 217 35 294 -14 q 94 172 139 85 q 49 371 49 258 q 94 572 49 485 q 215 708 139 658 q 385 757 292 757 q 494 739 444 757 q 581 693 544 721 q 638 637 618 665 q 658 589 658 608 l 608 571 l 608 672 q 632 733 608 708 q 692 757 656 757 m 411 139 q 518 169 472 139 q 590 253 564 200 q 615 371 615 306 q 590 490 615 438 q 518 574 564 543 q 411 604 472 604 q 306 574 351 604 q 234 490 260 543 q 208 371 208 438 q 234 253 208 306 q 306 169 260 200 q 411 139 351 139 z "},"ă":{"ha":865,"x_min":49,"x_max":775,"o":"m 692 757 q 751 733 728 757 q 775 672 775 710 l 775 85 q 751 24 775 49 q 692 0 728 0 q 632 24 656 0 q 608 85 608 49 l 608 153 l 639 140 q 619 97 639 122 q 567 46 600 71 q 488 3 533 21 q 390 -14 443 -14 q 217 35 294 -14 q 94 172 139 85 q 49 371 49 258 q 94 572 49 485 q 215 708 139 658 q 385 757 292 757 q 494 739 444 757 q 581 693 544 721 q 638 637 618 665 q 658 589 658 608 l 608 571 l 608 672 q 632 733 608 708 q 692 757 656 757 m 411 139 q 518 169 472 139 q 590 253 564 200 q 615 371 615 306 q 590 490 615 438 q 518 574 564 543 q 411 604 472 604 q 306 574 351 604 q 234 490 260 543 q 208 371 208 438 q 234 253 208 306 q 306 169 260 200 q 411 139 351 139 z "},"ắ":{"ha":865,"x_min":49,"x_max":775,"o":"m 692 757 q 751 733 728 757 q 775 672 775 710 l 775 85 q 751 24 775 49 q 692 0 728 0 q 632 24 656 0 q 608 85 608 49 l 608 153 l 639 140 q 619 97 639 122 q 567 46 600 71 q 488 3 533 21 q 390 -14 443 -14 q 217 35 294 -14 q 94 172 139 85 q 49 371 49 258 q 94 572 49 485 q 215 708 139 658 q 385 757 292 757 q 494 739 444 757 q 581 693 544 721 q 638 637 618 665 q 658 589 658 608 l 608 571 l 608 672 q 632 733 608 708 q 692 757 656 757 m 411 139 q 518 169 472 139 q 590 253 564 200 q 615 371 615 306 q 590 490 615 438 q 518 574 564 543 q 411 604 472 604 q 306 574 351 604 q 234 490 260 543 q 208 371 208 438 q 234 253 208 306 q 306 169 260 200 q 411 139 351 139 z "},"ặ":{"ha":865,"x_min":49,"x_max":775,"o":"m 692 757 q 751 733 728 757 q 775 672 775 710 l 775 85 q 751 24 775 49 q 692 0 728 0 q 632 24 656 0 q 608 85 608 49 l 608 153 l 639 140 q 619 97 639 122 q 567 46 600 71 q 488 3 533 21 q 390 -14 443 -14 q 217 35 294 -14 q 94 172 139 85 q 49 371 49 258 q 94 572 49 485 q 215 708 139 658 q 385 757 292 757 q 494 739 444 757 q 581 693 544 721 q 638 637 618 665 q 658 589 658 608 l 608 571 l 608 672 q 632 733 608 708 q 692 757 656 757 m 411 139 q 518 169 472 139 q 590 253 564 200 q 615 371 615 306 q 590 490 615 438 q 518 574 564 543 q 411 604 472 604 q 306 574 351 604 q 234 490 260 543 q 208 371 208 438 q 234 253 208 306 q 306 169 260 200 q 411 139 351 139 m 431 -222 q 365 -207 385 -222 q 346 -153 346 -192 l 346 -126 q 367 -72 346 -86 q 431 -57 389 -57 q 501 -72 482 -57 q 521 -126 521 -86 l 521 -153 q 500 -208 521 -193 q 431 -222 479 -222 z "},"ằ":{"ha":865,"x_min":49,"x_max":775,"o":"m 692 757 q 751 733 728 757 q 775 672 775 710 l 775 85 q 751 24 775 49 q 692 0 728 0 q 632 24 656 0 q 608 85 608 49 l 608 153 l 639 140 q 619 97 639 122 q 567 46 600 71 q 488 3 533 21 q 390 -14 443 -14 q 217 35 294 -14 q 94 172 139 85 q 49 371 49 258 q 94 572 49 485 q 215 708 139 658 q 385 757 292 757 q 494 739 444 757 q 581 693 544 721 q 638 637 618 665 q 658 589 658 608 l 608 571 l 608 672 q 632 733 608 708 q 692 757 656 757 m 411 139 q 518 169 472 139 q 590 253 564 200 q 615 371 615 306 q 590 490 615 438 q 518 574 564 543 q 411 604 472 604 q 306 574 351 604 q 234 490 260 543 q 208 371 208 438 q 234 253 208 306 q 306 169 260 200 q 411 139 351 139 z "}}}
